<?xml version="1.0" encoding="UTF-8" standalone="no"?>
<!DOCTYPE svg PUBLIC "-//W3C//DTD SVG 1.1//EN" "http://www.w3.org/Graphics/SVG/1.1/DTD/svg11.dtd">
<svg width="100%" height="100%" viewBox="0 0 1080 1080" version="1.1" xmlns="http://www.w3.org/2000/svg" xmlns:xlink="http://www.w3.org/1999/xlink" xml:space="preserve" xmlns:serif="http://www.serif.com/" style="fill-rule:evenodd;clip-rule:evenodd;stroke-linecap:round;stroke-linejoin:round;">
    <g>
        <path d="M13.114,58.717C13.23,58.917 42.956,41.295 43.04,41.44C53.814,60.101 -2.566,48.16 8.208,66.822C8.645,67.579 36.686,43.971 39.461,48.778C43.023,54.948 16.802,52.404 22.121,61.615C22.599,62.444 32.689,46.417 36.628,53.239C45.621,68.816 -0.111,60.559 8.883,76.135C16.51,89.346 45.261,50.848 47.116,54.061C54.302,66.507 13.587,65.971 20.186,77.4C31.544,97.074 39.273,39.769 50.796,59.727C59.122,74.147 -7.389,68.029 6.316,91.766C21.017,117.23 48.152,33.66 62.854,59.124C73.202,77.047 20.255,67.145 30.603,85.069C36.68,95.593 74.643,24.837 89.714,50.941C104.385,76.353 36.127,76.771 40.038,83.546C42.613,88.004 93.946,32.086 102.752,47.338C115.996,70.278 23.735,89.549 29.782,100.023C53.446,141.01 77.127,13.557 102.732,57.905C120.388,88.487 38.589,87.834 43.66,96.617C56.105,118.173 116.03,14.374 133.55,44.719C166.804,102.318 -9.984,61.498 23.27,119.097C52.541,169.797 88.269,4.755 121.531,62.366C156.983,123.77 -10.832,116.501 1.595,138.026C38.064,201.192 115.2,-11.787 151.669,51.38C189.023,116.079 -11.958,66.557 25.396,131.256C65.352,200.462 174.186,26.637 182.29,40.673C183.748,43.197 6.653,122.828 18.508,143.361C61.666,218.113 110.293,-9.299 153.451,65.452C186.274,122.304 8.431,76.792 41.255,133.645C50.648,149.915 159.351,26.248 176.331,55.658C215.514,123.525 3.994,70.463 43.177,138.33C73.48,190.82 154.596,-25.666 197.754,49.086C228.27,101.94 49.886,133.375 52.133,137.267C66.703,162.502 205.098,40.691 208.675,46.887C214.829,57.547 37.235,132.602 43.518,143.484C74.202,196.629 168.36,-8.609 203.009,51.403C244.445,123.174 18.609,63.499 60.045,135.269C88.521,184.591 162.334,-23.457 205.492,51.295C247.634,124.287 56.544,130.271 62.28,140.206C87.814,184.431 197.142,-14.193 230.283,43.209C257.004,89.491 54.763,57.013 94.501,125.84C137.659,200.591 179.034,-22.634 222.192,52.117C266.852,129.47 41.417,96.079 70.581,146.593C108.87,212.911 236.021,13.42 252.327,41.663C267.539,68.012 64.073,61.777 107.417,136.852C150.575,211.603 206.911,-9.537 245.426,57.173C268.656,97.408 85.588,91.183 112.569,137.914C132.531,172.49 196.12,-9.993 239.278,64.759C274.432,125.649 87.799,83.614 118.144,136.173C161.302,210.924 209.451,-16.212 252.609,58.539C264.567,79.252 97.315,69.228 132.275,129.781C175.433,204.533 199.56,-8.734 242.717,66.017C281.444,133.092 73.407,82.266 112.134,149.341C155.292,224.092 223.175,-14.343 266.292,60.338C273.607,73.008 146.199,102.876 162.5,131.111C190.776,180.086 299.593,19.242 313.76,43.78C366.34,134.854 80.319,60.066 132.9,151.139C152.401,184.916 235.576,-7.81 278.734,66.942C310.051,121.185 130.058,112.66 148.87,145.244C171.875,185.089 247.667,-11.465 290.825,63.286C323.896,120.566 165.117,109.402 181.45,137.69C218.779,202.347 291.781,-25.679 334.939,49.073C374.678,117.904 160.131,64.051 199.87,132.881C243.028,207.632 352.703,28.729 359.594,40.665C393.402,99.223 152.302,61.627 199.863,144.006C243.02,218.758 307.469,-17.79 350.627,56.962C361.103,75.106 186.039,68.856 223.165,133.158C227.395,140.486 325.159,-25.397 368.316,49.355C414.156,128.752 169.858,72.088 213.011,146.83C216.333,152.584 345.597,-29.388 388.755,45.364C426.352,110.485 224.078,60.664 261.675,125.785C299.697,191.641 362.816,-32.278 405.974,42.474C412.109,53.1 220.894,60.769 263.3,134.219C288.515,177.893 348.967,-14.908 392.124,59.843C425.979,118.482 249.486,83.431 277.5,131.953C314.065,195.286 382.908,51.823 391.253,66.277C418.123,112.818 236.315,84.81 272.273,147.09C315.431,221.842 421.967,50.833 426.224,58.206C461.53,119.356 270.145,70.249 305.451,131.399C348.609,206.151 434.363,9.241 455.031,45.039C493.761,112.121 306.018,96.388 324.92,129.127C368.078,203.878 400.98,-14.455 444.138,60.296C476.442,116.247 319.614,102.998 333.43,126.927C375.108,199.116 437.391,-32.764 480.549,41.988C528.735,125.448 313.49,137.88 317.125,144.177C360.283,218.928 438.794,-25.738 481.952,49.014C527.059,127.141 282.296,63.993 327.403,142.121C370.561,216.873 481.297,10.668 499.744,42.62C545.28,121.491 301.61,63.201 347.146,142.071C381.852,202.184 442.301,-12.535 485.459,62.216C499.429,86.412 343.672,72.267 375.629,127.618C418.787,202.369 439.599,-8.984 482.756,65.767C517.366,125.713 330.69,79.1 365.3,139.046C385.786,174.53 518.738,17.364 533.069,42.185C583.353,129.28 313.524,63.747 363.807,150.841C374.571,169.484 494.642,20.692 518.289,61.651C530.85,83.407 388.991,77.392 419.039,129.436C420.914,132.685 505.228,-19.994 548.385,54.757C556.878,69.468 395.198,71.083 430.463,132.163C473.621,206.914 546.096,-34.267 589.254,40.485C612.574,80.878 388.2,105.471 413.259,148.874C456.417,223.625 555.896,19.449 576.28,54.754C611.112,115.086 411.13,72.581 449.18,138.486C492.338,213.237 550.481,-19.669 593.638,55.083C636.302,128.979 414.379,85.39 450.744,148.377C493.902,223.129 583.806,-28.115 626.964,46.636C655.339,95.781 439.253,113.537 461.304,151.731C504.462,226.482 591.894,-23.334 635.052,51.417C638.147,56.777 416.702,67.336 465.972,152.675C509.13,227.427 607.571,33.826 623.634,61.649C662.877,129.622 471.624,112.196 489.867,143.794C510.972,180.35 622.416,-24.752 662.261,44.262C703.388,115.495 482.437,61.487 523.563,132.72C533.386,149.734 633.565,-30.459 676.723,44.293C727.278,131.855 492.297,129.243 503.155,148.05C507.805,156.103 628.112,-23.762 671.27,50.989C713.998,124.996 485.815,71.001 528.542,145.008C554.179,189.411 641.978,1.484 675.766,60.008C691.405,87.094 532.04,97.046 554.648,136.204C597.805,210.955 666.615,-28.109 709.773,46.642C755.086,125.128 523.817,86.602 557.602,145.119C560.616,150.339 682.995,14.796 708.078,58.242C745.03,122.242 558.808,94.639 585.306,140.535C618.53,198.078 693.916,6.969 724.599,60.114C734.099,76.567 614.426,128.637 617.188,133.421C660.345,208.173 702.009,-15.219 745.167,59.532C758.62,82.834 592.69,148.907 593.367,150.079C636.524,224.831 697.634,-9.787 740.791,64.964C766.131,108.853 615.927,128.061 623.584,141.323C666.741,216.074 753.952,-33.615 797.11,41.137C843.568,121.606 620.467,106.466 640.596,141.328C683.753,216.08 769.588,-32.814 812.745,41.937C832.559,76.257 614.032,112.91 636.509,151.84C679.667,226.591 748.333,-12.39 791.491,62.361C804.304,84.554 606.326,77.916 648.379,150.753C658.89,168.958 794.878,64.401 795.645,65.729C816.395,101.669 670.423,81.845 699.652,132.47C729.326,183.868 813.933,58.253 817.501,64.43C838.809,101.337 662.018,108.43 684.223,146.889C727.381,221.641 784.001,-10.386 827.159,64.365C840.592,87.63 641.956,80.398 684.08,153.36C716.771,209.982 812.692,-20.562 855.849,54.19C901.333,132.97 687.903,127.155 698.927,146.25C712.646,170.012 812.712,-19.112 855.87,55.639C857.102,57.775 700.591,105.722 722.057,142.903C765.214,217.655 872.374,43.147 877.991,52.875C925.558,135.263 667.132,68.143 714.698,150.53C757.856,225.281 852.008,-28.414 895.166,46.337C935.53,116.251 718.476,62.934 758.841,132.848C801.997,207.601 906.5,26.335 915.706,42.281C956.611,113.13 735.932,58.09 775.412,126.47C782.94,139.511 873.8,-30.003 916.957,44.748C955.343,111.234 748.345,59.602 786.73,126.087C829.887,200.838 872.779,-23.262 915.937,51.489C938.167,89.994 753.331,62.844 789.958,126.285C833.115,201.036 873.374,29.11 894.597,65.871C932.585,131.666 728.827,82.292 766.815,148.087C774.978,162.227 905.027,-1.579 935.281,50.823C977.174,123.385 731.473,68.612 777.849,148.937C798.546,184.785 887.638,-14.119 930.795,60.633C962.36,115.307 791.455,71.742 823.021,126.416C866.179,201.168 909.297,34.312 927.611,66.031C962.515,126.486 781.95,92.42 811.311,143.275C817.648,154.253 929.623,-17.368 969.605,51.884C993.431,93.151 771.579,67.131 816.369,144.709C852.236,206.836 968.938,44.679 974.11,53.64C1019.42,132.109 777.197,74.438 822.502,152.907C853.014,205.756 943.785,-16.784 986.942,57.967C1018,111.759 852.028,72.337 883.085,126.129C916.593,184.165 962.426,7.332 994.031,62.074C997.728,68.478 832.861,96.685 859.976,143.65C903.134,218.402 967.92,-2.325 1004.14,60.416C1045.41,131.885 825.945,81.861 861.796,143.958C904.954,218.709 1003.03,55.629 1005.97,60.721C1014.01,74.651 870.015,73.206 901.033,126.933C920.372,160.428 994.838,0.582 1026.1,54.727C1034.28,68.903 851.601,91.542 881.485,143.302C924.642,218.054 1023.48,32.083 1036.14,54.01C1064.56,103.227 916.629,107.067 928.403,127.459C970.63,200.598 1041.62,-16.27 1075.55,42.504C1087.81,63.746 867.917,60.278 915.116,142.029C953.893,209.193 1002.59,1.976 1041.36,69.14C1068.04,115.349 923.127,81.245 950.276,128.268C978.529,177.204 1004.39,15.023 1039.9,76.525C1063.88,118.073 943.666,101.035 961.247,131.486C991.979,184.716 1034.61,81.192 1038.04,87.148C1048.4,105.082 930.079,96.067 954.579,138.502C983.729,188.991 1058.69,40.972 1074.9,69.037C1107.22,125.026 939.983,93.383 967.498,141.039C991.651,182.873 1015.53,57.531 1039.68,99.365C1055.59,126.918 984.038,128.728 990.145,139.304C992.269,142.983 1044.65,72.795 1059.82,99.075C1075.28,125.847 996.766,112.777 1009.97,135.641C1024.56,160.916 1018.79,96.847 1033.38,122.123C1039.53,132.781 1009.82,128.865 1015.97,139.522C1024.51,154.305 1042.88,98.772 1053.8,117.685C1059.83,128.139 1029.31,122.801 1035.35,133.255C1043.81,147.91 1058.31,109.163 1063,117.287C1068.49,126.788 1003.83,129.688 1015.36,149.666C1021.39,160.101 1037.02,123.249 1043.05,133.684C1046.15,139.067 1034.13,141.15 1035.55,143.602C1037.09,146.265 1048.49,133.984 1049.42,135.593C1050.96,138.257 1053.18,136.056 1054.72,138.72C1054.75,138.774 1077.66,125.156 1077.8,125.395" style="fill:none;stroke:white;stroke-opacity:0.662745;stroke-width:1px;"/>
        <path d="M13.114,939.386C13.23,939.587 42.956,921.964 43.04,922.109C53.814,940.771 -2.566,928.83 8.208,947.493C8.645,948.25 36.686,924.641 39.461,929.448C43.023,935.618 16.802,933.074 22.121,942.286C22.599,943.115 32.689,927.087 36.628,933.909C45.621,949.486 -0.111,941.229 8.883,956.805C16.51,970.017 45.261,931.518 47.116,934.731C54.302,947.178 13.587,946.641 20.186,958.07C31.544,977.745 39.273,920.441 50.796,940.398C59.122,954.819 -7.389,948.7 6.316,972.436C21.018,997.901 48.153,914.331 62.854,939.794C73.202,957.717 20.255,947.815 30.603,965.739C36.68,976.262 74.643,905.506 89.714,931.61C104.385,957.022 36.127,957.44 40.038,964.215C42.613,968.673 93.946,912.753 102.752,928.007C115.996,950.947 23.735,970.218 29.782,980.691C53.446,1021.68 77.127,894.226 102.732,938.574C120.388,969.156 38.589,968.504 43.66,977.286C56.105,998.842 116.03,895.044 133.55,925.389C166.804,982.987 -9.984,942.168 23.27,999.767C52.541,1050.47 88.269,885.425 121.531,943.036C156.983,1004.44 -10.832,997.171 1.595,1018.7C38.065,1081.86 115.2,868.883 151.67,932.05C189.024,996.749 -11.957,947.227 25.397,1011.93C65.353,1081.13 174.187,907.307 182.291,921.344C183.749,923.867 6.654,1003.5 18.509,1024.03C61.667,1098.79 110.294,871.373 153.452,946.124C186.275,1002.98 8.432,957.465 41.256,1014.32C50.649,1030.59 159.352,906.92 176.332,936.33C215.515,1004.2 3.995,951.136 43.178,1019C73.482,1071.49 154.598,855.005 197.756,929.756C228.272,982.61 49.888,1014.05 52.135,1017.94C66.705,1043.17 205.1,921.362 208.677,927.558C214.831,938.217 37.237,1013.27 43.52,1024.15C74.204,1077.3 168.362,872.063 203.01,932.074C244.446,1003.85 18.61,944.17 60.046,1015.94C88.522,1065.26 162.335,857.214 205.493,931.966C247.635,1004.96 56.545,1010.94 62.281,1020.88C87.815,1065.1 197.143,866.477 230.284,923.88C257.005,970.162 54.764,937.684 94.502,1006.51C137.66,1081.26 179.035,858.037 222.193,932.789C266.853,1010.14 41.418,976.75 70.582,1027.27C108.871,1093.58 236.022,894.091 252.328,922.334C267.54,948.682 64.074,942.448 107.418,1017.52C150.576,1092.27 206.912,871.133 245.427,937.843C268.657,978.078 85.589,971.853 112.57,1018.58C132.532,1053.16 196.121,870.678 239.279,945.429C274.433,1006.32 87.8,964.284 118.145,1016.84C161.303,1091.6 209.452,864.458 252.61,939.209C264.568,959.922 97.316,949.898 132.276,1010.45C175.434,1085.2 199.561,871.936 242.718,946.688C281.445,1013.76 73.408,962.936 112.135,1030.01C155.293,1104.76 223.176,866.328 266.293,941.008C273.608,953.678 146.2,983.546 162.501,1011.78C190.777,1060.76 299.594,899.912 313.761,924.45C366.342,1015.52 80.321,940.736 132.902,1031.81C152.403,1065.59 235.578,872.859 278.735,947.61C310.052,1001.85 130.059,993.329 148.871,1025.91C171.876,1065.76 247.668,869.204 290.826,943.956C323.897,1001.24 165.118,990.071 181.451,1018.36C218.78,1083.02 291.782,854.992 334.94,929.743C374.679,998.573 160.132,944.722 199.871,1013.55C243.029,1088.3 352.704,909.399 359.595,921.335C393.403,979.893 152.303,942.297 199.864,1024.68C243.021,1099.43 307.47,862.88 350.629,937.632C361.105,955.777 186.041,949.526 223.167,1013.83C227.397,1021.15 325.161,855.272 368.318,930.025C414.158,1009.42 169.86,952.757 213.013,1027.5C216.335,1033.25 345.599,851.282 388.757,926.034C426.354,991.154 224.08,941.335 261.677,1006.46C299.699,1072.31 362.818,848.392 405.976,923.143C412.11,933.769 220.895,941.438 263.301,1014.89C288.516,1058.56 348.968,865.76 392.125,940.511C425.98,999.15 249.487,964.099 277.501,1012.62C314.066,1075.95 382.909,932.491 391.254,946.945C418.124,993.485 236.316,965.478 272.274,1027.76C315.432,1102.51 421.968,931.502 426.225,938.875C461.531,1000.02 270.146,950.917 305.452,1012.07C348.61,1086.82 434.364,889.909 455.032,925.708C493.762,992.789 306.019,977.057 324.921,1009.8C368.079,1084.55 400.981,866.214 444.139,940.966C476.443,996.916 319.615,983.667 333.431,1007.6C375.109,1079.79 437.392,847.907 480.55,922.658C528.736,1006.12 313.491,1018.55 317.126,1024.85C360.284,1099.6 438.795,854.933 481.953,929.685C527.06,1007.81 282.297,944.663 327.404,1022.79C370.562,1097.54 481.298,891.337 499.745,923.289C545.281,1002.16 301.611,943.87 347.147,1022.74C381.853,1082.85 442.302,868.134 485.46,942.886C499.43,967.081 343.673,952.937 375.63,1008.29C418.788,1083.04 439.6,871.685 482.757,946.436C517.367,1006.38 330.691,959.77 365.301,1019.72C385.787,1055.2 518.739,898.032 533.07,922.854C583.354,1009.95 313.525,944.416 363.808,1031.51C374.572,1050.15 494.643,901.361 518.29,942.32C530.851,964.077 388.992,958.061 419.04,1010.11C420.915,1013.35 505.229,860.674 548.386,935.426C556.879,950.137 395.199,951.752 430.464,1012.83C473.622,1087.58 546.097,846.401 589.255,921.154C612.575,961.545 388.201,986.139 413.26,1029.54C456.418,1104.29 555.897,900.116 576.281,935.422C611.113,995.754 411.131,953.249 449.181,1019.15C492.339,1093.9 550.482,861 593.639,935.751C636.303,1009.65 414.38,966.059 450.745,1029.05C493.903,1103.8 583.807,852.552 626.965,927.304C655.34,976.45 439.254,994.204 461.305,1032.4C504.463,1107.15 591.895,857.335 635.053,932.086C638.148,937.446 416.703,948.005 465.973,1033.34C509.131,1108.1 607.572,914.494 623.635,942.317C662.878,1010.29 471.625,992.865 489.868,1024.46C510.973,1061.02 622.417,855.917 662.262,924.932C703.389,996.164 482.438,942.157 523.564,1013.39C533.387,1030.4 633.566,850.21 676.724,924.963C727.279,1012.53 492.298,1009.91 503.156,1028.72C507.806,1036.77 628.113,856.907 671.271,931.658C713.999,1005.67 485.816,951.671 528.543,1025.68C554.18,1070.08 641.979,882.154 675.767,940.677C691.406,967.764 532.041,977.716 554.649,1016.87C597.806,1091.63 666.616,852.56 709.774,927.311C755.087,1005.8 523.818,967.271 557.603,1025.79C560.617,1031.01 682.996,895.466 708.079,938.911C745.031,1002.91 558.809,975.307 585.307,1021.2C618.531,1078.75 693.917,887.639 724.6,940.783C734.1,957.236 614.427,1009.31 617.189,1014.09C660.346,1088.84 702.01,865.451 745.168,940.202C758.621,963.504 592.691,1029.58 593.368,1030.75C636.525,1105.5 697.635,870.883 740.792,945.634C766.132,989.523 615.928,1008.73 623.585,1021.99C666.742,1096.74 753.953,847.054 797.111,921.806C843.569,1002.28 620.468,987.134 640.597,1022C683.754,1096.75 769.589,847.853 812.746,922.605C832.56,956.925 614.033,993.578 636.51,1032.51C679.668,1107.26 748.334,868.278 791.492,943.029C804.305,965.221 606.327,958.584 648.38,1031.42C658.891,1049.63 794.879,945.07 795.646,946.397C816.396,982.338 670.424,962.512 699.653,1013.14C729.327,1064.54 813.934,938.921 817.502,945.098C838.81,982.005 662.019,989.099 684.224,1027.56C727.382,1102.31 784.002,870.284 827.16,945.035C840.593,968.299 641.957,961.068 684.081,1034.03C716.772,1090.65 812.693,860.108 855.85,934.859C901.334,1013.64 687.904,1007.83 698.928,1026.92C712.647,1050.68 812.713,861.557 855.871,936.308C857.103,938.445 700.592,986.392 722.058,1023.57C765.215,1098.33 872.375,923.817 877.992,933.545C925.559,1015.93 667.133,948.813 714.699,1031.2C757.857,1105.95 852.009,852.256 895.167,927.008C935.531,996.921 718.477,943.605 758.842,1013.52C802,1088.27 906.503,907.004 915.709,922.952C956.614,993.801 735.935,938.761 775.415,1007.14C782.943,1020.18 873.803,850.667 916.96,925.419C955.346,991.905 748.348,940.273 786.733,1006.76C829.89,1081.51 872.782,857.409 915.94,932.16C938.17,970.666 753.334,943.514 789.961,1006.96C833.118,1081.71 873.377,909.78 894.6,946.543C932.588,1012.34 728.83,962.963 766.818,1028.76C774.981,1042.9 905.03,879.092 935.284,931.494C977.177,1004.06 731.476,949.284 777.852,1029.61C798.549,1065.46 887.641,866.552 930.798,941.304C962.363,995.978 791.458,952.413 823.024,1007.09C866.182,1081.84 909.3,914.983 927.614,946.703C962.518,1007.16 781.953,973.09 811.314,1023.95C817.651,1034.92 929.626,863.303 969.608,932.554C993.434,973.822 771.582,947.802 816.372,1025.38C852.239,1087.5 968.94,925.348 974.113,934.308C1019.42,1012.78 777.2,955.106 822.505,1033.58C853.017,1086.42 943.788,863.884 986.945,938.635C1018,992.427 852.031,953.005 883.088,1006.8C916.596,1064.83 962.429,888 994.034,942.742C997.731,949.146 832.864,977.352 859.979,1024.32C903.137,1099.07 967.923,878.342 1004.15,941.084C1045.41,1012.55 825.948,962.528 861.799,1024.62C904.957,1099.38 1003.03,936.296 1005.97,941.388C1014.01,955.319 870.018,953.874 901.036,1007.6C920.375,1041.1 994.841,881.249 1026.1,935.395C1034.29,949.571 851.604,972.21 881.488,1023.97C924.645,1098.72 1023.49,912.75 1036.14,934.678C1064.56,983.894 916.632,987.735 928.406,1008.13C970.633,1081.27 1041.62,864.397 1075.55,923.171C1087.82,944.413 867.92,940.945 915.119,1022.7C953.896,1089.86 1002.59,882.643 1041.37,949.807C1068.04,996.016 923.13,961.912 950.279,1008.94C978.532,1057.87 1004.39,895.691 1039.9,957.192C1063.89,998.741 943.669,981.703 961.25,1012.15C991.982,1065.38 1034.61,961.86 1038.05,967.815C1048.4,985.749 930.082,976.735 954.582,1019.17C983.732,1069.66 1058.7,921.64 1074.9,949.703C1107.22,1005.69 939.986,974.05 967.501,1021.71C991.654,1063.54 1015.53,938.197 1039.68,980.031C1055.59,1007.58 984.041,1009.39 990.148,1019.97C992.272,1023.65 1044.65,953.461 1059.83,979.742C1075.28,1006.51 996.769,993.444 1009.97,1016.31C1024.56,1041.58 1018.79,977.513 1033.38,1002.79C1039.54,1013.45 1009.82,1009.53 1015.98,1020.19C1024.51,1034.97 1042.88,979.439 1053.8,998.35C1059.84,1008.81 1029.31,1003.47 1035.35,1013.92C1043.81,1028.57 1058.32,989.828 1063.01,997.952C1068.49,1007.45 1003.83,1010.35 1015.37,1030.33C1021.39,1040.77 1037.02,1003.91 1043.05,1014.35C1046.16,1019.73 1034.13,1021.81 1035.55,1024.27C1037.09,1026.93 1048.49,1014.65 1049.42,1016.26C1050.96,1018.92 1053.18,1016.72 1054.72,1019.38C1054.75,1019.44 1077.66,1005.82 1077.8,1006.06" style="fill:none;stroke:white;stroke-opacity:0.662745;stroke-width:1px;"/>
        <path d="M926.136,26.365C926.251,26.565 955.978,8.942 956.062,9.087C966.836,27.75 910.456,15.808 921.231,34.47C921.669,35.227 949.711,11.615 952.489,16.423C956.052,22.594 929.823,20.049 935.143,29.263C935.622,30.092 945.717,14.057 949.658,20.883C958.653,36.463 912.91,28.203 921.905,43.784C929.536,57.001 958.297,18.487 960.152,21.702C967.34,34.153 926.606,33.614 933.209,45.048C944.572,64.732 952.31,7.396 963.839,27.363C972.169,41.79 905.628,35.667 919.338,59.413C934.047,84.891 961.193,1.279 975.902,26.755C986.258,44.692 933.268,34.779 943.624,52.715C949.704,63.245 987.69,-7.55 1002.77,18.568C1017.45,43.996 949.147,44.413 953.061,51.193C955.636,55.654 1007,-0.297 1015.81,14.964C1029.06,37.915 936.755,57.191 942.804,67.67C965.825,107.542 988.433,-16.195 1013.34,26.946C1030.3,56.323 951.811,55.827 956.683,64.264C967.79,83.502 1020.54,-8.716 1036.18,18.366C1066.44,70.782 906.031,34.327 936.293,86.743C958.212,124.709 980.706,3.579 1005.61,46.721C1032.72,93.669 905.116,89.216 914.618,105.672C939.524,148.814 999.733,-0.992 1024.64,42.15C1050.45,86.847 912.613,54.206 938.418,98.903C963.325,142.045 1038.13,29.667 1043.18,38.418C1044.21,40.201 920.162,98.224 928.54,112.736C953.447,155.878 975.354,28.185 1000.26,71.327C1016.55,99.542 929.08,78.22 945.37,106.436C950.79,115.826 1007.43,47.975 1017.23,64.95C1041.07,106.248 913.409,75.619 937.252,116.917C954.741,147.21 1003.7,21.03 1028.61,64.171C1047.52,96.918 937.703,117.547 939.095,119.959C947.504,134.524 1030.35,62.503 1032.42,66.079C1036.31,72.811 924.358,120.549 928.325,127.421C946.035,158.093 1004.6,37.204 1024.6,71.839C1048.45,113.15 918.704,79.222 942.555,120.532C958.99,148.997 999.875,29.916 1024.78,73.058C1051.8,119.853 930.326,125.327 934.004,131.696C948.74,157.22 1019.66,38.07 1038.79,71.199C1054.67,98.701 935.271,80.669 958.885,121.569C983.793,164.711 998.449,41.204 1023.36,84.346C1053.25,136.123 903.419,115.452 922.94,149.264C945.038,187.538 1032.06,64.533 1041.47,80.833C1052.31,99.608 908.925,97.551 939.812,151.048C964.72,194.191 992.373,69.367 1014.6,107.868C1028.13,131.308 922.254,128.922 937.972,156.146C949.493,176.101 976.554,76.348 1001.46,119.49C1019.11,150.052 925.758,129.502 940.989,155.882C965.896,199.024 987.326,71.606 1012.23,114.748C1018.25,125.173 934.46,120.781 952.056,151.26C976.964,194.402 974.372,80.853 999.281,123.995C1023.75,166.368 893.714,136.377 918.177,178.75C943.086,221.893 984.232,83.146 1009.12,126.247C1013.46,133.768 940.075,154.61 949.751,171.37C966.071,199.635 1029.62,106.377 1037.79,120.539C1073.6,182.551 879.259,132.325 915.062,194.337C926.318,213.832 972.77,103.496 997.678,146.639C1015.3,177.158 914.688,173.435 925.273,191.767C938.55,214.764 979.101,103.166 1004.01,146.309C1024.51,181.825 928.229,177.931 938.355,195.471C959.9,232.787 1003.72,100.211 1028.63,143.353C1053.04,185.643 922.266,154.2 946.683,196.489C971.591,239.632 1039.21,133.882 1043.19,140.771C1067.99,183.734 892.519,158.295 927.414,218.734C952.323,261.877 990.054,125.045 1014.96,168.188C1020.66,178.052 926.02,175.535 946.202,210.492C948.644,214.721 1003.23,120.044 1028.14,163.187C1059.65,217.765 892.86,180.597 922.522,231.975C924.439,235.295 1010.14,123.864 1035.05,167.007C1057.94,206.66 936.078,178.328 958.973,217.982C980.918,255.991 1015.15,128.026 1040.06,171.169C1044.23,178.402 915.499,185.789 944.365,235.786C958.919,260.993 985.064,154.765 1009.97,197.908C1028.57,230.111 932.906,212.805 948.29,239.452C969.394,276.005 994.01,201.932 998.826,210.275C1016.63,241.102 898.254,225.456 922.07,266.709C946.979,309.853 1010.35,210.067 1012.81,214.323C1031.6,246.879 930.45,221.928 949.245,254.484C974.154,297.628 1023.68,183.96 1035.61,204.621C1060.6,247.909 940.982,240.054 953.18,261.18C978.088,304.324 984.272,185.704 1009.18,228.847C1024.6,255.551 950.394,250.274 956.988,261.695C981.044,303.361 1015.98,170.11 1040.89,213.253C1074.76,271.915 924.555,282.356 927.11,286.781C952.019,329.925 1003.81,184.972 1028.72,228.116C1057.52,278.002 901.868,238.717 930.671,288.603C955.579,331.747 1029.15,207.157 1039.8,225.599C1072.78,282.735 897.769,242.766 930.756,299.903C950.786,334.598 980.944,213.401 1005.85,256.545C1012.28,267.681 941.083,261.966 955.79,287.441C980.699,330.585 974.793,218.943 999.703,262.088C1018.81,295.189 916.883,271.234 935.995,304.336C947.818,324.816 1032.28,229.646 1040.55,243.971C1078.07,308.96 878.044,262.075 915.565,327.064C921.778,337.824 993.184,250.73 1006.83,274.37C1013.98,286.756 935.535,286.513 952.641,316.141C953.724,318.016 993.865,234.814 1018.77,277.959C1024,287.018 926.203,290.582 947.917,328.192C972.827,371.337 1018.59,229.866 1043.5,273.011C1060.11,301.795 901.116,320.752 918.973,351.681C943.883,394.826 1007.01,273.68 1018.78,294.057C1041.68,333.717 911.952,308.321 936.965,351.644C961.875,394.789 993.301,261.592 1018.21,304.737C1048.05,356.422 894.398,328.275 919.833,372.33C944.742,415.475 1007.93,263.94 1032.84,307.085C1053.4,342.696 898.046,357.458 914.024,385.134C938.934,428.28 999.651,278.171 1024.56,321.316C1026.62,324.889 879.543,332.828 912.389,389.717C937.298,432.863 997.567,319.128 1006.84,335.187C1030.3,375.826 916.863,366.859 927.771,385.75C939.953,406.85 1013.96,282.88 1036.95,322.714C1064.04,369.634 919.861,336.136 946.951,383.057C952.621,392.878 1011.99,287.98 1036.9,331.125C1070.98,390.159 913.077,389.255 920.398,401.935C923.082,406.583 1000.39,298.225 1025.3,341.37C1055.62,393.882 895.349,357.995 925.667,410.508C940.464,436.137 990.176,328.224 1009.68,362.004C1018.72,377.661 927.847,385.337 940.915,407.972C965.825,451.118 1007.92,311.76 1032.83,354.906C1065.23,411.025 901.316,385.668 925.473,427.509C927.212,430.522 998.26,352.05 1012.74,377.126C1037.19,419.477 915.877,403.965 933.412,434.336C952.588,467.55 991.782,359.735 1009.49,390.41C1015.33,400.516 944.036,435.577 945.732,438.515C970.643,481.661 985.589,357.975 1010.5,401.121C1018.84,415.568 916.46,457.352 916.879,458.079C941.789,501.225 976.182,366.313 1001.09,409.458C1016.38,435.941 927.425,450.009 932.045,458.011C956.956,501.157 1017.45,351.174 1042.36,394.32C1075.51,451.73 917.674,442.973 932.035,467.845C956.945,510.991 1016.06,361.801 1040.97,404.948C1055.39,429.909 897.478,458.196 913.826,486.511C938.737,529.657 980.688,390.379 1005.6,433.526C1013.73,447.617 889.009,444.946 915.708,491.19C921.774,501.698 999.321,441.894 999.765,442.66C1011.63,463.219 930.655,455.268 947.374,484.227C964.502,513.894 999.954,449.115 1002.01,452.681C1014.9,475.007 908.965,480.893 922.398,504.159C947.309,547.306 977.213,414.983 1002.12,458.129C1010.76,473.087 884.104,470.107 911.188,517.019C930.058,549.701 994.838,411.194 1019.75,454.341C1047.72,502.783 916.727,499.627 923.506,511.368C931.424,525.084 992.328,414.104 1017.24,457.251C1018.06,458.681 914.936,493.15 929.301,518.03C954.212,561.176 1018.78,458.88 1022.03,464.494C1053.04,518.208 885.08,475.32 916.091,529.035C941.001,572.181 1008.44,418.188 1033.35,461.335C1059.39,506.437 920.677,474.055 946.716,519.157C971.627,562.304 1035.06,455.879 1040.38,465.083C1064.63,507.097 934.352,475.419 957.764,515.97C962.109,523.496 1011.19,427.594 1036.1,470.741C1059.33,510.977 935.195,481.504 958.425,521.74C983.336,564.886 999.514,440.487 1024.42,483.635C1036.21,504.044 938.669,490.372 958.082,523.999C982.994,567.146 987.263,478.86 999.514,500.079C1023.5,541.624 896.333,512.697 920.32,554.242C925.033,562.403 1008.12,463.225 1025.58,493.472C1054.26,543.152 887.095,507.318 918.847,562.313C930.793,583.006 983.674,467.356 1008.59,510.503C1023.7,536.674 942.742,517.183 957.852,543.354C982.764,586.501 988.665,501.154 999.235,519.463C1020.98,557.13 910.357,538.625 928.651,570.312C932.31,576.649 1000.66,475.44 1023.74,515.414C1039.02,541.88 897.439,526.346 926.166,576.101C946.87,611.96 1017.72,516.35 1020.7,521.522C1053.65,578.596 879.019,538.956 911.972,596.032C929.585,626.537 988.295,494.436 1013.21,537.584C1030.16,566.947 941.4,548.09 958.353,577.453C977.694,610.953 987.848,518.293 1006.09,549.891C1008.27,553.658 912.05,571.522 928.004,599.155C952.915,642.302 988.055,516.197 1008.96,552.413C1032.66,593.456 906.884,565.158 927.473,600.818C952.385,643.966 1006.74,551.135 1008.44,554.074C1012.49,561.086 941.348,562.383 956.96,589.424C968.122,608.757 1000.77,522.457 1018.82,553.71C1023.97,562.638 909.789,578.277 928.608,610.875C953.52,654.023 1012.75,545.418 1020.06,558.074C1037.52,588.32 948.812,593.747 956.047,606.277C980.958,649.425 1023.19,521.277 1043.21,555.951C1051.88,570.958 897.466,569.994 930.811,627.746C955.722,670.895 984.114,539.441 1009.03,582.589C1025.32,610.806 938.066,591.816 954.643,620.527C974.465,654.859 982.648,546.827 1007.56,589.975C1025.76,621.494 935.731,610.197 949.068,633.297C973.98,676.445 1002.92,595.773 1005.7,600.599C1014.27,615.434 916.652,608.38 936.917,643.478C961.829,686.627 1028.71,558.504 1042.56,582.489C1075.64,639.792 904.365,607.237 932.524,656.011C957.436,699.159 982.422,569.669 1007.34,612.819C1029.62,651.414 926.973,650.802 935.526,665.618C938.389,670.577 1007.02,577.112 1027.47,612.533C1053.21,657.115 919.886,631.663 941.869,669.738C966.781,712.888 976.118,592.432 1001.03,635.582C1014.69,659.235 943.57,644.567 957.227,668.221C976.701,701.951 972.753,601.724 997.666,644.874C1013.23,671.835 930.435,652.659 945.999,679.62C970.912,722.769 1016.84,606.828 1030.65,630.749C1043.32,652.697 890.929,654.751 917.575,700.904C942.488,744.053 985.776,603.995 1010.69,647.145C1035.26,689.712 916.883,681.039 928.079,700.428C939.935,720.963 1009.9,636.645 1017.06,649.055C1041.83,691.962 911.763,663.893 936.536,706.801C942.216,716.638 1020.52,600.779 1045.43,643.928C1084.99,712.444 879.388,672.389 912.538,729.807C927.782,756.211 977.255,634.91 1002.17,678.06C1019.7,708.436 918.354,714.275 928.827,732.414C936.842,746.296 1011.4,627.204 1036.32,670.353C1044.43,684.412 895.65,687.528 928.346,744.16C953.258,787.31 1007.12,676.891 1016.56,693.231C1037.46,729.426 927.349,705.209 948.246,741.404C960.88,763.288 1019.91,642.496 1044.82,685.645C1057.9,708.291 929.638,716.855 949.038,750.457C973.951,793.607 1030.68,701.842 1031.32,702.95C1049.8,734.953 940.313,727.279 955.329,753.288C977.792,792.194 992.072,698.718 1006.52,723.735C1024.28,754.495 942.363,754.198 948.151,764.222C958.801,782.67 1017.08,720.947 1018.58,723.558C1020.44,726.782 899.899,738.223 927.513,786.05C952.425,829.2 973.867,701.752 998.78,744.904C1021.31,783.921 891.097,757.787 916.089,801.072C921.692,810.775 1018.15,684.613 1043.06,727.763C1050.42,740.51 905.062,739.79 936.461,794.175C961.375,837.326 1025.61,706.414 1041.33,733.632C1072.87,788.27 929.499,792.094 934.728,801.152C959.641,844.302 989.242,712.143 1014.16,755.295C1037.72,796.108 912.667,767.508 936.23,808.321C951.407,834.606 1012.73,706.622 1037.64,749.773C1073.3,811.53 880.529,762.778 916.185,824.534C941.097,867.686 1008.81,713.522 1033.72,756.675C1041.81,770.69 929.923,766.317 953.621,807.363C978.534,850.514 1011.34,729.373 1030.68,762.875C1053.41,802.243 936.248,780.961 954.125,811.925C977.923,853.144 1006.69,730.427 1028.84,768.788C1062.11,826.416 886.65,788.66 914.442,836.8C939.357,879.951 979.778,741.543 1004.69,784.695C1014.85,802.293 914.111,792.257 934.675,827.876C959.589,871.027 975.275,746.9 1000.19,790.053C1025.28,833.507 890.059,799.879 915.148,843.334C929.605,868.376 1030.39,766.802 1034.72,774.298C1056.98,812.849 918.49,787.824 945.408,834.45C970.322,877.601 996.345,756.156 1017.51,792.82C1038.99,830.026 941.322,832.687 943.628,836.681C953.027,852.961 990.093,764.44 1009.76,798.501C1011.69,801.848 924.008,809.53 944.023,844.196C967.926,885.597 1000.16,787.397 1010.72,805.687C1031.69,841.998 938.158,846.524 943.606,855.961C968.521,899.113 1008.5,794.334 1018.97,812.453C1021.24,816.39 918.19,854.423 926.896,869.501C951.809,912.653 1011.33,792.594 1023.52,813.712C1044.58,850.174 938.084,834.118 951.236,856.9C961.219,874.191 990.785,776.53 1015.7,819.682C1039.85,861.51 912.662,833.6 936.811,875.427C961.725,918.58 1017.54,771.282 1042.46,814.434C1070.55,863.097 929.874,843.703 949.079,876.966C970.358,913.822 1027.03,808.5 1037.19,826.095C1073.96,889.789 880.536,848.282 915.061,908.081C923.485,922.671 974.896,819.393 998.34,859.999C1016.1,890.757 915.961,876.42 930.115,900.935C955.028,944.088 995.21,814.284 1016.46,851.085C1035.07,883.323 936.676,861.289 955.289,893.528C979.23,934.996 1001.88,857.776 1005.71,864.416C1027.23,901.687 923.097,893.444 931.928,908.741C955.31,949.24 1000.93,817.331 1023.26,856.012C1045.44,894.431 926.942,866.339 949.123,904.758C950.789,907.645 978.143,830.466 1003.06,873.619C1022.12,906.63 930.866,900.759 939.515,915.739C964.429,958.891 1003.17,821.451 1028.08,864.603C1034.85,876.323 887.864,879.613 920.151,935.538C920.245,935.699 991.18,842.099 1013.88,881.422C1038.19,923.522 922.899,918.008 932.376,934.423C940.213,947.998 994.202,849.286 1015.61,886.367C1045.15,937.527 886.106,898.185 915.644,949.346C924.724,965.073 1018.39,832.486 1043.31,875.639C1070.75,923.171 921.931,884.906 949.373,932.439C974.287,975.592 984.941,863.973 1005.7,899.92C1013.78,913.922 947.592,930.233 952.776,939.213C977.691,982.366 993.015,858.443 1017.93,901.596C1048.44,954.451 909.936,957.888 917.456,970.915C933.051,997.926 1007.1,880.508 1023.83,909.498C1045.48,946.987 930.023,919.842 951.668,957.33C958.669,969.458 993.055,875.898 1017.97,919.052C1033.44,945.843 931.323,926.731 951.055,960.907C972.002,997.187 1013.02,917.862 1016.17,923.315C1040.53,965.515 909.157,932.764 933.521,974.964C955.524,1013.08 995.795,881.472 1020.71,924.625C1045.14,966.948 915.966,979.49 920.14,986.72C943.849,1027.79 1018.66,918.265 1023.67,926.946C1054.91,981.059 906.293,973.569 915.987,990.362C940.902,1033.52 1020.25,872.626 1045.17,915.779C1071.03,960.576 875.123,934.709 914.383,1002.71C915.628,1004.87 983.517,905.257 1008.43,948.41C1024.66,976.522 937.796,955.729 954.028,983.842C978.943,1027 1013.53,891.948 1038.45,935.103C1065.44,981.854 950.088,997.109 950.209,997.317C951.244,999.111 991.297,923.995 1012.77,961.195C1043.08,1013.68 906.946,1019.84 911.82,1028.28C926.699,1054.06 982.694,929.825 1007.61,972.979C1035.15,1020.68 890.234,989.046 917.775,1036.75C933.999,1064.85 1031.44,948.296 1041.33,965.416C1042.13,966.8 905.847,1009.44 924.266,1041.34C949.18,1084.5 1010.41,986.611 1012.57,990.36C1034,1027.46 922.003,1003.87 943.426,1040.97C951.254,1054.53 1010.36,944.787 1035.28,987.943C1069.99,1048.06 886.887,1008.28 918.587,1063.18C942.974,1105.42 1001.95,958.739 1026.33,1000.98C1048.91,1040.08 944.599,1039.37 952.291,1052.69C970.409,1084.07 1014.82,1000.64 1021.73,1012.6C1038.07,1040.91 950.884,1020.57 966.371,1047.39C976.664,1065.22 1025.45,970.595 1043.93,1002.61C1053.7,1019.53 960.763,1022.97 975.129,1047.85C989.715,1073.11 1002.37,1012.01 1011.08,1027.09C1020.82,1043.97 958.995,1036.59 971.595,1058.41C983.058,1078.27 1022.53,1010.98 1030.34,1024.5C1033.68,1030.3 988.894,1033.06 997.815,1048.52C1006.65,1063.83 996.738,1028.72 1005.58,1044.03C1006.57,1045.75 1005.86,1046.85 1007.21,1049.18C1013,1059.22 1041.61,1023.04 1044.33,1027.75C1060.29,1055.4 979.706,1043.03 992.065,1064.43C992.668,1065.48 999.805,1057.62 1000.82,1059.38C1001.8,1061.07 1020.19,1051.18 1020.97,1052.54C1021.11,1052.78 1021.31,1052.02 1021.45,1052.26" style="fill:none;stroke:white;stroke-opacity:0.662745;stroke-width:1px;"/>
        <path d="M45.465,26.365C45.581,26.566 75.307,8.943 75.391,9.088C86.166,27.75 29.784,15.808 40.56,34.47C40.997,35.228 69.041,11.615 71.818,16.423C75.381,22.593 49.153,20.05 54.472,29.263C54.951,30.092 65.047,14.057 68.988,20.883C77.983,36.463 32.24,28.203 41.235,43.784C48.866,57.001 77.627,18.487 79.483,21.702C86.671,34.153 45.937,33.614 52.539,45.049C63.902,64.733 71.64,7.396 83.168,27.364C91.497,41.791 24.956,35.668 38.666,59.415C53.376,84.893 80.522,1.28 95.232,26.757C105.588,44.694 52.598,34.781 62.954,52.717C69.033,63.247 107.019,-7.548 122.098,18.57C136.779,43.998 68.475,44.415 72.389,51.195C74.965,55.655 126.329,-0.295 135.14,14.966C148.391,37.917 56.083,57.193 62.133,67.671C85.154,107.544 107.762,-16.195 132.67,26.947C149.631,56.324 71.14,55.829 76.011,64.266C87.118,83.504 139.872,-8.715 155.509,18.368C185.771,70.784 25.359,34.329 55.621,86.745C77.541,124.712 100.035,3.581 124.943,46.723C152.049,93.672 24.445,89.218 33.947,105.675C58.854,148.815 119.063,-0.99 143.971,42.151C169.777,86.848 31.941,54.207 57.747,98.904C82.655,142.046 157.461,29.667 162.513,38.417C163.543,40.201 39.491,98.224 47.869,112.736C72.777,155.879 94.684,28.185 119.593,71.327C135.884,99.542 48.409,78.22 64.699,106.436C70.12,115.826 126.757,47.976 136.556,64.95C160.4,106.248 32.739,75.619 56.583,116.917C74.073,147.21 123.034,21.029 147.942,64.171C166.849,96.918 57.035,117.548 58.427,119.959C66.836,134.524 149.686,62.502 151.751,66.079C155.638,72.81 43.691,120.549 47.659,127.421C65.367,158.093 123.933,37.204 143.93,71.839C167.781,113.15 38.038,79.221 61.888,120.532C78.323,148.997 119.208,29.916 144.117,73.058C171.135,119.854 49.659,125.327 53.337,131.696C68.073,157.221 138.994,38.07 158.121,71.199C174,98.702 54.604,80.669 78.218,121.569C103.126,164.711 117.782,41.203 142.691,84.346C172.585,136.124 22.751,115.452 42.273,149.265C64.371,187.54 151.39,64.534 160.801,80.833C171.641,99.609 28.258,97.551 59.145,151.049C84.053,194.192 111.708,69.367 133.936,107.868C147.469,131.308 41.587,128.922 57.305,156.147C68.826,176.102 95.888,76.348 120.796,119.491C138.441,150.054 45.09,129.503 60.321,155.883C85.23,199.026 106.66,71.607 131.568,114.749C137.587,125.174 53.794,120.781 71.391,151.26C96.299,194.403 93.707,80.852 118.616,123.995C143.08,166.369 13.047,136.378 37.512,178.752C62.42,221.895 103.567,83.146 128.452,126.248C132.794,133.768 59.411,154.611 69.087,171.371C85.406,199.637 148.954,106.377 157.13,120.539C192.933,182.552 -1.406,132.326 34.397,194.338C45.652,213.833 92.105,103.497 117.014,146.64C134.634,177.159 34.023,173.436 44.608,191.769C57.885,214.766 98.437,103.167 123.345,146.31C143.85,181.826 47.564,177.932 57.691,195.472C79.236,232.788 123.054,100.211 147.962,143.353C172.379,185.643 41.603,154.2 66.019,196.49C90.928,239.633 158.549,133.883 162.526,140.772C187.331,183.735 11.855,158.296 46.75,218.736C71.659,261.879 109.39,125.047 134.299,168.19C139.994,178.055 45.356,175.537 65.539,210.495C67.98,214.724 122.565,120.046 147.474,163.189C178.984,217.766 12.195,180.599 41.858,231.977C43.775,235.298 129.477,123.865 154.386,167.009C177.28,206.663 55.413,178.33 78.307,217.985C100.252,255.995 134.481,128.028 159.39,171.172C163.566,178.404 34.834,185.792 63.7,235.79C78.253,260.997 104.399,154.768 129.308,197.911C147.9,230.114 52.24,212.808 67.625,239.455C88.729,276.009 113.346,201.935 118.162,210.277C135.96,241.105 17.588,225.459 41.406,266.712C66.315,309.856 129.685,210.069 132.142,214.325C150.938,246.881 49.786,221.93 68.582,254.487C93.491,297.631 143.018,183.963 154.947,204.624C179.939,247.913 60.318,240.058 72.516,261.185C97.425,304.329 103.61,185.707 128.519,228.852C143.936,255.556 69.731,250.279 76.325,261.7C100.381,303.366 135.32,170.113 160.23,213.258C194.098,271.92 43.892,282.361 46.447,286.786C71.357,329.931 123.15,184.976 148.059,228.12C176.862,278.007 21.205,238.722 50.007,288.609C74.917,331.753 148.487,207.162 159.134,225.604C192.122,282.741 17.104,242.771 50.092,299.909C70.123,334.604 100.282,213.406 125.191,256.55C131.621,267.686 60.418,261.972 75.126,287.447C100.036,330.591 94.13,218.948 119.04,262.093C138.151,295.194 36.219,271.239 55.331,304.341C67.155,324.821 151.615,229.65 159.886,243.976C197.407,308.965 -2.62,262.08 34.901,327.069C41.113,337.829 112.522,250.735 126.17,274.375C133.321,286.76 54.871,286.517 71.977,316.146C73.06,318.021 113.201,234.818 138.111,277.964C143.341,287.023 45.537,290.587 67.252,328.198C92.162,371.343 137.92,229.87 162.831,273.015C179.449,301.8 20.451,320.757 38.309,351.686C63.218,394.831 126.352,273.684 138.117,294.061C161.015,333.721 31.287,308.326 56.301,351.649C81.211,394.795 112.637,261.596 137.548,304.741C167.388,356.426 13.733,328.279 39.169,372.334C64.079,415.48 127.267,263.943 152.178,307.089C172.738,342.7 17.382,357.462 33.361,385.138C58.271,428.284 118.987,278.175 143.898,321.32C145.961,324.893 -1.12,332.832 31.726,389.722C56.637,432.868 116.905,319.133 126.177,335.191C149.64,375.831 36.202,366.863 47.109,385.755C59.291,406.855 133.293,282.885 156.292,322.719C183.382,369.64 39.199,336.141 66.289,383.063C71.959,392.884 131.328,287.985 156.238,331.131C190.322,390.166 32.416,389.261 39.736,401.941C42.42,406.589 119.73,298.23 144.639,341.375C174.957,393.888 14.687,358.001 45.005,410.514C59.802,436.143 109.515,328.229 129.018,362.009C138.058,377.666 47.185,385.342 60.254,407.977C85.165,451.123 127.258,311.765 152.169,354.91C184.569,411.03 20.655,385.673 44.812,427.514C46.552,430.527 117.6,352.056 132.078,377.131C156.529,419.482 35.216,403.971 52.75,434.342C71.926,467.556 111.122,359.74 128.833,390.416C134.667,400.521 63.375,435.583 65.071,438.521C89.981,481.667 104.93,357.98 129.84,401.126C138.181,415.573 35.798,457.357 36.218,458.084C61.129,501.231 95.521,366.317 120.432,409.463C135.722,435.946 46.764,450.014 51.384,458.016C76.295,501.163 136.79,351.179 161.701,394.325C194.847,451.735 37.014,442.978 51.374,467.851C76.285,510.997 135.404,361.807 160.315,404.954C174.726,429.915 16.817,458.202 33.166,486.517C58.077,529.664 100.028,390.385 124.939,433.532C133.074,447.623 8.349,444.951 35.047,491.197C41.114,501.705 118.663,441.9 119.105,442.666C130.975,463.225 49.995,455.274 66.714,484.233C83.842,513.9 119.296,449.121 121.354,452.687C134.244,475.014 28.305,480.899 41.738,504.165C66.649,547.312 96.553,414.988 121.464,458.135C130.101,473.093 3.444,470.113 30.529,517.026C49.398,549.708 114.178,411.201 139.09,454.348C167.058,502.79 36.067,499.634 42.845,511.375C50.764,525.091 111.669,414.11 136.579,457.257C137.405,458.687 34.276,493.157 48.64,518.037C73.552,561.184 138.124,458.887 141.367,464.501C172.379,518.215 4.418,475.327 35.43,529.042C60.342,572.188 127.779,418.194 152.69,461.342C178.73,506.444 40.015,474.062 66.055,519.164C90.967,562.311 154.401,455.885 159.715,465.089C183.972,507.103 53.69,475.425 77.102,515.976C81.448,523.502 130.528,427.6 155.44,470.747C178.67,510.983 54.534,481.509 77.764,521.746C102.675,564.893 118.852,440.493 143.764,483.641C155.547,504.05 58.007,490.379 77.421,524.005C102.333,567.153 106.603,478.865 118.854,500.084C142.84,541.629 15.671,512.702 39.658,554.248C44.37,562.409 127.454,463.229 144.917,493.477C173.601,543.158 6.433,507.324 38.185,562.32C50.132,583.012 103.014,467.361 127.925,510.509C143.035,536.681 62.08,517.189 77.191,543.36C102.103,586.508 108.003,501.159 118.574,519.468C140.323,557.137 29.695,538.63 47.99,570.318C51.648,576.655 119.999,475.446 143.077,515.42C158.358,541.886 16.777,526.352 45.504,576.108C66.207,611.967 137.053,516.357 140.039,521.529C172.98,578.6 -1.653,538.958 31.299,596.034C48.911,626.539 107.622,494.437 132.534,537.586C149.488,566.949 60.727,548.092 77.68,577.454C97.022,610.955 107.177,518.294 125.42,549.892C127.595,553.66 31.378,571.523 47.333,599.157C72.245,642.305 107.384,516.199 128.293,552.415C151.988,593.457 26.212,565.16 46.8,600.82C71.712,643.968 126.069,551.137 127.765,554.075C131.813,561.087 60.676,562.386 76.287,589.427C87.449,608.759 120.102,522.459 138.146,553.712C143.301,562.64 29.116,578.28 47.936,610.877C72.848,654.025 132.08,545.42 139.388,558.076C156.85,588.322 68.14,593.748 75.375,606.279C100.287,649.427 142.523,521.279 162.542,555.953C171.206,570.96 16.793,569.995 50.137,627.749C75.05,670.898 103.441,539.443 128.353,582.591C144.644,610.808 57.393,591.817 73.97,620.529C93.793,654.861 101.975,546.829 126.887,589.977C145.084,621.496 55.057,610.199 68.395,633.299C93.308,676.448 122.244,595.774 125.031,600.601C133.595,615.435 35.98,608.382 56.244,643.481C81.157,686.629 148.035,558.506 161.883,582.491C194.967,639.794 23.69,607.239 51.85,656.013C76.762,699.162 101.75,569.671 126.662,612.821C148.945,651.416 46.3,650.804 54.853,665.62C57.716,670.579 126.351,577.113 146.801,612.535C172.541,657.117 39.213,631.665 61.196,669.74C86.109,712.89 95.445,592.433 120.358,635.584C134.014,659.237 62.897,644.569 76.554,668.224C96.028,701.953 92.082,601.726 116.995,644.875C132.561,671.836 49.761,652.661 65.328,679.623C90.24,722.771 136.166,606.83 149.976,630.751C162.648,652.699 10.257,654.753 36.904,700.906C61.817,744.055 105.105,603.997 130.017,647.147C154.593,689.714 36.212,681.042 47.407,700.431C59.263,720.966 129.225,636.647 136.39,649.057C161.162,691.964 31.092,663.895 55.865,706.803C61.544,716.64 139.851,600.781 164.764,643.93C204.321,712.446 -1.284,672.39 31.868,729.81C47.112,756.213 96.586,634.912 121.499,678.061C139.036,708.438 37.685,714.278 48.157,732.416C56.172,746.298 130.736,627.205 155.649,670.355C163.765,684.414 14.98,687.529 47.677,744.162C72.59,787.313 126.456,676.891 135.89,693.232C156.788,729.428 46.679,705.21 67.577,741.406C80.212,763.291 139.24,642.497 164.154,685.647C177.229,708.294 48.97,716.856 68.37,750.459C93.283,793.609 150.014,701.844 150.654,702.952C169.131,734.955 59.645,727.281 74.661,753.29C97.124,792.196 111.404,698.719 125.848,723.737C143.607,754.497 61.693,754.2 67.481,764.224C78.131,782.672 136.405,720.948 137.914,723.56C139.774,726.784 19.228,738.225 46.842,786.052C71.755,829.203 93.196,701.753 118.111,744.906C140.637,783.923 10.427,757.789 35.418,801.074C41.02,810.777 137.48,684.614 162.393,727.765C169.752,740.512 24.391,739.792 55.79,794.177C80.703,837.328 144.94,706.415 160.655,733.634C192.2,788.272 48.828,792.096 54.058,801.154C78.971,844.304 108.572,712.144 133.486,755.297C157.049,796.11 31.997,767.51 55.561,808.323C70.737,834.608 132.056,706.623 156.97,749.775C192.626,811.532 -0.141,762.779 35.514,824.536C60.428,867.688 128.139,713.524 153.052,756.676C161.144,770.692 49.252,766.319 72.95,807.365C97.864,850.516 130.663,729.374 150.006,762.877C172.736,802.246 55.577,780.962 73.454,811.927C97.252,853.147 126.019,730.428 148.168,768.79C181.439,826.418 5.978,788.662 33.772,836.802C58.686,879.953 99.108,741.545 124.022,784.697C134.182,802.295 33.439,792.259 54.005,827.879C78.919,871.03 94.605,746.902 119.519,790.054C144.608,833.509 9.389,799.88 34.477,843.336C48.935,868.378 149.722,766.804 154.05,774.3C176.307,812.851 37.819,787.826 64.738,834.452C89.652,877.604 115.675,756.156 136.843,792.822C158.324,830.028 60.652,832.689 62.958,836.684C72.357,852.963 109.424,764.442 129.089,798.503C131.021,801.85 43.338,809.532 63.352,844.198C87.255,885.599 119.494,787.398 130.054,805.688C151.019,842 57.488,846.526 62.936,855.963C87.851,899.115 127.834,794.335 138.295,812.454C140.568,816.391 37.519,854.425 46.224,869.503C71.138,912.656 130.662,792.596 142.854,813.714C163.906,850.176 57.413,834.12 70.565,856.902C80.548,874.193 110.114,776.531 135.029,819.683C159.178,861.511 31.991,833.602 56.14,875.429C81.054,918.582 136.87,771.283 161.785,814.436C189.88,863.1 49.203,843.706 68.408,876.97C89.687,913.826 146.361,808.503 156.519,826.099C193.293,889.793 -0.135,848.286 34.39,908.085C42.813,922.675 94.226,819.397 117.671,860.003C135.428,890.76 35.291,876.424 49.445,900.939C74.359,944.092 114.54,814.288 135.787,851.089C154.4,883.328 56.005,861.294 74.618,893.532C98.56,935.001 121.208,857.78 125.042,864.42C146.561,901.691 42.427,893.448 51.258,908.745C74.64,949.244 120.254,817.334 142.588,856.016C164.769,894.435 46.271,866.343 68.452,904.762C70.119,907.649 97.473,830.47 122.387,873.623C141.446,906.634 50.196,900.763 58.845,915.743C83.76,958.896 122.498,821.454 147.413,864.607C154.179,876.327 7.193,879.618 39.481,935.543C39.574,935.703 110.51,842.102 133.214,881.426C157.52,923.526 42.23,918.012 51.707,934.428C59.545,948.002 113.535,849.29 134.943,886.371C164.481,937.532 5.439,898.189 34.977,949.35C44.057,965.077 137.727,832.489 162.641,875.643C190.084,923.175 41.263,884.91 68.706,932.443C93.621,975.596 104.274,863.977 125.029,899.924C133.113,913.926 66.924,930.237 72.109,939.217C97.024,982.37 112.348,858.447 137.263,901.6C167.78,954.456 29.268,957.892 36.789,970.919C52.384,997.93 126.43,880.512 143.167,909.502C164.812,946.991 49.357,919.846 71.001,957.334C78.002,969.462 112.388,875.901 137.303,919.056C152.771,945.847 50.656,926.735 70.387,960.911C91.334,997.191 132.351,917.866 135.499,923.319C159.864,965.519 28.489,932.769 52.853,974.968C74.856,1013.08 115.128,881.475 140.043,924.629C164.478,966.951 35.298,979.494 39.472,986.725C63.182,1027.79 137.993,918.268 143.005,926.95C174.248,981.063 25.626,973.573 35.321,990.366C60.236,1033.52 139.588,872.629 164.503,915.783C190.367,960.579 -5.543,934.712 33.717,1002.71C34.963,1004.87 102.85,905.26 127.765,948.414C143.996,976.526 57.13,955.732 73.361,983.846C98.276,1027 132.864,891.951 157.78,935.106C184.772,981.857 69.42,997.113 69.541,997.322C70.577,999.116 110.63,923.997 132.108,961.199C162.412,1013.69 26.279,1019.85 31.153,1028.29C46.032,1054.06 102.028,929.829 126.943,972.983C154.485,1020.69 9.568,989.05 37.109,1036.75C53.333,1064.86 150.778,948.3 160.663,965.42C161.461,966.804 25.18,1009.44 43.599,1041.35C68.514,1084.5 129.742,986.615 131.906,990.364C153.329,1027.47 41.336,1003.87 62.759,1040.98C70.588,1054.54 129.694,944.79 154.61,987.946C189.321,1048.07 6.22,1008.28 37.92,1063.19C62.306,1105.42 121.282,958.741 145.668,1000.98C168.246,1040.09 63.931,1039.37 71.624,1052.69C89.742,1084.07 134.154,1000.65 141.059,1012.61C157.404,1040.92 70.217,1020.58 85.703,1047.4C95.997,1065.23 144.785,970.599 163.269,1002.62C173.038,1019.53 80.096,1022.97 94.461,1047.85C109.047,1073.11 121.703,1012.01 130.411,1027.09C140.154,1043.97 78.328,1036.59 90.928,1058.41C102.39,1078.27 141.862,1010.98 149.667,1024.5C153.016,1030.3 108.226,1033.06 117.148,1048.52C125.988,1063.83 116.072,1028.73 124.912,1044.04C125.904,1045.76 125.19,1046.85 126.54,1049.19C132.333,1059.22 160.941,1023.05 163.66,1027.76C179.623,1055.4 99.037,1043.03 111.397,1064.44C111.999,1065.48 119.137,1057.63 120.153,1059.38C121.13,1061.08 139.519,1051.18 140.304,1052.54C140.443,1052.78 140.646,1052.03 140.784,1052.27" style="fill:none;stroke:white;stroke-opacity:0.662745;stroke-width:1px;"/>
    </g>
</svg>
