<?xml version="1.0" encoding="UTF-8" standalone="no"?>
<!DOCTYPE svg PUBLIC "-//W3C//DTD SVG 1.1//EN" "http://www.w3.org/Graphics/SVG/1.1/DTD/svg11.dtd">
<svg width="100%" height="100%" viewBox="0 0 2900 2900" version="1.1" xmlns="http://www.w3.org/2000/svg" xmlns:xlink="http://www.w3.org/1999/xlink" xml:space="preserve" xmlns:serif="http://www.serif.com/" style="fill-rule:evenodd;clip-rule:evenodd;stroke-miterlimit:1.41421;">
    <g>
        <path d="M2895.31,1451.3C2895.31,1868.78 2711.84,2277.92 2390.4,2546.21C2244.75,2667.76 2074.34,2759.11 1893.71,2816.94C1709.35,2875.96 1524.25,2893.35 1331.72,2886.93C1182.41,2881.95 1027.58,2843.76 890.349,2786.87C540.432,2641.82 271.688,2356.71 115.765,2014.39C35.979,1839.22 2.083,1642.9 2.083,1451.3C2.083,1259.71 35.979,1063.39 115.765,888.217C271.688,545.897 540.432,260.793 890.349,115.736C1027.58,58.848 1182.41,20.662 1331.72,15.681C1524.25,9.259 1709.35,26.648 1893.71,85.67C2074.34,143.497 2244.75,234.846 2390.4,356.401C2711.84,624.685 2895.31,1033.83 2895.31,1451.3" style="fill:white;fill-rule:nonzero;"/>
        <path d="M2895.31,1451.3C2895.31,1868.78 2711.84,2277.92 2390.4,2546.21C2244.75,2667.76 2074.34,2759.11 1893.71,2816.94C1709.35,2875.96 1524.25,2893.35 1331.72,2886.93C1182.41,2881.95 1027.58,2843.76 890.349,2786.87C540.432,2641.82 271.688,2356.71 115.765,2014.39C35.979,1839.22 2.083,1642.9 2.083,1451.3C2.083,1259.71 35.979,1063.39 115.765,888.217C271.688,545.897 540.432,260.793 890.349,115.736C1027.58,58.848 1182.41,20.662 1331.72,15.681C1524.25,9.259 1709.35,26.648 1893.71,85.67C2074.34,143.497 2244.75,234.846 2390.4,356.401C2711.84,624.685 2895.31,1033.83 2895.31,1451.3" style="fill:none;stroke:white;stroke-width:4.17px;"/>
        <path d="M1523.38,1472.87C1525.85,1474.42 1528.31,1475.98 1530.78,1477.53C1531.33,1476.41 1532.56,1475.13 1532.33,1474.22C1531.87,1472.4 1530.4,1470.84 1528.53,1470.5C1528.05,1470.41 1527.57,1470.48 1527.09,1470.47C1526.3,1470.46 1525.35,1470.33 1524.65,1470.81C1523.95,1471.29 1523.79,1472.2 1523.38,1472.87M1524.51,1360.78C1526.74,1357.8 1528.6,1355.38 1530.27,1352.83C1530.34,1352.73 1527.92,1350.76 1527.85,1350.83C1525.75,1352.95 1523.75,1355.18 1521.93,1357.55C1521.78,1357.74 1523.12,1359.06 1524.51,1360.78M1570.55,1533C1570.82,1532.31 1571.09,1531.63 1571.36,1530.95C1567.22,1529.55 1563.08,1528.15 1558.48,1526.6C1558.88,1532.45 1563.95,1534.64 1570.55,1533M1504.55,945.817C1504.77,948.817 1504.91,950.858 1505.07,952.996C1508,953.329 1510.73,953.642 1513.84,953.996C1513.42,951.008 1513.09,948.704 1512.73,946.208C1510.03,946.079 1507.45,945.954 1504.55,945.817M1551.53,1535.14C1550.54,1528.63 1545.65,1529.06 1541.81,1528.38C1540.82,1528.2 1539.47,1530.07 1538.28,1530.99C1539.44,1532.33 1539.19,1532.52 1540.43,1533.78C1541.26,1534.62 1542.6,1534.54 1543.65,1534.61C1546.28,1534.79 1548.91,1534.94 1551.53,1535.14M1575.06,1671.53C1577.42,1668.49 1580.29,1663.5 1576.88,1660.09C1575.25,1658.47 1572.73,1658.36 1570.69,1657.59C1567.3,1663.16 1571.29,1663.09 1575.06,1671.53M1226.58,922.154C1226.58,931.674 1222.41,933.935 1228.39,936.408C1228.96,935.463 1230.19,934.157 1230.61,933.111C1230.84,932.512 1230.88,931.851 1230.98,931.214C1231.35,928.892 1231.57,926.144 1229.93,924.202C1228.99,923.078 1227.95,922.58 1226.58,922.154M1579.95,1429.53C1579.84,1428.86 1579.73,1428.19 1579.63,1427.53C1577.79,1427.27 1577.86,1426.98 1576.02,1426.8C1575.14,1426.72 1574.55,1427.61 1573.91,1428.01C1573.42,1428.32 1572.88,1428.56 1572.36,1428.82C1569.93,1430.03 1566.35,1431.29 1566.11,1434.48C1566.05,1435.26 1566,1436.04 1566.09,1436.8C1573.74,1438.9 1574.49,1430.37 1579.95,1429.53M1564.81,1716.83C1565.76,1719.81 1565.58,1723.66 1568.3,1725.78C1569.67,1726.85 1571.42,1727.11 1573.06,1727.51C1573.34,1727.58 1573.95,1727.8 1574.31,1727.69C1575.05,1727.46 1575.4,1726.09 1575.54,1725.46C1575.63,1725.12 1575.74,1724.77 1575.69,1724.42C1574.99,1719.24 1571.6,1716.73 1564.81,1716.83M1519,875.983C1522.25,882.95 1532.51,886.875 1538.65,884.329C1533.93,877.596 1526.34,879.004 1519,875.983M1187.03,995.45C1186.12,996.48 1185.3,998.875 1185.02,1000.17C1183.96,1004.99 1182.98,1009.91 1183.39,1014.88C1183.48,1015.92 1183.87,1017.37 1184.72,1018.11C1185.16,1018.48 1186.63,1018.53 1187.14,1018.45C1187.4,1018.41 1187.82,1018.41 1187.88,1018.15C1189.18,1012.39 1189.87,1007.26 1188.77,1001.45C1188.41,999.604 1187.73,997.825 1187.03,995.45M1580.26,1558.69C1580.8,1547.72 1579.56,1545.56 1572.87,1545.36C1570.43,1554.36 1572.76,1558.8 1580.26,1558.69M1578.88,1605.5C1566.5,1602.88 1566.5,1602.88 1561.88,1606.32C1565.04,1607.08 1568.19,1607.93 1571.34,1608.75C1574.69,1609.63 1578.27,1611.09 1581.83,1610.31C1584.05,1609.83 1586.86,1609 1587.89,1606.68C1587.95,1606.55 1588.45,1603.85 1588.01,1603.69C1585.53,1602.81 1582.92,1602.2 1580.3,1601.91C1579.98,1601.87 1579.39,1604.17 1578.88,1605.5M1579.19,1565.44C1579.62,1569.83 1580.54,1574.29 1579.85,1578.72C1579.63,1580.14 1577.95,1580.62 1577.03,1581.36C1576.8,1581.55 1576.49,1582.22 1576.74,1582.53C1577.8,1583.82 1578.39,1583.56 1579.73,1584.41C1581.87,1585.78 1583,1587.12 1585.38,1588.13C1586.71,1588.68 1588.62,1588.95 1589.53,1587.53C1589.92,1586.91 1590.25,1586.25 1590.44,1585.55C1587.97,1579.53 1589.02,1571.06 1582.69,1567.18C1581.58,1566.5 1580.42,1565.88 1579.19,1565.44M1228.02,975.667C1229.07,974.343 1230.39,973.243 1231.41,971.897C1231.69,971.535 1231.84,971.062 1231.86,970.608C1232.26,962.371 1232.04,953.074 1232.04,944.833C1231.46,944.549 1230.72,943.711 1229.95,943.808C1227.6,944.107 1226.4,947.289 1226.03,949.129C1224.22,957.999 1225.74,967.047 1228.02,975.667M1206.88,1010.23C1208,1010.33 1209.13,1010.43 1210.25,1010.52C1211.01,1005.74 1210.74,1000.85 1211.23,996.033C1211.64,992.029 1213.23,987.216 1213.21,983.148C1213.2,978.542 1211.62,977.463 1211.08,972.967C1210.77,970.345 1212.38,962.47 1207.31,962.437C1207.31,968.72 1207.45,975.007 1207.18,981.283C1207.04,984.501 1202.72,983.743 1201.76,986.415C1200.83,988.98 1204.37,990.815 1205.31,992.467C1208.36,997.832 1206.61,1004.53 1206.88,1010.23M1595.85,1705.63C1590.71,1706.1 1586.93,1706.45 1583.15,1706.79C1583.09,1707.51 1583.03,1708.23 1582.98,1708.95C1585.68,1710.45 1588.37,1712 1591.03,1713.58C1594.35,1715.54 1602.04,1721.75 1604.65,1715.43C1604.95,1714.7 1605.06,1713.91 1605.16,1713.13C1605.24,1712.48 1605.26,1711.81 1605.18,1711.16C1604.58,1706.38 1603.92,1701.62 1603.13,1696.88C1602.77,1694.75 1602.26,1692.55 1600.34,1691.3C1599.94,1691.04 1598.16,1690.16 1597.71,1691.07C1595.34,1695.9 1595.85,1700.12 1595.85,1705.63M1241.68,338.85C1245.67,340.15 1248.61,335.593 1249.03,332.22C1249.59,327.702 1247.09,324.62 1242.99,323.305C1241.29,322.761 1238.47,322.454 1236.69,322.227C1235.24,322.042 1233.01,321.652 1231.45,321.845C1230.51,321.963 1229.27,322.134 1228.61,322.964C1227.3,324.604 1227.92,327.658 1228.41,329.304C1230.15,335.157 1235.78,338.577 1241.68,338.85M1540.13,1614.32C1540.13,1615.58 1539.81,1616.89 1540.17,1618.1C1544.26,1631.76 1548.9,1645.24 1553.42,1658.75C1555.03,1663.58 1561.25,1658.76 1560.06,1654.87C1557.31,1645.89 1553.92,1637.13 1550.71,1628.3C1548.88,1623.29 1546.8,1615.05 1540.13,1614.32M1582.08,1397.78C1581.6,1397.15 1581.12,1396.51 1580.64,1395.88C1573.49,1400.14 1573.72,1400.41 1567.47,1405.86C1566.06,1407.09 1563.15,1409.46 1562.16,1411.12C1560.44,1413.96 1560.94,1415.34 1560.27,1418.45C1564.84,1418.88 1564.81,1419.72 1569.43,1419.76C1573.2,1419.79 1576.37,1417.07 1579.03,1414.82C1583.99,1410.63 1588.89,1406.38 1593.71,1402.03C1587.73,1396.42 1584.59,1404.3 1579.6,1404.54C1580.65,1401.69 1581.36,1399.74 1582.08,1397.78M1651.83,591.725C1645.05,584.778 1638.37,577.739 1631.48,570.9C1628.25,567.698 1623.08,565.884 1618.78,568.05C1624.54,577.746 1630.21,587.506 1636.15,597.096C1638.18,600.373 1642.61,601.697 1645.74,599.073C1648.22,597.003 1649.81,594.164 1651.83,591.725M1482.02,953.5C1483.51,956.459 1487.62,956.351 1489.6,954.025C1495.5,947.103 1501.19,940.013 1506.88,932.926C1512.57,925.852 1518.02,918.59 1523.74,911.546C1527.04,907.482 1532.42,903.667 1532.05,897.675C1526.31,899.051 1522.78,904.225 1519.28,908.442C1506.83,923.432 1494.46,938.493 1482.02,953.5M1513.14,1022.22C1512.63,1027.68 1512.6,1028.41 1513.37,1033.85C1513.48,1034.65 1513.98,1036.48 1514.87,1036.91C1515.99,1037.44 1520.5,1037.95 1521.7,1037.99C1523.75,1038.06 1526.23,1037.92 1528.13,1036.99C1532.05,1035.07 1533.33,1030.4 1535.66,1027.15C1534.07,1026.83 1532.47,1026.59 1530.91,1026.15C1530.07,1025.92 1529.23,1025.62 1528.5,1025.14C1524.25,1022.41 1528.24,1019.47 1529.02,1016.22C1529.49,1014.27 1528.71,1010.56 1528.43,1008.63C1528.22,1007.2 1528.28,1005.26 1527,1004.17C1525.1,1002.55 1522.88,1006.71 1520.77,1005.7C1520.09,1005.38 1519.16,1005.57 1518.5,1005.22C1515.81,1003.78 1506.98,1004.21 1509.24,1009.29C1511.38,1014.08 1515.34,1017.63 1518.92,1021.31C1516.31,1021.73 1514.8,1021.96 1513.14,1022.22M1282.36,464.475C1282.82,464.904 1283.27,465.329 1283.72,465.758C1286.83,465.324 1290.03,466.38 1293.13,465.905C1300.04,464.849 1307.11,459.71 1314.45,462.093C1321.99,464.542 1329.29,470.253 1337.73,469.404C1341.22,469.053 1342.62,467.1 1345.53,465.575C1342.95,461.715 1342.05,459.285 1337.9,456.795C1334.76,454.912 1328.37,453.112 1324.77,452.704C1310.04,451.036 1292.73,452.556 1282.36,464.475M1563.48,987.296C1561.58,979.23 1558.36,969.337 1557.58,961.021C1555.55,939.471 1558.3,939.253 1555.48,917.742C1555.3,916.375 1553.41,915.233 1552.31,913.987C1551.21,915.512 1549.32,916.95 1549.14,918.575C1548.11,927.924 1549.23,933.996 1548.72,943.354C1548.18,953.134 1546.59,954.023 1546.92,963.879C1547.21,972.819 1553.53,980.669 1551.8,989.829C1556.39,988.833 1560.39,987.967 1563.48,987.296M1558.19,1358.85C1554.29,1359.04 1551.71,1362.26 1549.11,1364.68C1539.38,1373.72 1527.89,1382.56 1522.23,1395.08C1521.68,1396.29 1521.67,1397.71 1521.71,1399.04C1521.77,1400.64 1522.14,1402.22 1522.54,1403.78C1524.25,1410.37 1532.16,1405.59 1535.19,1402.78C1538.4,1399.82 1541.57,1396.81 1544.56,1393.62C1547.4,1390.59 1550.02,1386.6 1551.74,1382.82C1555.12,1375.35 1558.67,1367.29 1558.19,1358.85M1466.45,965.196C1466.73,965.879 1467,966.558 1467.27,967.242C1494.57,975.278 1520.88,986.925 1549.78,986.925C1549.94,986.121 1550.11,985.317 1550.28,984.512C1529.97,979.261 1530.09,979.264 1510.1,973.254C1513.59,969.008 1517.09,964.742 1520.76,960.267C1520.76,961.982 1519.51,964.955 1520.76,966.671C1521.73,967.996 1524.72,967.541 1525.63,966.558C1531.37,960.392 1536.8,953.014 1538.04,944.425C1538.08,944.137 1537.68,943.788 1536.56,941.929C1530.58,947.32 1530.75,947.217 1525.44,953.475C1525.17,953.225 1524.9,952.975 1524.63,952.725C1526.24,949.346 1527.85,945.967 1529.45,942.588C1528.86,942.233 1528.27,941.879 1527.68,941.521C1517.92,948.05 1509.6,963.237 1503.09,971.913C1492.46,968.883 1482.35,965.833 1472.11,963.246C1470.49,962.833 1468.35,964.496 1466.45,965.196M1594.98,2586.7C1590.93,2581.8 1587.17,2576.66 1583.24,2571.66C1579.28,2566.61 1575.18,2559.78 1568.32,2558.11C1564.21,2557.12 1562.17,2562.61 1561.21,2565.25C1557.78,2574.66 1557.03,2585.22 1559.44,2594.97C1560.45,2599.03 1564.63,2600.83 1568.49,2600.34C1571.17,2600 1573.57,2597.39 1573.1,2594.61C1572.89,2593.34 1574.3,2590.75 1575.4,2590.48C1580.2,2589.27 1585.16,2588.7 1590.06,2587.85C1591.32,2587.64 1592.55,2587.28 1594.98,2586.7M1840.23,2375.92C1833.63,2374.38 1831.48,2384.78 1830.15,2388.55C1828.3,2393.81 1826.11,2399.09 1826.6,2404.87C1827.13,2411.01 1831.52,2417.12 1829.54,2423.52C1827.02,2431.67 1825.44,2431.43 1821.59,2438.9C1831.72,2446.61 1842.83,2434.47 1849.26,2427.78C1850.62,2426.36 1852.04,2424.98 1853.26,2423.42C1856.55,2419.18 1858.49,2412.61 1854.25,2408.2C1854.01,2407.95 1854,2407.47 1853.9,2407.1C1848.98,2390.65 1848.2,2391.03 1840.23,2375.92M1023.78,721.708C1025.23,719.093 1026.71,718.388 1027.13,715.242C1027.77,710.36 1025.94,703.507 1030.76,699.913C1031.33,699.479 1030.65,698.076 1030.67,697.663C1030.85,694.67 1032.94,688.689 1028.55,687.069C1022.03,684.662 1015.65,689.158 1009.07,687.867C1002.33,686.547 996.086,683.369 989.149,683.048C986.484,682.925 978.912,682.233 978.267,686.854C977.298,693.813 982.906,699.481 986.994,704.136C993.046,711.027 999.753,719.877 1009.71,721.191C1014.37,721.805 1019.1,721.393 1023.78,721.708M1456.1,960.196C1466.69,954.903 1465.58,953.588 1473.09,944.317C1473.09,947.346 1473.09,948.838 1473.09,950.354C1480.44,949.837 1487.34,941.438 1488.51,931.971C1476.89,927.554 1470.61,934.892 1463.81,942.875C1463.79,938.371 1463.57,932.7 1465.79,928.504C1469.47,921.532 1476.36,916.465 1478.77,908.742C1476.91,909.173 1474.89,909.228 1473.2,910.133C1469.99,911.855 1466.84,917.962 1462.14,915.504C1463.28,909.583 1463.65,901.899 1466.17,896.267C1468.6,890.83 1473.59,886.461 1477.2,881.933C1476.87,881.333 1476.55,880.733 1476.22,880.138C1472.31,881.446 1468.4,882.754 1464.18,884.167C1460.09,878.462 1445.3,883.982 1446.68,891.133C1448.05,898.24 1449.55,905.332 1451.45,912.312C1452.36,915.619 1454.68,915.956 1454.9,919.587C1455.71,933.105 1455.4,946.672 1456.1,960.196M1256.48,280.317C1255.35,282.258 1254.1,283.829 1253.54,285.617C1252.78,287.993 1256.07,290.651 1258.18,289.946C1265.38,287.553 1272.29,283.076 1280.16,283.121C1287.12,283.16 1292.92,287.785 1299.52,289.162C1302.28,289.735 1305.15,289.462 1307.96,289.389C1310.77,289.317 1313.56,288.726 1316.37,288.73C1319.57,288.734 1324.41,290.883 1327.1,287.743C1334.26,279.391 1317.73,275.669 1313.76,274.175C1310.48,272.941 1307.02,272.02 1304.04,270.182C1293.06,263.417 1294.37,260.133 1284.04,257.254C1278.27,255.646 1271.98,261.64 1268.23,264.371C1262.39,268.633 1257.15,272.21 1252.75,278.096C1253.93,278.8 1255.13,279.508 1256.48,280.317M1690.59,551.379C1684.63,552.29 1678.73,553.61 1672.89,555.103C1669.91,555.864 1667,556.902 1664.18,558.132C1660.53,559.726 1649.23,564.116 1649.21,570.362C1649.2,573.61 1652.89,576.486 1654.95,578.005C1663.24,584.106 1673.97,586.732 1683.17,591.031C1685.86,592.287 1689.46,595.347 1692.51,595.921C1700,597.333 1703.58,590.142 1707.62,585.483C1707.85,585.225 1710.39,583.405 1709.77,582.529C1704.73,575.467 1711.59,564.804 1702.65,559.021C1702.96,550.433 1696.04,552.887 1690.59,551.379M1624.18,310.171C1625.31,328.047 1624.87,343.73 1624.35,361.612C1624.19,367.268 1623.97,372.922 1623.65,378.571C1623.58,379.683 1622.44,382.862 1624.22,383.769C1628.07,385.723 1632.67,385.931 1636.48,387.965C1638.96,389.292 1640.48,391.958 1642.73,393.65C1646.58,396.544 1650.33,397.982 1654.99,399.052C1659.48,400.085 1663.98,401.281 1668.58,401.633C1669.76,401.724 1671.21,401.323 1671.89,400.35C1672.49,399.486 1672.15,398.127 1671.65,397.204C1667.06,388.801 1664.75,390.385 1661.27,381.532C1658.07,373.399 1660.97,372.726 1657.51,364.578C1654.88,358.37 1652.26,358.561 1648.18,353.584C1643.14,347.438 1642.7,338.99 1640.69,331.713C1638.98,325.523 1633.76,306.575 1624.18,310.171M1870.41,2550.24C1878.66,2544.45 1886.77,2538.45 1894.67,2532.19C1896.42,2530.8 1900.2,2526.19 1899.88,2523.56C1899.05,2516.74 1902.81,2509.26 1903.28,2502.65C1904.08,2491.16 1903.98,2479.63 1904.24,2468.11C1904.35,2463.26 1904.97,2458.91 1901.61,2454.75C1900.77,2453.71 1897.48,2455.79 1896.95,2455.94C1896.08,2454.06 1895.2,2452.17 1894.33,2450.28C1892.08,2453.35 1890.94,2457.09 1889.1,2460.41C1886.02,2465.98 1880.62,2473.73 1878.58,2479.87C1873.68,2494.61 1871.52,2508.14 1869.6,2523.5C1869.06,2527.79 1869.08,2532.14 1868.6,2536.43C1868.11,2540.72 1865.08,2547.32 1870.41,2550.24M1274.88,203C1265.62,199.144 1261.13,215.092 1258.87,219.846C1256.43,224.996 1253.48,229.921 1251.44,235.246C1248.09,244.046 1246.35,255.622 1244.54,264.783C1247.82,265.296 1250.37,265.961 1253.51,264.233C1254.48,263.694 1254.81,262.383 1255.7,261.7C1258.37,259.634 1259.49,260.53 1261.96,258.154C1264.41,255.793 1266.02,251.248 1270.13,251.106C1279.68,250.777 1288.77,254.775 1297.43,258.129C1298.91,258.7 1301.43,260.547 1303.27,259.892C1305.66,259.043 1307.62,257.274 1309.85,256.05C1310.8,255.529 1312.45,255.291 1312.99,254.104C1315.99,247.457 1315.14,238.834 1310.07,233.391C1305.02,227.982 1296.96,227.841 1291.02,224.022C1286.69,221.245 1283.07,217.5 1279.17,214.162C1278.7,214.496 1278.23,214.833 1277.76,215.167C1276.85,211.333 1275.94,207.5 1274.88,203M1339.89,506.317C1340.63,490.736 1320.35,490.118 1310.01,486.629C1304.7,484.839 1296.74,478.992 1290.84,483.619C1289.13,484.956 1289.38,488.228 1289.95,489.887C1292.14,496.288 1294.52,502.633 1297.15,508.863C1303.18,523.082 1313.14,535.241 1323.13,546.804C1327.39,551.739 1334.74,553.328 1340.69,550.703C1343.95,549.262 1341.41,545.074 1343.82,543.033C1343.96,542.913 1344.03,542.704 1344.13,542.537C1351.07,530.929 1343.86,517.446 1339.89,506.317M1597.58,1937C1605.28,1922.64 1605.87,1922.99 1609.48,1906.92C1604.37,1902.34 1608.26,1894.45 1609.34,1889.41C1610.72,1883.03 1611.79,1876.59 1613.15,1870.2C1602.52,1866.8 1601.6,1856.78 1601.41,1846.74C1595.22,1848.16 1588.77,1848.78 1582.87,1851.15C1569.17,1856.64 1577.25,1872.06 1578.79,1881.59C1580.6,1892.84 1581.19,1904.27 1583.16,1915.49C1583.92,1919.78 1585.49,1923.89 1586.94,1928C1587.29,1928.99 1588.91,1929.74 1588.53,1930.71C1585.33,1938.73 1588.89,1948.61 1580.74,1955.75C1586.23,1957.4 1585.93,1960.83 1585.47,1964.94C1585.16,1967.67 1589.89,1973.01 1591.38,1970.7C1595.61,1964.11 1593.08,1955.73 1594.03,1948.6C1594.81,1942.71 1597.78,1943.19 1597.58,1937M1842.82,2306.04C1839.88,2315.02 1837.45,2324.19 1833.86,2332.93C1831.21,2339.38 1824.9,2343.78 1823.32,2350.77C1821.64,2358.17 1823.74,2368.37 1831.46,2371.72C1833.04,2372.4 1836.31,2370.82 1837.75,2370.65C1841.98,2370.18 1846.24,2369.5 1850.49,2369.78C1851.26,2369.83 1855.78,2373.18 1855.17,2374.58C1853.22,2379.12 1857.82,2382.18 1860.25,2385.09C1861.99,2387.18 1864.31,2392.19 1868.11,2391.31C1873.97,2389.97 1873.43,2389.08 1877.24,2384.8C1878.91,2382.92 1885.12,2376.47 1886.02,2373.98C1887.63,2369.53 1885.42,2365.58 1885.05,2361.29C1884.44,2354.22 1886.1,2353.05 1883.95,2346.1C1881.59,2338.48 1873.2,2335.54 1868.61,2329.78C1862.94,2322.68 1856.27,2302.74 1842.82,2306.04M1590.11,2670.46C1588.42,2666.96 1586.15,2663.77 1584.37,2660.31C1582.7,2657.07 1580.92,2652.85 1581.44,2649.04C1582.11,2644.14 1584.35,2645.01 1586.86,2641.42C1588.62,2638.9 1589.93,2636.09 1591.38,2633.38C1582.14,2630.31 1567.6,2629.2 1562.06,2619.07C1557.38,2610.53 1553.17,2586.44 1539.07,2584.7C1534.38,2584.13 1531.69,2590.42 1530.49,2593.57C1525.81,2605.83 1520.41,2619.09 1523.12,2632.55C1523.96,2636.71 1527.49,2641.8 1529.13,2645.6C1531.69,2651.5 1532.94,2659.93 1539.55,2663.2C1544.42,2665.6 1546.88,2664.08 1551.59,2667C1555.31,2669.31 1558.16,2675.28 1563.48,2674.65C1572.4,2673.59 1581.27,2672.08 1590.11,2670.46M990.275,380.267C989.683,380.721 989.096,381.175 988.504,381.629C987.455,393.96 990.338,407.678 984.291,419.282C982.197,423.3 978.422,426.378 976.746,430.588C974.863,435.359 972.159,439.828 970.758,444.762C966.703,459.044 970.353,460.598 965.663,474.771C963.801,480.397 958.238,483.338 957.246,489.463C956.331,495.118 955.131,500.811 955.287,506.537C955.431,511.796 959.015,518.355 965.018,515.209C977.225,508.812 987.345,501.589 997.867,492.729C999.621,491.252 1000.57,488.856 1002.53,487.669C1009.37,483.533 1017.01,492.521 1021.85,494.963C1024.78,491.142 1027.87,487.394 1030.16,483.161C1040.57,463.888 1015.5,436.508 1009.23,422.445C1003,408.479 1003.98,390.294 990.275,380.267M1024.46,524.842C1024.78,524.15 1025.09,523.458 1025.4,522.771C1032.11,523.854 1033.73,525.077 1040.1,521.667C1041.1,521.136 1041.7,517.9 1040.35,517.242C1027.6,510.995 1011.28,510.908 1000.12,520.6C994.385,525.581 993.238,530.597 990.017,537.117C988.083,541.031 987.381,544.449 981.742,543.721C980.642,543.579 978.521,544.829 978.271,545.8C974.535,560.336 975.382,572.868 978.846,587.304C979.598,590.441 982.345,592.904 982.933,596.075C985.12,607.85 984.603,620.049 987.1,631.762C987.445,633.379 989.505,634.47 991.15,634.621C1009.06,636.262 1021.86,633.484 1039.47,631.004C1041.76,630.679 1043.85,628.913 1046.03,627.796C1042.46,621.492 1035.43,620.738 1030.2,616.838C1026.78,614.293 1023.94,611.059 1020.87,608.104C1028.47,604.721 1032.66,609.275 1038.4,611.558C1039.29,603.295 1039.93,599.47 1037.83,591.292C1035.29,581.4 1032.51,582.166 1032.18,571.637C1031.96,564.268 1035.16,553.294 1034.2,545.867C1033.13,537.656 1028.3,531.769 1024.46,524.842M1630.67,2597.57C1647.19,2589.15 1656,2583.79 1675.13,2578.3C1675.87,2578.09 1676.67,2578.1 1677.42,2577.88C1705.19,2569.7 1736.26,2562.95 1758.13,2542.15C1767.98,2532.79 1775.51,2521.13 1785.67,2512.11C1785.38,2511.41 1785.09,2510.71 1784.8,2510.02C1770.87,2512.7 1771,2518.54 1757.76,2522.71C1742.41,2527.54 1726.85,2531.98 1710.99,2534.7C1692.99,2537.79 1658.96,2536.03 1640.91,2537.94C1627.37,2539.37 1608.6,2545.29 1596.38,2551.15C1595.15,2551.74 1594,2553.1 1594,2554.46C1593.96,2565.28 1608.46,2566.81 1614.41,2571.72C1622.99,2578.79 1626.46,2587.75 1630.67,2597.57M1684.38,520.267C1685.16,520.179 1686.12,519.496 1686.72,520C1688.28,521.312 1688.52,523.846 1690.14,525.09C1692.45,526.862 1694.44,523.818 1694.11,522.092C1691.8,509.768 1689.26,497.491 1686.87,485.183C1683.33,466.962 1681.4,447.647 1671.37,431.458C1665.36,421.762 1652.95,416.816 1641.86,418.35C1635.45,419.235 1626.47,421.053 1625.16,428.913C1624.74,431.454 1625.47,434.171 1625.16,436.754C1624.73,440.363 1623.48,443.888 1623.18,447.5C1621.85,463.589 1630.2,478.394 1632.56,493.872C1634.58,507.107 1629.52,524.83 1641.84,534.994C1644.89,537.51 1651.79,536.28 1655.02,538.033C1659.62,540.538 1662.88,548.316 1669.43,546.879C1669.66,545.337 1670.48,543.45 1670.07,541.892C1668.03,534.191 1681.82,541.455 1684.05,537.7C1684.84,536.381 1684.03,534.63 1684.06,533.096C1684.14,528.819 1684.27,524.543 1684.38,520.267M1993.34,2258.2C1998.92,2259.59 1993.62,2271.02 1989.5,2275.03C1978.38,2285.88 1964.58,2293.89 1954.22,2305.45C1940.89,2320.32 1930.67,2337.71 1918.9,2353.83C1909.54,2366.67 1888.76,2386.52 1899.93,2405.37C1902.22,2409.22 1907.26,2410.6 1910.33,2413.86C1936.05,2388.65 1958.66,2355.52 1982.08,2328.38C1987.83,2321.73 2014.58,2294.39 2024.04,2292.03C2029.42,2290.7 2029.41,2279.35 2029.65,2276.19C2031.49,2252.39 2034.34,2228.64 2034.95,2204.77C2035.29,2191.3 2033.46,2177.85 2032.5,2164.41C2032.25,2160.83 2032.35,2157.14 2031.3,2153.71C2030.75,2151.91 2029.35,2148.12 2027.84,2149.25C2021.92,2153.5 2019.47,2167.57 2017.42,2173.5C2013.89,2183.76 2009.45,2193.7 2006.24,2204.07C2002.95,2214.69 2004.18,2225.79 1996.32,2234.94C1994.36,2237.22 1995.16,2252.95 1993.34,2258.2M1937.49,2160.33C1942.3,2158.51 1956.35,2154.62 1951.23,2145.7C1945.92,2136.45 1936.99,2124.23 1924.42,2125.77C1919.71,2126.35 1912.63,2133.15 1907.8,2127.9C1899.6,2118.97 1898.27,2115.23 1896.24,2103.39C1895.09,2096.65 1898.13,2094.92 1893.15,2089C1888.9,2083.93 1873.9,2071.54 1867.63,2069.06C1861.06,2066.45 1853.65,2066.66 1846.93,2064.49C1840.42,2062.38 1841.55,2057.73 1833.81,2058.17C1834.79,2066.21 1844.49,2076.11 1840.51,2083.82C1841.46,2084.99 1842.42,2086.17 1844.23,2088.38C1841.09,2090.09 1838.42,2091.54 1835.23,2093.28C1845.7,2100.83 1844.57,2114.95 1845.71,2126.08C1847.67,2145.21 1850.05,2164.31 1851.73,2183.47C1852.39,2191.1 1849.53,2201.62 1856.71,2207.3C1860.14,2210.01 1863.61,2206.65 1865.72,2203.81C1866.76,2202.41 1872.21,2188.27 1877.83,2186.18C1890.87,2181.32 1902.29,2190.26 1914.28,2193.53C1923.27,2195.98 1928.61,2185.52 1934.34,2181.44C1936.23,2180.1 1938.98,2180.39 1940.86,2179.03C1948.09,2173.8 1941,2164.79 1937.49,2160.33M1174.05,866.958C1183.15,867.112 1172.56,883.569 1183.24,880.977C1196.54,877.751 1194.74,874.252 1207.07,868.533C1217.03,863.914 1228.71,862.822 1237.83,856.121C1242.57,868.796 1246.99,880.6 1251.56,892.825C1253.8,891.888 1256.08,890.933 1258.85,889.771C1252.9,871.815 1251.01,872.527 1246.58,854.051C1245.2,848.337 1252.03,845.257 1254.93,842.033C1255.25,841.679 1258.09,836.658 1255.76,835.942C1251.22,834.547 1251.68,828.117 1251.54,825.021C1250.97,812.248 1252.21,798.153 1245.63,786.458C1236.57,770.36 1221.3,759.013 1206.07,749.275C1200.68,745.832 1198.21,746.611 1197.43,753.229C1194.3,753.925 1191.23,754.608 1187.49,755.442C1199.94,771.016 1169.68,778.642 1164.13,788.938C1160.75,795.217 1158.72,802.195 1157.03,809.125C1153.39,824.014 1153.24,835.544 1156.3,850.55C1158.13,859.527 1160.46,868.459 1163.78,877C1164.95,880.023 1170.19,881.066 1171.89,877.671C1173.52,874.415 1173.18,870.496 1174.05,866.958M1281.6,449.758C1280.81,450.183 1280.01,450.612 1279.21,451.038C1280.85,453.305 1282.37,455.698 1284.35,457.675C1287.63,460.953 1289.81,453.684 1290.23,452.349C1291.48,448.287 1291.78,438.026 1298.94,438.565C1321.44,440.256 1320.62,443.228 1342.57,446.502C1347.32,447.21 1355.05,446.783 1358.68,442.745C1367.67,432.761 1357.87,414.689 1356.18,405.042C1352.23,382.493 1356.39,381.045 1349.27,358.972C1347.61,353.826 1341.27,351.101 1339.58,345.967C1335.93,334.956 1357.18,333.336 1350.16,322.262C1348.46,319.587 1340.67,316.881 1337.98,316.261C1304.01,308.421 1304.16,307.894 1269.6,309.092C1264.75,309.26 1268.76,317.43 1263.07,315.754C1261.09,323.646 1265.02,324.542 1266.21,331.814C1268.16,343.777 1269.62,355.829 1270.62,367.908C1271.26,375.733 1270.38,383.643 1271.14,391.458C1271.91,399.435 1276.3,405.723 1276.02,413.928C1275.94,416.075 1273.19,417.669 1273.38,419.808C1273.61,422.409 1276.43,424.163 1277.16,426.669C1280.42,437.809 1276.78,438.921 1281.6,449.758M1958.13,2106.57C1961,2113.58 1962.45,2121.11 1965.1,2128.21C1966.47,2131.89 1967.58,2135.89 1970.15,2138.85C1979.33,2149.4 1988.69,2130.18 1993.51,2126.93C1999.8,2122.68 2007.26,2120.48 2014.17,2117.35C2014.08,2117.02 2014.04,2116.63 2013.88,2116.3C2009.71,2107.76 2006.47,2098.78 2002.19,2090.3C1999.97,2085.91 1995.61,2082.52 1994.41,2077.74C1991.07,2064.41 1997.75,2047.28 1988.27,2035.22C1971.84,2014.31 1944.76,2003.66 1918.48,2007.77C1913.81,2008.5 1909.79,2011.82 1905.11,2012.52C1892.49,2014.41 1879.5,2013.23 1866.94,2015.48C1854.5,2017.72 1843.3,2026.25 1833.26,2033.1C1834.25,2039.84 1843.94,2035.79 1847.31,2036.73C1857.76,2039.62 1880.07,2049.54 1888.17,2057.15C1904.67,2072.65 1899.06,2110.6 1927.04,2113.54C1931.68,2114.03 1936.47,2114.34 1941.02,2113.32C1947,2111.98 1952.69,2109.39 1958.13,2106.57M1886.67,2211.25C1877.46,2211.31 1873.26,2215.08 1871.96,2222.49C1870.34,2231.72 1859.58,2234.49 1854.58,2240.98C1850.49,2246.29 1846.38,2252 1844.72,2258.49C1842.84,2265.87 1843.86,2273.73 1844.29,2281.34C1844.69,2288.47 1855.17,2286.44 1858.94,2287.92C1863.08,2289.54 1867.13,2291.68 1870.47,2294.61C1874.03,2297.75 1876.08,2302.3 1879.28,2305.81C1887.52,2314.82 1896.1,2323.52 1904.76,2332.13C1905.87,2333.23 1907.02,2335.14 1908.56,2334.88C1924.53,2332.18 1927.09,2311.14 1934.56,2300.96C1946.51,2284.67 1957.04,2283.71 1967.65,2266.15C1977.47,2249.9 1985.54,2221.47 1990.94,2203.58C1995.44,2188.66 1999.5,2173.62 2004.11,2158.74C2005.37,2154.68 2010.12,2147.59 2006.12,2146.16C2000.42,2144.17 1991.88,2151.66 1988.69,2154.76C1979.8,2163.4 1970.77,2171.96 1962.68,2181.37C1957.97,2186.86 1955.34,2193.98 1950.41,2199.28C1934.25,2216.68 1907.97,2217.72 1886.67,2211.25M1598.15,2709.25C1598.64,2709.78 1599.14,2710.31 1599.63,2710.84C1612.42,2702.62 1621.99,2690.17 1632.26,2678.96C1638.23,2672.45 1645.96,2655.69 1653.96,2650.74C1664.84,2644.01 1678.06,2646.94 1689.72,2646.01C1720.32,2643.57 1754.55,2640.86 1783.27,2628.4C1827.99,2609.02 1844.62,2558.36 1853.85,2514.8C1858.36,2493.53 1855.15,2468.78 1832.53,2459.28C1820.3,2454.15 1815.76,2475.67 1813.4,2481.17C1799.63,2513.28 1789.06,2547.84 1757.91,2567.57C1729.42,2585.62 1706.11,2593.35 1674.65,2604.77C1655.52,2611.71 1642.29,2613.12 1626.69,2627.48C1606.29,2646.27 1601.83,2685.19 1598.15,2709.25M1133.98,821.233C1134.63,822.567 1135.75,823.858 1135.47,824.429C1120.42,854.118 1122.38,886.224 1126.42,917.764C1127.26,924.379 1132.82,930.244 1132.29,936.892C1130.49,958.687 1134.9,981.284 1129.34,1002.43C1125.49,1017.05 1130.79,1053.96 1131.35,1068.44C1133,1110.93 1127.76,1156.9 1146.37,1197C1164.8,1198.3 1168.23,1167.13 1172.67,1154.14C1175.42,1160.72 1177.38,1165.4 1179.59,1170.69C1196.19,1165.12 1211.97,1157.27 1228.55,1151.64C1237.31,1148.66 1243.51,1152.85 1250.55,1144.55C1250.65,1144.43 1250.92,1144.46 1251.11,1144.4C1282.63,1134.73 1272.19,1098.67 1268.48,1075.83C1267.58,1070.24 1269.11,1062.23 1264.2,1059.4C1258.79,1056.28 1251.86,1061.44 1245.74,1062.71C1235.58,1064.81 1225.47,1067.12 1215.38,1069.51C1211.08,1070.53 1187.37,1074.83 1186.81,1083.49C1186.43,1089.42 1178.13,1092.02 1175.75,1097.46C1172.14,1105.71 1174,1116.05 1169.21,1123.68C1160.75,1104.97 1158.11,1071.46 1157.37,1051.49C1154.52,974.055 1153.07,896.571 1150.48,819.125C1149.48,789.308 1159.75,790.042 1172,765.548C1177.53,754.493 1179.93,745.31 1162.72,744.1C1162.55,744.087 1162.25,744.708 1162.17,745.067C1157.62,765.27 1148.87,784.299 1142.82,804.104C1140.83,810.609 1143.12,818.424 1133.98,821.233M1606.81,1131.88C1612.03,1142.31 1633.92,1137.1 1632.75,1124.57C1629.31,1086.78 1631.09,1047.81 1629.01,1009.82C1628.48,1000.06 1629.4,990.207 1628.3,980.487C1624.09,943.304 1623.49,944.194 1620.66,907.138C1616.96,859.193 1613.82,835.779 1599.71,789.692C1589.77,757.233 1568.73,703.324 1550.85,674.225C1534.84,648.182 1495.36,657.592 1495.82,689.242C1495.95,698.244 1507.67,701.381 1511.91,706.563C1541.64,742.869 1552.36,758.511 1566.45,804.218C1583.06,858.098 1584.34,925.271 1586.72,978.375C1588.24,1012.33 1588.53,1046.34 1588.39,1080.33C1588.33,1094 1576.67,1135 1606.81,1131.88M1612.35,1637.67C1597.8,1638.76 1595.27,1634.23 1586.52,1646.28C1591.92,1649.43 1610.9,1650.02 1615.25,1656.25C1618.36,1660.71 1616.11,1667.11 1616.9,1672.5C1620.08,1694.34 1619.01,1728.33 1651.13,1724.81C1651.23,1724.8 1651.26,1724.34 1651.38,1724.32C1657.43,1723.14 1663.94,1723.64 1669.64,1721.27C1679.34,1717.25 1678.12,1707.39 1690.49,1707.39C1690.49,1598.56 1679.97,1599.85 1671.87,1490.86C1670.21,1468.5 1683.47,1419.92 1651.62,1407.21C1643.85,1404.11 1636.39,1417.7 1634.32,1421.5C1627.79,1433.48 1622.74,1446.26 1615.68,1457.93C1612.62,1462.99 1606.3,1465.9 1604.13,1471.4C1602.64,1475.19 1611.3,1483.54 1612.59,1485.68C1608.09,1485.24 1605.18,1484.95 1601.88,1484.62C1604.55,1519.2 1605.33,1553.91 1607.21,1588.55C1607.49,1593.64 1609.38,1598.81 1608.37,1603.82C1606.69,1612.02 1608.74,1620.58 1609.72,1628.89C1610.08,1631.92 1614.45,1635.45 1612.35,1637.67M1412.8,490.621C1455.24,493.842 1491.49,519.364 1530.43,533.158C1545.89,538.634 1562.22,541.231 1578.13,545.192C1581.06,545.921 1603.58,554.443 1599.54,540.567C1597.32,532.975 1606.66,522.878 1607.03,516.079C1607.86,500.833 1605,485.562 1605.47,470.3C1605.65,464.348 1616.62,438.152 1600.69,436.596C1591.21,435.675 1589.53,438.809 1582.13,436.933C1576.38,435.475 1570.66,433.883 1563.19,431.871C1567.08,445.817 1562.47,458.529 1568.46,470.567C1560.29,471.696 1567.57,487.844 1559.06,486.888C1553.68,486.282 1548.44,484.591 1543.38,482.687C1534.8,479.476 1545.32,466.778 1546.05,463.613C1549.78,447.415 1550.73,428.547 1547.65,412.138C1528.72,420.727 1528.51,412.843 1508.16,410.354C1497.36,409.014 1503.34,426.751 1503.49,430.021C1503.78,436.197 1502.82,442.392 1503.17,448.565C1503.43,453.217 1510.99,475.344 1496.29,472.008C1492.33,471.109 1496.68,463.578 1494.94,459.915C1490.57,450.717 1478.84,444.074 1479.54,432.49C1480.36,419.021 1482.49,405.664 1483.96,392.25C1484.61,386.325 1486.35,383.828 1480.9,379.35C1475.78,375.144 1470.73,388.277 1467.1,387.833C1460.09,386.986 1441.37,370.742 1440.88,381.304C1440.07,398.792 1439.37,416.279 1438.63,434.038C1432.56,434.038 1424.67,437.104 1418.93,432.603C1405.88,422.375 1417.3,399.731 1419.67,388.937C1420.93,383.196 1426.29,363.264 1414.2,361.429C1409.46,360.707 1404.74,363.961 1399.97,363.506C1393.2,362.861 1385.63,353.652 1378.49,359.658C1382.39,401.606 1380.55,420.464 1388.85,461.967C1390.01,467.787 1398.53,492.985 1408.99,477.508C1413.36,479.158 1417.45,480.7 1422.34,482.546C1418.23,485.113 1412.42,484.283 1412.8,490.621M1053.91,619.075C1055.29,619.983 1056.5,621.463 1057.43,621.304C1064.86,620.029 1072.22,618.446 1079.6,616.921C1079.92,616.858 1080.13,616.387 1080.41,616.133C1118.64,581.889 1125.96,587.351 1165.55,554.996C1182.85,540.854 1198.05,524.319 1214.73,509.446C1216.46,507.903 1248.6,484.184 1247.12,479.208C1245.42,473.525 1242.11,467.617 1251.05,464.908C1251.17,464.871 1251.24,464.579 1251.31,464.396C1253.9,457.454 1259.51,451.621 1258.62,443.367C1255.63,415.8 1254.43,387.223 1251.7,359.408C1239.99,356.295 1246.28,348.096 1235.23,343.619C1227.13,340.337 1217.47,348.399 1212.82,352.718C1200.14,364.503 1190.48,385.173 1193.1,402.818C1194.88,414.867 1207.73,431.146 1199.24,444.075C1193.7,445.538 1188.8,449.161 1183.15,450.092C1178.81,450.806 1180.38,444.086 1180.15,443.05C1176.76,428.01 1172.63,413.146 1169.05,398.15C1165.89,384.946 1126.16,392.589 1141.48,410.062C1134.43,410.758 1128.35,411.362 1122.49,411.942C1128.95,435.113 1134.87,452.74 1137.47,476.8C1138.41,485.484 1137.07,495.321 1127.1,498.883C1126.72,485.968 1126.17,468.45 1121.77,456.035C1115.82,439.272 1093.33,432.564 1081.72,447.979C1078.77,446.8 1075.59,445.533 1072.41,444.267C1068.83,449.866 1071.25,455.904 1073.52,461.119C1082.19,481.052 1089.45,501.735 1100.25,520.6C1094.27,524.858 1088.88,528.696 1083.18,532.754C1079.04,508.094 1075.1,509.467 1066.89,486.227C1065.86,483.279 1067.93,476.748 1063,475.167C1055.29,472.692 1047.01,472.638 1039.01,471.392C1050.54,514.562 1046.86,528.716 1051.77,572.721C1052.7,581.016 1056.94,589.023 1056.31,597.346C1070.3,599.534 1055.94,616.252 1053.91,619.075M1055.07,1923.62C1059.07,1923.98 1058.89,1936.16 1061.39,1940.92C1073.71,1927.38 1064.63,1881.97 1062.89,1863.7C1059.66,1863.05 1059.1,1862.97 1058.28,1867.99C1054.8,1889.3 1053.58,1935.9 1031.26,1948.03C1027.04,1950.35 1015.95,1987.53 1015.7,1989.29C1012.42,2012.28 1019.46,2083.85 1022.94,2106.42C1024.93,2119.35 1034.79,2137.47 1031.46,2151.41C1027.15,2169.45 1032.62,2188.72 1029.65,2207.03C1025.57,2232.23 1015.03,2256.07 1010.43,2281.19C1002.43,2324.87 998.854,2369.27 1019.98,2409.7C1028.49,2425.99 1040.03,2440.55 1049.01,2456.6C1070.77,2495.48 1064.36,2498.97 1094.54,2532.77C1099.9,2538.77 1112.43,2541.81 1119.56,2536.78C1111.79,2525.1 1092.32,2510.74 1089.26,2499.78C1087.44,2493.31 1085.58,2486.79 1084.7,2480.16C1083.77,2473.28 1092.85,2467.64 1092.18,2460.73C1090.53,2443.9 1080.12,2428.8 1078.01,2412.03C1076.31,2398.49 1083.17,2384.66 1080.93,2371.2C1069.64,2303.56 1082.92,2304.21 1084.63,2236.92C1085.53,2201.56 1054.28,2176.97 1052.33,2142.3C1050.14,2103.64 1059.5,2082.81 1052.25,2044.14C1068.27,2046.84 1066.03,2035.4 1070.14,2026.21C1080.42,2003.26 1098.26,1979.22 1094.22,1952.16C1092.36,1939.75 1090.96,1941.04 1083.86,1929.78C1083.44,1930.18 1083.02,1930.59 1082.6,1931C1081.27,1929.87 1072.18,1918.9 1070.51,1927.2C1064.46,1957.25 1068.23,1973.15 1037.76,1991.6C1039.73,1981.19 1048.05,1970.68 1044.93,1959.37C1043.47,1954 1053.2,1931.08 1055.07,1923.62M1650.11,2280.61C1657.45,2284.9 1670.89,2295.66 1678.94,2294.68C1690.2,2293.31 1718.88,2317.97 1712.51,2331.9C1707.28,2343.24 1692.24,2357.62 1691.55,2370.33C1690.45,2389.93 1664.92,2392.57 1654.28,2403.1C1624.03,2433.04 1627.33,2447.93 1596.49,2477.37C1605.43,2445.63 1639.19,2401.39 1656.68,2374.66C1658.92,2371.24 1662.3,2365.89 1658.18,2361.74C1650.09,2361.74 1641.73,2364.34 1636.17,2355.46C1632.9,2350.25 1642.09,2342.01 1631,2339.3C1628.74,2338.76 1617.39,2358.77 1616.75,2360.72C1581.36,2373.61 1573.71,2413.49 1567.76,2447.07C1564.38,2466.28 1566.6,2488.21 1555.83,2505.93C1538.43,2534.54 1489.31,2519.91 1482.54,2558.48C1481.32,2565.5 1469.85,2566.29 1466.46,2572.56C1461.86,2581.09 1461.88,2591.41 1459.68,2600.85C1458.75,2604.85 1462.25,2608.65 1463.82,2612.44C1506.9,2590.05 1531.75,2544.5 1573.3,2520.56C1571.29,2525.54 1569.73,2529.42 1568.1,2533.45C1592.15,2549.89 1625.96,2513.96 1637.77,2500.88C1675.98,2458.57 1669.5,2454.33 1704.15,2408.97C1716.84,2392.36 1744.97,2373.85 1743.64,2348.66C1742.03,2317.34 1731.27,2290.56 1720.52,2261.67C1714.23,2244.74 1709.36,2221.49 1686.22,2222.94C1687.23,2217.71 1691.07,2212.97 1690.81,2207.65C1689.7,2184.59 1657.15,2183.11 1642.21,2182.14C1639.19,2186.53 1636.67,2190.2 1633.87,2194.28C1637.72,2210.86 1634.35,2228.4 1636.61,2245.27C1637.73,2253.69 1645.6,2261.34 1643.97,2269.68C1641.77,2280.83 1645.76,2291.23 1650.11,2280.61M1754.35,596.487C1784.01,617.294 1806.73,660.393 1831.39,685.522C1847.45,701.878 1862.43,699.331 1878.14,716.213C1912,752.603 1903.78,760.634 1932.96,800.096C1943.28,814.061 1957.51,824.843 1967.81,838.829C1984.02,860.844 1963.08,886.397 1972.57,909.81C1980.65,929.74 1991.9,933.164 1999,953.688C2008.43,980.955 2019.48,1034.56 2018.06,1063.71C2016.92,1087.03 2000.06,1104.6 1997.54,1127.48C1994.82,1152.17 1996.37,1177.16 1996.61,1202.01C1996.66,1207.44 2000,1213.01 1998.43,1218.21C1992.44,1237.95 1978.78,1238.12 1974.15,1258.56C1966.8,1291.13 1979.5,1296.1 1971.73,1328.63C2002.17,1329.89 1990.6,1277.23 1994.31,1265.19C1997.92,1253.48 2022.98,1233.03 2028.97,1223.29C2036.73,1210.67 2043.99,1197.36 2047.9,1183.07C2056.64,1151.18 2041.94,1150.95 2046.44,1119.15C2049.69,1096.19 2069.36,1073.74 2061.76,1049.1C2056.32,1031.49 2041.79,1015.8 2039.95,996.687C2039.39,990.837 2039.88,984.896 2039.58,979.013C2038.1,951.287 2032.17,923.964 2029.58,896.321C2027.08,869.794 2031.96,858.86 2023.75,832.858C2012.88,798.421 1977.36,780.695 1955.71,754.884C1934.83,729.99 1944.89,721.636 1921.4,698.329C1901.05,678.131 1876.34,662.712 1855.7,642.808C1844.07,631.596 1836.83,616.302 1824.97,605.338C1813.51,594.742 1785.44,585.402 1771.9,578.992C1766.91,576.628 1745.75,561.782 1738.09,566.829C1741.83,575.918 1745.4,590.633 1756.76,591.346C1755.82,593.354 1755.13,594.842 1754.35,596.487M1510.78,2446.28C1510.46,2445.65 1511.14,2446.35 1511.03,2446.86C1505.76,2469.64 1498.18,2491.87 1494.33,2514.84C1494.73,2514.97 1496.47,2516.21 1497.91,2515.93C1512.52,2513.05 1525.16,2511.21 1537.23,2501.43C1555.82,2486.36 1550.31,2458.55 1554.08,2438.61C1557.25,2421.84 1560.37,2404.8 1566.85,2389.01C1571.45,2377.8 1590.91,2368.24 1594.39,2356.1C1599.97,2336.63 1599.31,2315.87 1603.08,2295.97C1606.14,2279.87 1612.69,2264.48 1614.84,2248.23C1616.72,2234.08 1607.02,2229.84 1606.32,2216.37C1605.28,2196.09 1609.78,2178.96 1622.74,2162.99C1617.85,2139.09 1626.27,2121.14 1618.87,2097.39C1614.24,2082.53 1605.97,2069.03 1598.46,2055.4C1594.17,2047.62 1571.55,2027.02 1589.5,2017.42C1571.35,2009.99 1569.91,1987.34 1568.5,1971.13C1565.55,1937.25 1569.23,1903.93 1555.1,1871.55C1537.46,1831.13 1481.88,1851.11 1459.5,1873.95C1444.77,1888.99 1464.6,1910.07 1463.33,1925.59C1460.07,1966.38 1445.1,1997.86 1434.33,2036.57C1455.42,2052.54 1516.6,2076.65 1539.77,2088.37C1545.19,2091.12 1553.69,2098.47 1549.8,2106.4C1542.07,2104.85 1534.9,2100.59 1527.05,2099.98C1507.84,2098.5 1497.01,2108.79 1477.78,2100.14C1469.45,2096.4 1464.38,2087.68 1456.98,2082.32C1451.93,2078.66 1439.17,2073.26 1438.51,2079.46C1432.28,2079.89 1423.3,2087.78 1421.88,2093.92C1417.44,2113.13 1408.84,2110.05 1407.29,2130.42C1404.75,2163.78 1428.13,2206.79 1466.52,2204.22C1490.69,2202.6 1496,2234.85 1505.48,2248.56C1518.9,2267.97 1537.26,2283.89 1549.25,2304.21C1569.95,2339.27 1522.02,2371.45 1513.28,2398.3C1511.83,2382.04 1508.36,2370.02 1514.23,2353.92C1519.54,2339.33 1532.11,2338.55 1528.42,2320.18C1526.46,2310.47 1510.78,2304.78 1509.11,2294.8C1507.44,2284.78 1508.52,2274.16 1505.11,2264.59C1492.86,2230.19 1449.48,2223.55 1423.18,2207.08C1417.45,2203.5 1416.28,2193.79 1409.8,2191.86C1409.62,2191.81 1409.79,2190.75 1409.68,2190.18C1406.88,2175.4 1386.35,2173.19 1378.23,2183.7C1370.31,2193.94 1378.84,2214.68 1379.52,2224.65C1378.68,2229.53 1373.4,2233.88 1374.64,2238.67C1375.81,2243.19 1382.21,2244.2 1385.44,2247.57C1398.54,2261.2 1411.76,2274.8 1423.57,2289.58C1448.45,2320.71 1460.26,2365.98 1443.32,2403.71C1439.65,2411.93 1446.61,2423.94 1447.86,2431.36C1450.76,2448.55 1454.1,2465.78 1454.76,2483.2C1455.3,2497.31 1444.74,2515.23 1450.89,2529.8C1475.57,2517.61 1497.09,2468.96 1510.78,2446.28M1760.75,2083.02C1743.27,2072.52 1748.79,2066.8 1737.8,2051.57C1731.65,2043.03 1721.94,2037.1 1717.07,2027.77C1668.18,2027.77 1667.88,2035.05 1620.57,2022.75C1610.62,2020.19 1613.33,2014.03 1603.31,2014.97C1607.71,2023.56 1607.62,2026.43 1603.7,2030.33C1617.8,2055.97 1639.7,2086.1 1665.47,2101.64C1670.62,2104.75 1689.73,2094.66 1694.47,2096.56C1707.13,2101.63 1720.41,2123.58 1729.15,2132.45C1725.6,2154.38 1716.06,2175.05 1712.46,2196.97C1711.34,2203.8 1722.25,2213.65 1719.65,2220.92C1716.14,2230.68 1731.18,2248.64 1734.91,2255.17C1751.61,2284.37 1778.19,2322.42 1772.72,2359.45C1766.79,2399.54 1729.51,2420.69 1703.72,2446.75C1694.06,2456.51 1709.63,2467.07 1706.28,2477.59C1703.28,2487.01 1694.32,2493.46 1689.74,2502.22C1685.52,2510.31 1707.41,2512.08 1716.14,2509.44C1746.68,2500.18 1785.99,2486.38 1794.16,2450.4C1808.43,2387.47 1798.43,2387.07 1804.36,2322.44C1806.79,2295.91 1834.25,2280.65 1835.15,2253.66C1836.77,2205.74 1829.59,2205.85 1825.48,2158.29C1824.04,2141.62 1829.38,2124.86 1828.24,2108.16C1825.84,2072.86 1811.8,2071.63 1815.77,2035.24C1818.28,2012.31 1834.25,2000.02 1840.97,1978.97C1849.16,1953.28 1844.78,1924.11 1864.53,1902.9C1868.93,1898.17 1875.42,1895.84 1880.18,1891.47C1880.6,1891.88 1881.03,1892.28 1881.46,1892.68C1880.55,1893.93 1879.03,1895.09 1878.83,1896.44C1877.23,1907.25 1876.07,1953.36 1865.24,1964.43C1864.25,1969.48 1863.27,1973.28 1862.84,1977.14C1862.11,1983.57 1860.47,1985.48 1864.74,1985.67C1864.13,1987.18 1863.52,1988.69 1862.1,1992.2C1872.67,1988.73 1878.58,1987.18 1889.28,1989.52C1891.63,1981.68 1904.92,1933.41 1921.53,1929.73C1941.45,1925.33 1944.42,1904.31 1962.5,1898.25C1962.47,1908.17 1946.68,1923.78 1941.69,1930.5C1927.78,1949.23 1912.72,1968.9 1906.72,1992.12C1908.63,1992.08 1910.57,1992.24 1912.44,1991.97C1920,1990.87 1927.54,1989.63 1935.09,1988.46C1945.36,1986.94 1953.26,2003.96 1964.1,2002.85C2007.63,1998.45 2005.33,2066.28 2010.3,2092.18C2021.41,2093.25 2031.82,2098.37 2042.86,2099.95C2055.47,2101.76 2043.6,2080.34 2043.01,2079.05C2038.93,2070.22 2031.83,2062.39 2030.31,2052.78C2019.77,1986.09 2032.75,1904.81 1989.85,1845.5C1980.64,1832.76 1929.3,1809.84 1951.62,1783.14C1948.04,1781.8 1945.1,1780.7 1943.15,1779.97C1937.45,1767.67 1929.45,1756.37 1925.01,1743.56C1923.13,1738.1 1927.44,1731.24 1924.55,1726.24C1918.53,1715.78 1901.41,1710.72 1898.77,1728.58C1897.93,1734.26 1884.25,1731.96 1884.15,1737.71C1884.01,1745.9 1890.34,1753.22 1890.69,1761.41C1891.88,1788.47 1874.09,1817 1852.23,1831.75C1823.88,1850.87 1806.55,1839.6 1769.86,1843.5C1750.89,1845.52 1727.14,1851.32 1724.79,1873.97C1720.65,1913.56 1718.99,1970.44 1737.92,2005.95C1737.48,2006.33 1737.05,2006.7 1736.61,2007.09C1728.39,1999.29 1725.04,2001.94 1723.45,1990.58C1721.56,1976.77 1716.6,1979.1 1714.34,1964.94C1712.35,1952.44 1707.17,1960.89 1706.33,1964.41C1706.15,1965.14 1705.99,1965.88 1705.66,1967.33C1697.62,1963.48 1697.34,1951.94 1689.34,1949.27C1688.28,1948.92 1685.79,1949.8 1685.53,1950.64C1681.34,1963.8 1684.12,1964.35 1675.13,1974.74C1668.8,1963.61 1667.68,1949.89 1658.38,1940.32C1652.86,1950.17 1662.7,1975.48 1652.65,1981.29C1653.82,1982.54 1654.66,1983.45 1655.61,1984.47C1652.7,1986.91 1650.11,1989.07 1647.27,1991.45C1647.27,1975.7 1639.95,1960.8 1635.58,1945.67C1634.94,1943.44 1630.21,1932.54 1625.01,1934.72C1618.36,1937.51 1615.55,1950.88 1614.85,1956.44C1612.85,1972.22 1609.15,1988.06 1610.18,2003.93C1610.63,2010.84 1623.8,2001.42 1630.65,2000.4C1640.77,1998.89 1651.09,1998.34 1661.32,1998.67C1690.32,1999.63 1696.09,2002.46 1722.11,2014.72C1730.03,2018.45 1746.79,2027.13 1740.63,2033.36C1757.45,2055.4 1757.53,2055.28 1760.75,2083.02M1173.63,664.871C1198.78,694.397 1229.82,720.199 1251.09,753.131C1275.41,790.79 1271.08,799.596 1275.33,842.687C1279.71,887.041 1287.06,943.562 1284.55,988.35C1283.01,1016.08 1286.47,1043.39 1285.53,1070.73C1285.22,1079.78 1284.51,1105.2 1290.41,1113.54C1309.16,1140.01 1356.36,1118.81 1363.12,1092.61C1365.62,1082.95 1355.91,1069.52 1354.66,1060.85C1347.82,1013.83 1344.96,968.215 1340.95,921.396C1335.94,863.336 1334.95,804.964 1329.44,746.95C1325.08,701.032 1316.03,655.65 1311.35,609.763C1309.41,590.792 1311.88,571.518 1309.62,552.583C1308.62,544.18 1299.66,546.472 1295.42,542.75C1289.58,537.627 1285.6,530.673 1280.1,525.183C1272.88,517.969 1265.87,510.298 1257.33,504.706C1240.75,493.847 1230.14,521.246 1222.33,528.042C1196.84,550.245 1169.98,570.853 1143.01,591.243C1131.04,600.293 1119.6,610.866 1105.61,616.3C1105.26,616.438 1104.81,616.321 1104.45,616.442C1078.42,625.072 1053.07,626.525 1053.07,655.671C1029.98,644.761 1026.48,641.36 1000.48,645.45C994.639,646.368 983.416,654.653 988.15,658.188C999.456,666.631 1015.39,659.376 1025.38,671.521C1025.55,671.067 1025.73,670.608 1025.91,670.15C1035.62,672.998 1048.2,689.998 1054.88,677.396C1054.56,683.25 1054.31,687.85 1054.05,692.725C1050.52,691.729 1047.96,690.733 1045.32,690.329C1038.58,689.316 1041.2,703.353 1039.9,710.042C1037.91,720.184 1036.41,730.635 1032.21,740.075C1027.19,751.332 1010.89,760.034 1009.1,773.517C1022.34,775.429 1024.35,786.88 1023.04,797.158C1015.06,800.775 1014.76,815.567 1015.12,821.856C1016.81,851.518 1020.75,881.045 1021.77,910.737C1023.42,958.175 1022.48,1005.67 1023.12,1053.13C1023.85,1106.83 1024.21,1160.54 1025.87,1214.22C1026.16,1223.62 1027.55,1232.97 1028.96,1242.27C1029.25,1244.13 1029.06,1247.86 1030.92,1247.56C1037.24,1246.5 1050.09,1244.02 1054.58,1242.18C1060.87,1239.61 1067.07,1236.8 1071.56,1234.84C1075.87,1235.43 1078.69,1235.83 1081.44,1236.21C1083.94,1224.07 1109.32,1216.74 1115.9,1213.23C1116.55,1212.89 1116.67,1211.59 1116.99,1210.85C1108.14,1201.46 1117.77,1195.13 1117.58,1185.94C1116.61,1139.93 1113.54,1093.98 1110.89,1048.03C1105.56,955.604 1088.28,857.408 1119.33,766.825C1136.18,717.686 1154.24,712.653 1173.63,664.871M1545.44,559.342C1501.66,546.13 1460.22,526.13 1417.35,510.196C1413.7,508.838 1384.86,499.464 1380.23,504.602C1372.2,513.501 1375.38,528.681 1368.77,538.672C1365.83,543.112 1358.12,541.222 1353.87,544.425C1346.08,550.286 1341.99,562.38 1340.35,571.329C1339.3,577.162 1337.52,582.942 1337.21,588.808C1332.23,684.124 1346.55,698.082 1349.82,792.887C1350.76,820.362 1344.94,847.873 1346.78,875.303C1349.67,918.647 1358.18,961.432 1363.96,1004.49C1366.13,1020.62 1367.27,1036.92 1370.6,1052.86C1371.38,1056.57 1376.47,1059.03 1376.14,1062.81C1375.97,1064.76 1385.43,1092.02 1390.85,1089.1C1396.05,1086.33 1398.23,1087.17 1396.93,1082.96C1408.18,1085.56 1437.65,1111.7 1444.95,1095.06C1447.73,1095.33 1450.18,1095.58 1452.63,1095.82C1452.76,1093.61 1453.27,1091.35 1452.97,1089.21C1440.86,1002.4 1430.84,914.069 1426.31,826.546C1423.69,776.189 1433.79,736.976 1457.24,692.642C1472.53,663.737 1502.31,644.268 1513.19,612.292C1544.58,660.415 1592.72,708.859 1611.29,765.561C1652.1,890.169 1639.51,1010.65 1651.43,1140.31C1683.55,1127.55 1689.12,1158.46 1720.89,1153.49C1723.13,1153.13 1724.65,1148.4 1726.58,1145.72C1726.86,1145.33 1727.58,1145.25 1728.39,1144.89C1738.19,1153.46 1738.05,1154.23 1751.28,1152.83C1751.59,1152.8 1752.01,1150.8 1751.85,1149.81C1745.85,1113.83 1740.24,1072.77 1720.38,1041.11C1710.29,1057.85 1727.07,1080.5 1722.08,1099.33C1719.94,1094.91 1713.16,1087.63 1717.5,1085.33C1724.16,1081.81 1714.41,1044.51 1712.95,1036.79C1716.3,1036.13 1718.13,1035.76 1719.92,1035.4C1719.18,1024.67 1712.76,1014.23 1720.19,1005.26C1708.54,957.982 1710.93,934.132 1708.58,885.946C1708.13,876.577 1704.75,859.866 1709.74,850.675C1704.4,845.533 1706.57,837.584 1706.21,831.525C1705.52,820.082 1704.32,808.676 1703.44,797.246C1703.4,796.683 1703.19,795.979 1703.44,795.571C1709.16,786.123 1700.5,779.409 1699.98,771.125C1697.16,726.702 1708.95,664.93 1677.35,625.554C1666.97,612.626 1654.83,621.235 1642.46,614.694C1601.3,592.917 1608.18,581.012 1562.67,566.454C1566.61,565.871 1569.43,565.454 1572.25,565.033C1557.78,558.245 1557.93,557.42 1545.44,559.342M1678.73,1382.58C1682.19,1400.72 1704.05,1397.38 1714.41,1406.5C1708.31,1410.4 1701.33,1409.37 1697.21,1415.83C1709.51,1423.25 1717.47,1436.82 1734.95,1428.95C1737.07,1427.99 1739.76,1431.77 1740.35,1432.25C1728.97,1439.01 1672.19,1431.88 1705.68,1451.6C1691.47,1474.27 1698.08,1499.35 1703.25,1522.7C1704.95,1530.41 1713.82,1540.54 1701.54,1544.92C1703.61,1546.33 1713.54,1552.24 1712.71,1556.23C1711.66,1561.28 1702.69,1563.33 1698.61,1564.77C1703.71,1575.85 1704.71,1574.09 1715.05,1585.13C1709.91,1588.41 1706,1590.9 1700.59,1594.35C1702.01,1595.22 1715.61,1602.61 1715.41,1606.63C1714.19,1631.94 1712.96,1633.62 1706.7,1654.79C1711.36,1661.29 1716.59,1667.43 1720.6,1674.35C1726.17,1683.94 1708.31,1680.79 1710.93,1690.98C1712.85,1690.27 1714.74,1689.58 1715.39,1689.34C1723.12,1695.39 1730.66,1703.25 1740.31,1705.02C1744.63,1705.81 1758.97,1686.99 1749.67,1682.37C1750.33,1671.53 1762.48,1665.58 1758.37,1653.9C1761.91,1653.48 1764.34,1653.2 1766.47,1652.95C1766.96,1647.26 1767.4,1642.12 1767.95,1635.89C1770.47,1646.37 1771.15,1669.88 1780.99,1665.48C1778.45,1648.09 1775.05,1630.8 1773.45,1613.3C1773.13,1609.76 1774.3,1606.07 1773.96,1602.53C1767.82,1539.22 1765.24,1475.03 1760.48,1411.1C1759.62,1399.49 1759.89,1400.34 1758.83,1388.14C1758.54,1384.85 1753.22,1351.48 1756.93,1345.49C1757.13,1345.17 1756.66,1344.42 1756.48,1343.87C1752.11,1330.77 1755.06,1315.39 1748.58,1303.19C1748.5,1303.04 1748.61,1302.8 1748.58,1302.62C1748.45,1302.01 1738.96,1273.98 1743.62,1268.77C1743.81,1268.55 1743.58,1267.68 1743.28,1267.35C1735.17,1257.96 1736.69,1226.61 1735.03,1216.18C1734,1209.69 1726.13,1202.84 1729.58,1197.25C1719.17,1194.83 1638.34,1175.63 1637.81,1175.6C1602.67,1173.41 1563.52,1150.63 1530.59,1141.46C1505.61,1134.5 1480.1,1129.45 1454.51,1125.26C1436.62,1122.33 1418.49,1120.54 1400.36,1120.12C1396.56,1120.03 1390.82,1120.15 1389.55,1123.73C1387.79,1128.7 1395.32,1134 1393.66,1139C1382.01,1125.13 1376.87,1135.29 1375.86,1146.55C1374.1,1166.1 1380.59,1196.64 1371.77,1215.78C1367.96,1224.12 1374.77,1251.52 1376,1259.36C1380.15,1285.82 1384.85,1312.21 1387.85,1338.83C1397.37,1423.16 1404.81,1507.71 1413.57,1592.13C1416.11,1616.68 1418.96,1641.2 1421.76,1665.73C1422.98,1676.38 1428.24,1687.28 1425.6,1697.67C1418.49,1725.49 1437.1,1762.42 1439.65,1790.29C1448.75,1792.92 1449.69,1776.75 1452.48,1774.3C1472.81,1756.45 1491.29,1749.9 1516.01,1740.22C1514.25,1737.63 1513.15,1736.63 1512.82,1735.43C1507.51,1715.93 1554.45,1729.45 1561.2,1730.77C1561.53,1730.24 1561.85,1729.7 1562.17,1729.17C1557,1721.07 1542.3,1718.78 1534.05,1716C1534.3,1713.29 1534.72,1711.55 1534.57,1709.86C1531.27,1673.13 1517.18,1635.8 1514.8,1599.81C1513.95,1587.08 1507.51,1578.33 1520.4,1568.91C1510.14,1558.68 1506.45,1521.3 1506.4,1508.7C1506.38,1504.75 1505.86,1498.98 1509.4,1497.23C1505.18,1486.92 1505.69,1487.61 1502.93,1477.59C1502.6,1476.39 1501.8,1475.31 1501.52,1474.1C1494.59,1445.07 1492.68,1419.46 1490.1,1390.24C1487.89,1365.18 1485.58,1340.57 1481.8,1315.63C1554.82,1334.57 1626.42,1357.6 1700.53,1373.72C1700.5,1374.45 1700.47,1375.18 1700.43,1375.91C1693.46,1378.05 1686.49,1380.2 1678.73,1382.58M1224.71,1780.53C1235.36,1785.68 1247.8,1786.53 1258.33,1791.93C1287.05,1806.63 1292.22,1822.15 1323.29,1833.14C1345.2,1840.89 1345.9,1827.76 1367.31,1829.33C1379.22,1830.2 1398.16,1846.97 1409.92,1833.35C1414.91,1827.58 1417.68,1820.21 1421.54,1813.62C1417.81,1810.47 1414.13,1807.35 1410.52,1804.29C1420.71,1778 1406.69,1740.02 1404.81,1712.35C1400.71,1652.4 1388.64,1593.14 1384.98,1533.16C1384.51,1525.49 1401.45,1510.45 1400.6,1502.58C1381.14,1492.37 1380.77,1490.69 1379.74,1468.41C1378.35,1438.03 1372.8,1407.97 1370.47,1377.65C1369.84,1369.49 1374.24,1360.56 1370.88,1353.1C1368.5,1347.83 1371.66,1341.5 1371.06,1335.74C1370.34,1328.89 1368.43,1322.18 1368.05,1315.3C1363.75,1238.51 1363.23,1239.51 1354.22,1163.77C1352.63,1150.45 1359.15,1138.2 1348.41,1126.31C1346.53,1124.22 1342.89,1127.48 1340.26,1128.46C1317.38,1137.06 1294.02,1144.6 1271.92,1155.03C1223.39,1177.94 1176.77,1204.71 1128.62,1228.4C1104.02,1240.5 1064.94,1252.7 1042.31,1268.99C1033.04,1275.66 1039.76,1286.29 1039.16,1294.05C1037.11,1320.5 1035.51,1347 1035.05,1373.52C1034.81,1387.83 1035.69,1402.17 1037.04,1416.42C1037.54,1421.65 1044.05,1435.74 1040.59,1431.78C1031.77,1469.01 1052.52,1504.82 1055.84,1540.9C1057.14,1555.02 1051.79,1569.15 1052.56,1583.3C1054.83,1624.56 1070.28,1749.41 1082.87,1789.15C1085.47,1797.39 1109.09,1789.4 1112.12,1791C1125.32,1797.93 1134.42,1811.07 1147.2,1818.77C1169.25,1832.06 1190.55,1804.44 1204.45,1793.91C1210.9,1789.03 1219.17,1786.43 1224.71,1780.53M1281.49,2700.8C1316.72,2720.34 1359.17,2711.95 1396.96,2713.29C1415.06,2713.93 1433.03,2718.96 1451.11,2717.87C1467.3,2716.89 1483.34,2699.95 1499.89,2699.95C1499.89,2691.26 1499.94,2691.33 1506.67,2686.29C1515.53,2679.61 1517.59,2666.96 1523.02,2657.28C1515.67,2652.68 1492.16,2643.48 1494.94,2631.77C1445.37,2640.58 1445.5,2632.11 1394.93,2636.3C1367.76,2638.56 1377.45,2674.91 1355.13,2683.53C1322.93,2695.98 1289.45,2671.57 1259.63,2666.27C1245.41,2663.75 1240.89,2654.77 1233.03,2645.15C1245.03,2643.78 1257.25,2642.63 1269.23,2644.08C1289.18,2646.51 1294.95,2659.74 1316.47,2655.97C1323.72,2654.69 1321.7,2668.66 1321.73,2669.39C1340.45,2666.99 1355.7,2664.76 1369.63,2650.33C1375.57,2644.17 1375.69,2633.33 1382.45,2628.11C1397.97,2616.13 1418.52,2621.88 1435.54,2620.77C1450.84,2619.77 1450.12,2592.99 1447.36,2584.89C1443.85,2574.59 1434.55,2566.83 1431.37,2556.41C1429.8,2551.29 1434.68,2545.8 1433.79,2540.52C1432.94,2535.49 1426.85,2532.18 1426.44,2527.1C1424.34,2501.52 1432.66,2493.39 1445.08,2472.78C1423.67,2454.75 1431.37,2368.7 1430.73,2356.29C1429.82,2338.37 1432.85,2324.96 1420.99,2309.32C1416.19,2302.99 1406.26,2301.66 1401.94,2294.99C1385.1,2269.04 1371.36,2241.12 1358.49,2212.99C1346.68,2187.17 1373.45,2166.46 1383.65,2147.01C1394.87,2125.63 1390.94,2123.89 1382.13,2103.22C1418.67,2053.97 1437.71,2001.95 1452.6,1943.21C1447.73,1924.09 1455.19,1872.66 1427.68,1886.17C1422.41,1861.84 1457.57,1862.19 1468.99,1854.26C1484.05,1843.8 1491.63,1817.36 1512.81,1814.67C1519.6,1813.79 1523.75,1805.35 1530.51,1804.24C1537.96,1803.01 1545.3,1807.7 1552.85,1808.08C1572.68,1809.08 1581.27,1802.78 1601.02,1808.92C1626.34,1816.8 1630.61,1851.57 1658.92,1854.2C1678.1,1855.99 1697.69,1849.71 1713.89,1839.99C1719.08,1836.87 1721.55,1829.85 1727.17,1827.6C1752.06,1817.81 1757.04,1812.37 1784.39,1818.96C1787.44,1819.7 1791.51,1822.75 1790.85,1825.82C1789.42,1832.38 1805.01,1830.58 1810.96,1827.44C1828.33,1818.29 1836.44,1809.31 1845.43,1792C1864.94,1754.48 1885.73,1713.61 1883.87,1669.83C1882.56,1638.9 1882.31,1630.38 1891.89,1600.72C1894.96,1591.22 1901.74,1582.98 1903.7,1573.19C1915.52,1514.25 1911.28,1449.31 1941.08,1394.66C1938.19,1390.77 1907.82,1406.6 1907.01,1408.02C1902.99,1415.08 1907.72,1424.81 1904.51,1432.28C1892.65,1459.91 1864.46,1481.69 1862.76,1513.85C1860.67,1552.51 1837.07,1593.13 1829.1,1630.07C1822.05,1662.72 1829.38,1764.27 1765.23,1755.2C1750.57,1753.12 1751.53,1759.52 1736.52,1757.94C1725.33,1756.76 1684.85,1772.09 1673.89,1771.99C1651.95,1771.77 1592.53,1756.31 1571.1,1753.54C1545.3,1750.21 1530.06,1769.5 1507.9,1778.55C1496.03,1783.4 1482.21,1782.81 1470.74,1788.57C1436.84,1805.6 1447.76,1856.05 1410.25,1869.26C1391.64,1875.82 1370.03,1865.69 1351.62,1874.56C1340.56,1868.6 1334.35,1855.9 1323.7,1849.22C1306.25,1838.26 1286.01,1832.37 1268.12,1822.13C1266.26,1821.07 1256.38,1804.49 1251.13,1807.31C1224.27,1821.75 1242.08,1871.43 1239.74,1890.18C1236.72,1914.44 1225.37,1937.17 1222.44,1961.44C1217.81,1999.46 1276.89,1979.63 1292.52,2001.46C1302.59,2015.51 1306.43,2033.19 1315.05,2048.18C1323.64,2063.16 1342.21,2077.4 1345.64,2095.7C1348.71,2112.14 1342.58,2142.12 1319.57,2140.41C1305.85,2139.39 1308.21,2130.36 1296.42,2126.2C1297.09,2127.19 1297.76,2128.18 1298.42,2129.18C1296.04,2130.63 1293.66,2132.08 1291.03,2133.68C1294.35,2138.03 1298.21,2143.08 1302.65,2148.91C1292.98,2152.72 1279.89,2162.25 1278.06,2141.06C1272.92,2141.06 1268.25,2141.06 1263.38,2141.06C1264.88,2150.65 1269.46,2157.3 1276.55,2161.37C1273.47,2165.88 1270.44,2170.32 1266.67,2175.83C1254.19,2160.44 1257.93,2135.45 1257.46,2118.15C1257.25,2110.5 1258.25,2100.64 1247.54,2098.23C1246.7,2098.04 1245.67,2096.67 1245.53,2095.73C1244.8,2090.65 1244.32,2085.53 1243.58,2078.92C1246.93,2081.07 1256.59,2088.82 1261.5,2087.83C1259.2,2080.25 1256.95,2072.85 1254.45,2064.58C1264.67,2069.25 1270.6,2078.84 1281.3,2080.33C1281.58,2074.52 1281.79,2069.92 1282.07,2063.99C1298.36,2079.13 1296.33,2106.03 1308.04,2123.18C1314.73,2132.98 1333.27,2135.19 1331.07,2119.58C1326.48,2087.03 1322.82,2073.12 1302.31,2046.87C1279.55,2031.45 1257.53,2014.93 1234.45,2000C1227.65,1995.6 1211.38,1988.8 1210.36,1996.83C1207.25,2021.25 1172.24,2019.84 1157.63,2028.23C1146.27,2034.74 1138.22,2052.33 1135.8,2064.26C1134.42,2071.08 1139.8,2086.07 1132.84,2092.3C1139.61,2135.35 1147.61,2133.86 1157.01,2176.16C1161.14,2194.77 1161.7,2214.06 1165.75,2232.69C1170.19,2253.11 1193.29,2259 1202.41,2276.37C1206.5,2284.17 1204.64,2293.89 1206.85,2302.43C1211.92,2322.09 1219.24,2341.14 1224.2,2360.84C1229.8,2383.08 1233.74,2405.7 1238.49,2428.14C1239.91,2434.84 1242.32,2438.5 1236.75,2444.46C1213.67,2404.97 1214.41,2357.24 1198.82,2315.25C1169.3,2235.75 1155.39,2242.54 1126.46,2162.28C1121.69,2149.03 1125.56,2116.47 1124.06,2103.1C1122.76,2091.39 1114.33,2088.31 1118.52,2075.5C1133.35,2030.15 1142.47,2024.23 1169.2,1985.59C1185.98,1961.32 1210.86,1934.47 1203.83,1901.74C1203.17,1901.37 1202.5,1900.99 1201.84,1900.62C1217.01,1889.73 1226.45,1886.25 1232.81,1867.15C1209.17,1863.91 1204.96,1863.31 1202.92,1839.43C1183.92,1850.24 1188.69,1860.52 1174.98,1875.43C1172.78,1877.82 1168.62,1880.54 1165.86,1878.83C1156.49,1873 1158.94,1854.51 1145.25,1853.58C1125.26,1852.25 1125.47,1849.83 1104.81,1855.54C1100.29,1846.42 1094.49,1842.1 1090.85,1844.83C1090.48,1846.27 1090.08,1847.85 1089.58,1849.77C1075.5,1849.77 1077.8,1876.73 1080.08,1882.6C1085.1,1895.51 1096.07,1905.74 1100.21,1918.95C1106.4,1938.68 1105.4,1984.75 1103.55,2004.78C1103.28,2007.77 1104.17,2010.87 1104.53,2013.92C1103.97,2014.14 1103.41,2014.37 1102.85,2014.6C1097.9,2007.94 1097.38,2002.36 1088.63,2004C1094.77,2018.67 1095.56,2019.36 1090.81,2034.75C1086.45,2049.39 1079.7,2063.32 1076.34,2078.21C1075.52,2081.82 1079.87,2085.64 1078.54,2089.1C1077.26,2092.4 1075.26,2095.65 1074.9,2099.06C1073.43,2113.11 1067.46,2148.49 1071.72,2162.82C1078.42,2185.36 1090.48,2205.95 1099.9,2227.49C1101.51,2231.18 1109.83,2246.6 1106.51,2251.64C1103.04,2256.91 1093.57,2256.03 1090.31,2261.43C1086.97,2266.94 1102.31,2277.52 1096.29,2279.81C1085.75,2283.9 1098.08,2304.48 1096.48,2310.85C1094.37,2319.18 1088.06,2364.34 1109.28,2360.97C1092.5,2392.43 1113.24,2428.42 1119.01,2458.74C1122.77,2478.51 1119.89,2511.91 1127.87,2531.17C1141.14,2563.18 1157.32,2566.06 1178.99,2590.88C1199.04,2613.85 1198.71,2627.61 1224.25,2646.07C1216.87,2662.36 1223.79,2690.81 1235.61,2703.29C1240.66,2708.62 1250.77,2706.3 1256.12,2711.33C1263.1,2717.89 1264.24,2729 1270.59,2736.18C1281.34,2748.34 1313.98,2772.14 1330.51,2775.48C1343.98,2778.21 1380.49,2766.47 1393.64,2766.88C1405.75,2767.25 1417.14,2773.58 1429.24,2774.13C1482.67,2776.57 1531.18,2746.54 1567.37,2709.91C1567.17,2708.96 1566.96,2708.01 1566.76,2707.06C1547.1,2699.59 1554.79,2687.33 1532.86,2682.7C1507.03,2677.26 1496.09,2723.61 1473.75,2730.56C1449.75,2738.03 1429.6,2712.6 1405.41,2719.91C1387.29,2725.39 1370.8,2735.68 1352.55,2740.69C1326.65,2747.81 1291.8,2720.76 1281.54,2700.68L1281.49,2700.8M1568.41,1502.1C1572.66,1502.97 1574.94,1507.24 1575.76,1511.12C1576.14,1512.92 1576.04,1516.17 1577.31,1517.77C1578.14,1518.8 1583.63,1522.39 1585.04,1522.46C1585.68,1522.49 1587.46,1519.1 1587.33,1518.67C1586.45,1515.58 1584.75,1512.72 1583.13,1509.27C1585.6,1506.23 1581.37,1503.3 1579.72,1501.56C1578.16,1499.91 1576.63,1498.23 1575.08,1496.56C1569.81,1490.89 1562.49,1481.64 1553.49,1485.02C1560.64,1493.88 1560.66,1493.76 1568.45,1502.15C1563.28,1500.45 1555.39,1495.37 1549.78,1495.97C1547.39,1496.23 1545.41,1497.96 1545.98,1500.56C1547.48,1501.01 1549.04,1501.25 1550.55,1501.66C1555.62,1503.05 1563.72,1507.14 1568.41,1502.1M1719.38,475.679C1716.04,466.754 1714.06,465.887 1708.58,468.733C1708.58,487.647 1705.77,503.397 1712.16,521.663C1718.98,541.175 1743,545.273 1758.03,554.221C1791.97,574.429 1826.79,593.433 1858.8,616.592C1871.63,625.877 1879.83,640.38 1891.65,650.917C1905.43,663.193 1927.46,671.359 1938.76,686.883C1954.19,708.086 1964.2,732.863 1979.23,754.354C1993.06,774.145 2013.36,784.072 2026.94,804.092C2053.44,843.165 2048.25,894.686 2050.9,938.644C2052.12,958.777 2057.8,978.92 2055.61,998.971C2053.41,1019.07 2069.76,1022.04 2072.63,1040.04C2077.72,1072.02 2064.67,1070.83 2062.96,1101.74C2061.79,1122.79 2072.55,1120.06 2074.61,1140.12C2076.19,1155.53 2075.96,1171.18 2074.27,1186.58C2070.96,1216.68 2040.1,1231.72 2024.08,1253.4C1999.5,1286.67 1989.45,1310.94 1987.53,1352.57C1985.95,1386.65 1984.83,1464.86 1974.72,1498.19C1971.26,1509.59 1944.3,1518.76 1939,1527.96C1928.8,1545.68 1917.9,1596.21 1917.29,1616.29C1915.92,1660.7 1924.74,1666.22 1934.51,1708.55C1936.17,1715.77 1939.66,1723.58 1937.27,1730.59C1948.42,1730.58 1954.01,1751.86 1957.4,1757.63C1996.84,1824.74 2001.44,1821.26 2032.33,1891.7C2036.48,1901.17 2041.86,1911.14 2041.1,1921.46C2040.27,1932.73 2038.81,1943.96 2037.58,1955.4C2047.15,1958.4 2042.85,1977.32 2043.25,1982.26C2045.51,2009.65 2047.52,2037.12 2051.78,2064.27C2055.2,2086.07 2064.56,2083.98 2064.1,2106.9C2063.56,2133.93 2052.6,2134.77 2054.77,2162.23C2056.57,2184.97 2065.62,2206.94 2065.93,2229.75C2066.19,2248.49 2047.79,2266.73 2040.6,2281.84C2027.28,2309.81 2028.64,2328.82 2005.42,2351.61C1991.67,2365.11 1973.18,2372.95 1958.74,2385.71C1934.63,2407.01 1932.94,2447.97 1925.63,2475.53C1911.66,2528.39 1904.24,2593.22 1863.11,2634.83C1824.31,2674.09 1767.57,2670.55 1718.81,2686.36C1670.99,2701.87 1678.16,2715.42 1630.4,2731.71C1609.05,2738.99 1585.45,2738.38 1564.31,2746.24C1546.89,2752.71 1533.11,2766.74 1516.1,2774.22C1497.4,2782.43 1457.41,2789.07 1437.05,2787.33C1386.53,2783 1329.13,2795.77 1282.44,2767.97C1262.13,2755.87 1241.82,2742.91 1225.17,2726.13C1203.61,2704.4 1176.26,2645.87 1156.56,2622.89C1146.56,2611.22 1116.29,2601.14 1105.51,2590.7C1090.85,2576.48 1082.63,2550.77 1070.58,2534.92C1064.95,2527.52 1055.54,2523.34 1050.6,2515.47C1032.22,2486.25 1035.18,2468.73 1021.76,2437.67C1013.35,2418.2 991.549,2390.7 985.846,2369.79C969.772,2310.85 1001.3,2253.96 997.204,2194.98C992.544,2127.97 986.102,2062.2 983.375,1994.85C981.674,1952.76 1013.91,1919.84 1025.69,1882.07C1035.68,1850.05 1025.69,1804.35 1056.97,1780.42C1054.94,1779.5 1053.67,1778.92 1051.95,1778.14C1053.04,1777.47 1053.78,1776.88 1054.62,1776.52C1058.8,1774.76 1061.11,1768.99 1060.93,1764.45C1059.27,1721.94 1052.02,1679.81 1049.2,1637.36C1047.32,1609.13 1049.36,1580.69 1046.84,1552.51C1043.35,1513.43 1033.8,1516.14 1027.7,1477.74C1023.97,1454.23 1022.15,1430.43 1021.07,1406.66C1019.07,1362.75 1022.33,1318.61 1018.49,1274.83C1017.61,1264.84 1008.41,1277.63 1007.74,1278.48C1007.15,1274.67 1006.82,1272.58 1006.27,1269.02C1001.15,1271.11 996.346,1273.08 991.067,1275.24C984.555,1256.47 1006.45,1249.44 1014.16,1236.94C1024.16,1220.72 1017.49,1214.38 1016.58,1197.49C1016.34,1192.99 1015.45,1188.52 1014.84,1184.04C1012.33,1165.82 1015.96,1147.26 1015.51,1128.88C1014.13,1072.24 1012.21,1015.6 1009.35,959.021C1006.74,906.913 1003.81,854.811 1002.35,802.658C1001.66,777.821 1005.73,778.437 1009.95,754.371C1010.82,749.418 1014.22,743.298 1011.13,739.332C1005.99,732.743 995.222,733.123 989.021,727.525C974.305,714.241 972.175,700.702 972.175,681.975C972.537,682.012 973.65,682.121 973.671,682.121C981.452,657.693 962.979,570.102 962.096,565.871C962.058,565.692 961.808,565.542 961.804,565.371C961.308,546.687 962.463,546.87 954.979,529.221C954.779,528.746 953.892,528.571 953.667,528.096C950.007,520.459 933.933,511.526 935.592,500.417C937.668,486.508 946.15,474.336 950.771,461.054C963.846,423.474 976.292,389.314 976.292,348.763C990.979,364.259 1003.87,381.437 1016.13,398.921C1025.15,411.789 1025.59,427.963 1038.99,438.292C1040.63,439.555 1057.29,434.729 1058.71,435.588C1066.47,408.384 1113.14,401.755 1129.84,382.187C1131.1,383.28 1134.71,385.965 1134.34,384.346C1132.35,375.304 1152.61,367.223 1156.44,364.75C1176.05,352.113 1195.18,338.768 1214.7,325.996C1224.56,319.542 1234.61,318.679 1231.55,302.829C1240.05,303.125 1243.66,297.275 1246.23,289.846C1244.69,286.206 1244.43,284.445 1239.95,283.042C1234.47,281.298 1231.32,290.658 1226.81,294.233C1225.35,283.286 1228.11,268.359 1223.73,257.867C1239.01,227.399 1256.53,198.325 1272.88,168.429C1284.39,182.881 1295.66,197.54 1307.79,211.479C1311.7,215.977 1317.93,215.139 1317.47,223.238C1334.33,237.641 1347.95,253.09 1360.03,271.863C1357.28,273.15 1355.15,274.154 1353.02,275.154C1354.04,278.493 1355.12,276.724 1359.32,276.967C1360.22,287.122 1358.82,298.358 1363.87,307.213C1366.52,311.859 1373.97,310.907 1379.23,311.858C1395.4,314.78 1412.09,314.809 1428.02,318.808C1445.73,323.256 1448.72,333.545 1464.14,341.63C1488.44,354.369 1514.85,363.007 1538.52,376.871C1562.56,381.904 1576.55,405.316 1584.23,377.863C1587.7,381.96 1588.88,388.947 1593.96,390.708C1601.49,393.324 1602.15,376.714 1603.85,368.921C1608.67,346.753 1617.7,317.341 1615.94,294.108C1615.88,293.329 1616.06,292.513 1615.9,291.763C1614.97,287.537 1625.41,293.099 1627.93,296.613C1638.69,311.587 1643.98,329.964 1654.32,345.233C1679.81,382.893 1731.36,422.063 1719.38,475.679" style="fill:rgb(11,63,126);fill-rule:nonzero;"/>
        <path d="M1322.52,2416.62C1331.7,2438.22 1337.58,2452.37 1344,2474.98C1347.79,2488.3 1345.95,2493.13 1351.98,2505.88C1356.34,2515.08 1361.87,2523.68 1366.95,2532.5C1374.93,2533.76 1382.6,2555.99 1370.75,2555.68C1366.12,2551.2 1362.34,2545.69 1356.95,2542.16C1353.86,2540.13 1339.22,2537.14 1334.77,2533.1C1325.93,2525.09 1337.32,2516.93 1331.52,2509.19C1330.17,2507.4 1317.58,2491.27 1314.7,2502.99C1311.97,2514.02 1312.3,2525.6 1311.23,2536.92C1309.44,2555.88 1307.32,2561.38 1314.13,2579.75C1313.67,2580.02 1313.2,2580.28 1312.73,2580.54C1301.51,2560.19 1301.11,2541.57 1297.83,2520.16C1295.71,2506.3 1287.85,2491.93 1289.99,2477.36C1291.98,2463.8 1296.21,2465.34 1299.24,2452.05C1301.01,2444.26 1296.6,2439.96 1301.41,2432.51C1305.99,2425.44 1315.91,2421.01 1322.52,2416.62" style="fill:rgb(11,63,126);fill-rule:nonzero;"/>
        <path d="M1457.77,2585.66C1468.54,2591.59 1479.83,2596.54 1490.62,2602.44C1493.41,2603.97 1495.52,2606.66 1498.44,2607.91C1502.39,2609.6 1511.88,2607.86 1513.27,2614.28C1515.64,2625.28 1507.75,2634.77 1504.6,2644.49C1513.43,2643.12 1512.51,2658.8 1512.24,2662.84C1512.16,2664.03 1509.94,2667.28 1508.4,2667.18C1504.1,2666.91 1494.95,2663.19 1491.49,2660.72C1487.1,2657.58 1491.77,2649.31 1485.1,2648.21C1479.16,2647.23 1473.96,2654.83 1474.76,2660.13C1475.26,2663.46 1477.02,2666.55 1477.34,2669.91C1477.66,2673.37 1476.79,2676.85 1476.67,2680.32C1472.51,2677.45 1472.59,2671.74 1471.53,2667.45C1470.3,2662.46 1469.01,2657.48 1467.53,2652.55C1467.08,2651.14 1464.09,2652.5 1463.25,2653.71C1462.99,2654.09 1455.89,2670.89 1451.6,2664.94C1445.05,2655.87 1450.22,2650.68 1451.67,2640.27C1454.19,2622.13 1455.42,2603.82 1457.77,2585.66" style="fill:rgb(11,63,126);fill-rule:nonzero;"/>
        <path d="M1459.38,2381.72C1461.55,2386.28 1463.62,2390.6 1465.77,2395.1C1472.81,2395.28 1473.43,2389.03 1475.17,2383.81C1478.72,2386.58 1485.05,2390.52 1489.4,2391.87C1495.52,2393.76 1509.51,2393.36 1510.38,2402.97C1506.7,2401.72 1503.57,2400.67 1499.63,2399.34C1501.51,2415.2 1502.67,2431.43 1506.86,2446.94C1508.62,2453.44 1514.06,2458.43 1514.9,2465.25C1509.54,2463.58 1502.81,2460.64 1498.77,2456.52C1497.49,2455.22 1496.6,2453.42 1496.33,2451.61C1496.03,2449.47 1499.85,2443.25 1494.6,2443.41C1493.75,2443.43 1492.97,2443.99 1492.25,2444.45C1491,2445.24 1489.9,2446.23 1488.73,2447.14C1484.53,2440.89 1481.87,2432.28 1474.77,2428.34C1471.85,2426.72 1467.14,2425.31 1465.02,2429C1464.84,2429.3 1463.17,2429.22 1463.12,2429.05C1462.1,2425.49 1457.6,2424.4 1455.45,2422.09C1453.67,2420.18 1454.07,2417.26 1451.71,2415.69C1445.82,2411.77 1446.82,2423.09 1446.9,2424.63C1446.45,2424.85 1446,2425.07 1445.55,2425.29C1440.74,2421.57 1440.89,2421.57 1435.41,2418.76C1443.25,2406.64 1450.97,2394.71 1459.38,2381.72" style="fill:rgb(11,63,126);fill-rule:nonzero;"/>
        <path d="M1467.83,2534.81C1465.39,2527.32 1472.66,2520.35 1474.54,2514.01C1475.1,2512.14 1474.05,2510.09 1474.3,2508.15C1475.34,2500.03 1481.56,2490.89 1489.92,2489.05C1491.29,2488.76 1493.6,2490.49 1493.86,2491.78C1495.15,2498.12 1493.33,2498.2 1494.7,2504.48C1494.87,2505.25 1496.47,2508.48 1498.12,2507.64C1502.88,2505.23 1500.71,2491.29 1500.72,2491.24C1500.93,2488.79 1501.6,2486.39 1502.18,2484C1502.34,2483.35 1503.26,2482.75 1502.95,2482.17C1498.92,2474.6 1506.73,2475.8 1509.82,2472.26C1515.08,2498.52 1520.16,2523.88 1525.5,2550.49C1520.52,2550.15 1514.77,2550.69 1509.9,2549.18C1503.64,2547.24 1498.29,2542.95 1492.03,2541.01C1484.08,2538.54 1475.81,2537.2 1467.83,2534.81" style="fill:rgb(11,63,126);fill-rule:nonzero;"/>
        <path d="M1424.8,2292.64C1436.21,2291.8 1436.21,2291.8 1439.98,2301.6C1442.63,2301.57 1445.81,2302.72 1445.19,2297.63C1445.02,2296.23 1448.78,2294.8 1449.49,2294.67C1454.99,2293.69 1464.64,2291.37 1468.97,2297.21C1470.88,2299.78 1470.84,2304.42 1471.71,2307.27C1472.7,2310.51 1473.68,2313.78 1475.2,2316.8C1478.96,2324.25 1482.68,2326.74 1486.96,2333.83C1482.21,2336.37 1482.11,2335.81 1476.74,2336.89C1475.81,2332.43 1475.09,2328.05 1473.8,2323.85C1473.18,2321.86 1470.05,2322.94 1469.03,2323.48C1466.94,2324.59 1464.91,2325.84 1463.03,2327.27C1460.71,2329.02 1462.12,2332.5 1461.35,2334.76C1459.25,2340.93 1450.37,2344.22 1444.56,2341.9C1441.86,2340.83 1441.12,2337.32 1439.86,2335.26C1436.38,2329.6 1432.95,2325.64 1429.98,2319.65C1425.84,2311.29 1425.96,2301.63 1424.8,2292.64" style="fill:rgb(11,63,126);fill-rule:nonzero;"/>
        <path d="M1455.06,2540.33C1461.58,2546.97 1468.24,2553.49 1474.62,2560.28C1474.76,2560.42 1474.34,2560.56 1474.17,2560.65C1473.82,2560.84 1473.47,2561.03 1473.08,2561.1C1470.6,2561.55 1468.09,2561.93 1465.58,2562.2C1462.68,2562.52 1459.45,2562.74 1456.79,2561.24C1455.27,2560.38 1455.1,2558.21 1455.07,2556.72C1454.98,2551.26 1455.06,2545.79 1455.06,2540.33" style="fill:rgb(11,63,126);fill-rule:nonzero;"/>
        <path d="M1435.78,2456.1C1438.83,2457.12 1443.8,2457.51 1445.82,2460.7C1447.62,2463.54 1443.26,2466.4 1440.84,2464.81C1439.25,2463.77 1438.7,2461.8 1437.91,2460.21C1437.22,2458.83 1436.51,2457.46 1435.78,2456.1" style="fill:rgb(11,63,126);fill-rule:nonzero;"/>
        <path d="M1448.7,2681.64C1446.06,2680.92 1446.02,2681.21 1443.62,2680.62C1442.93,2680.45 1442.02,2679.96 1441.99,2679.13C1441.97,2678.61 1442.08,2678.09 1442.15,2677.58C1442.24,2676.85 1442.34,2676.13 1442.48,2675.41C1442.76,2673.96 1443.14,2672.52 1443.41,2671.07C1448.63,2671.81 1446.11,2674.39 1448.7,2681.64" style="fill:rgb(11,63,126);fill-rule:nonzero;"/>
        <path d="M1433.4,2751.91C1428.23,2755.56 1426.13,2749.85 1422.48,2748.86C1424.33,2748.11 1426.81,2747.07 1428.58,2748.58C1430.19,2749.96 1430.03,2750.13 1431.73,2751.38C1432.04,2751.61 1432.4,2751.77 1432.74,2751.95C1432.87,2752.02 1433.36,2752.28 1433.4,2751.91" style="fill:rgb(11,63,126);fill-rule:nonzero;"/>
        <path d="M1528.67,2460.8C1528.17,2461.11 1527.67,2461.42 1527.16,2461.74C1525.89,2460.4 1523.07,2459.08 1523.92,2456.76C1524.07,2456.35 1524.29,2455.96 1524.5,2455.58C1524.97,2454.76 1525.56,2454.01 1525.99,2453.17C1529.7,2454.31 1527.77,2455.83 1528.67,2460.8" style="fill:rgb(11,63,126);fill-rule:nonzero;"/>
        <path d="M1474.35,2475.58C1473.12,2473.59 1471.89,2471.59 1470.66,2469.6C1472.26,2469.34 1474.13,2469.13 1475.55,2470.1C1476.61,2470.83 1476.44,2472.29 1476.39,2473.41C1476.37,2473.84 1476.42,2474.39 1476.08,2474.74C1475.62,2475.22 1474.92,2475.3 1474.35,2475.58" style="fill:rgb(11,63,126);fill-rule:nonzero;"/>
        <path d="M1293.21,1743.94C1289.88,1745.17 1286.55,1746.41 1283.22,1747.64C1281.23,1742.42 1285.5,1744.65 1292.65,1741.9C1292.83,1742.58 1293.02,1743.26 1293.21,1743.94" style="fill:rgb(35,31,32);fill-rule:nonzero;"/>
        <path d="M1295.74,1880.83C1293.65,1883.57 1292.26,1885.4 1290.71,1887.44C1288.12,1882.53 1288.68,1881.67 1295.74,1880.83" style="fill:rgb(11,63,126);fill-rule:nonzero;"/>
        <path d="M1657.93,1370.37C1664.01,1362.37 1675.23,1373.59 1680.28,1375.2C1709.38,1384.49 1738.82,1392.68 1768.27,1400.77C1787.16,1405.95 1800.64,1406.32 1819.03,1413.47C1827.99,1416.95 1821.64,1431.77 1812.96,1428.51C1797.91,1422.86 1783.66,1415.27 1768.77,1409.22C1755.44,1403.8 1741.95,1398.75 1728.32,1394.13C1708.35,1387.36 1676.83,1380.32 1657.93,1370.37" style="fill:rgb(11,63,126);fill-rule:nonzero;"/>
        <path d="M1826.05,1451.28C1817.38,1451.96 1754.81,1433.51 1750.63,1428.85C1756.61,1430.18 1762.49,1431.95 1768.53,1433C1774.48,1434.04 1780.49,1434.85 1786.52,1435.09C1795.16,1435.43 1804.39,1432.46 1813,1434.85C1818.39,1436.34 1824.68,1438.53 1825.84,1444.82C1826.23,1446.94 1826.26,1449.14 1826.05,1451.28" style="fill:rgb(11,63,126);fill-rule:nonzero;"/>
        <path d="M1643.67,1428.94C1611.86,1419.21 1580.82,1409.72 1549.89,1400.26C1555.8,1396.71 1638.25,1421.21 1643.67,1428.94" style="fill:rgb(11,63,126);fill-rule:nonzero;"/>
        <path d="M1601.06,1569.81C1589.48,1562.36 1578.59,1555.35 1567.71,1548.35C1567.88,1547.75 1568.05,1547.15 1568.23,1546.54C1572.67,1547.01 1577.06,1547.91 1581.49,1548.56C1587.83,1549.49 1597.22,1549.61 1600.3,1556.54C1602.18,1560.81 1601.5,1565.32 1601.06,1569.81" style="fill:rgb(11,63,126);fill-rule:nonzero;"/>
        <path d="M1638.81,1764.36C1639.36,1770.49 1639.6,1783.37 1639.41,1789.51C1639.27,1793.99 1636.08,1797.68 1636.23,1802.19C1636.37,1806.25 1637.21,1806.17 1638.32,1809.97C1636.57,1809.68 1635.97,1809.67 1635.96,1809.57C1635.27,1804.7 1630.64,1801.81 1627.84,1798.32C1625.77,1795.74 1627.67,1792.49 1630,1790.94C1632.36,1789.38 1634.82,1788 1637.22,1786.53C1634.78,1781.71 1632.17,1776.97 1630.02,1772.01C1629.63,1771.1 1630.12,1768.78 1631.01,1768.21C1633.45,1766.64 1636.19,1765.6 1638.81,1764.36" style="fill:rgb(11,63,126);fill-rule:nonzero;"/>
        <path d="M1636.71,1814.17C1636.43,1821.45 1636.03,1828.83 1639.15,1836.37C1633.46,1837.75 1628.5,1833.41 1624.21,1830.38C1621.83,1828.7 1619.45,1827 1617.04,1825.36C1614.62,1823.72 1612.13,1822.18 1609.7,1820.56C1612.93,1820.91 1616.11,1821.74 1619.36,1821.93C1626.28,1822.35 1631.35,1817.83 1636.71,1814.17" style="fill:rgb(11,63,126);fill-rule:nonzero;"/>
        <path d="M1639.03,1858.27C1627.87,1857.06 1621.41,1848.28 1612.31,1844.18C1616.01,1843.68 1619.6,1842.52 1623.29,1841.92C1625.09,1841.64 1626.92,1841.55 1628.74,1841.55C1629.66,1841.55 1630.58,1841.73 1631.49,1841.93C1633.35,1842.35 1634.82,1842.9 1636.24,1844.23C1638.32,1846.17 1638.09,1849.39 1638.35,1851.9C1638.56,1854.03 1638.78,1856.15 1639.03,1858.27" style="fill:rgb(11,63,126);fill-rule:nonzero;"/>
        <path d="M1585.01,1579.79C1591.29,1578.98 1597.16,1578.09 1603.07,1577.56C1605.98,1577.3 1607.83,1580.78 1608.55,1582.95C1610.22,1587.96 1609.06,1588.25 1610.05,1593.34C1610.95,1597.94 1613.22,1602.48 1612.87,1607.3C1612.77,1608.67 1612.71,1610.05 1611.47,1611.68C1610.26,1607.81 1608.74,1606.06 1607.93,1602.04C1607.22,1598.48 1608.52,1598.45 1607.68,1594.89C1606.73,1590.87 1602.28,1589.12 1599.13,1587.4C1594.44,1584.84 1589.74,1582.29 1585.01,1579.79" style="fill:rgb(11,63,126);fill-rule:nonzero;"/>
        <path d="M1618.44,1717.44C1623.43,1710.25 1612.55,1707.75 1614.23,1701.93C1615.89,1698.79 1617.55,1695.65 1619.91,1691.18C1621.35,1696.83 1622.73,1702.51 1624.32,1708.12C1624.58,1709.06 1625.06,1709.93 1625.47,1710.82C1625.87,1711.69 1626.42,1712.5 1626.76,1713.39C1627.51,1715.37 1627.35,1719.65 1624.28,1719.18C1623.27,1719.03 1622.26,1718.83 1621.28,1718.54C1620.31,1718.24 1619.38,1717.82 1618.44,1717.44" style="fill:rgb(11,63,126);fill-rule:nonzero;"/>
        <path d="M1573.8,1517.42C1581.35,1517.42 1587.85,1517.42 1594.75,1517.42C1595.75,1521.77 1596.83,1526.47 1598.18,1532.34C1590.45,1525.72 1580.25,1525.62 1573.8,1517.42" style="fill:rgb(11,63,126);fill-rule:nonzero;"/>
        <path d="M1611.46,1675.04C1610.9,1669.16 1608.39,1663.29 1614.66,1659.1C1621.77,1666.96 1620.68,1672.7 1611.46,1675.04" style="fill:rgb(11,63,126);fill-rule:nonzero;"/>
        <path d="M1598.24,1503.16C1593.2,1498.2 1588.48,1493.55 1583.33,1488.48C1595.63,1488.63 1599.59,1492.53 1598.24,1503.16" style="fill:rgb(11,63,126);fill-rule:nonzero;"/>
        <path d="M1699.3,1443.22C1707.6,1445.73 1715.91,1448.23 1724.22,1450.73C1724.1,1451.2 1723.99,1451.66 1723.88,1452.13C1715.45,1450.1 1707.02,1448.07 1698.59,1446.04C1698.83,1445.1 1699.06,1444.16 1699.3,1443.22" style="fill:rgb(11,63,126);fill-rule:nonzero;"/>
        <path d="M1598.2,1638.42C1604.46,1638.71 1610.2,1640.1 1614.25,1645.09C1613.96,1645.71 1613.68,1646.34 1613.39,1646.96C1608.1,1644.65 1602.82,1642.34 1597.53,1640.03C1597.75,1639.5 1597.98,1638.95 1598.2,1638.42" style="fill:rgb(11,63,126);fill-rule:nonzero;"/>
        <path d="M1556.66,1373.98C1553.9,1374.16 1551.08,1374.87 1548.29,1374.38C1546.92,1374.15 1545.4,1373.74 1544.52,1372.56C1543.48,1371.15 1543.39,1369.31 1542.93,1367.7C1543.71,1367.8 1545.73,1367.8 1546.5,1368.01C1550.46,1369.07 1553.27,1371.84 1556.66,1373.98" style="fill:rgb(11,63,126);fill-rule:nonzero;"/>
        <path d="M1871.16,1762.81C1870.67,1763.02 1870.17,1763.23 1869.68,1763.44C1865.14,1758.84 1863.1,1753.15 1862.6,1746.8C1869.74,1744.41 1865.88,1750.54 1871.16,1762.81" style="fill:rgb(11,63,126);fill-rule:nonzero;"/>
        <path d="M1834.15,1495.85C1834.23,1497.88 1834.32,1499.9 1834.4,1501.92C1831.49,1501.64 1828.58,1501.35 1825.67,1501.06C1825.31,1495.57 1828.34,1497.68 1834.15,1495.85" style="fill:rgb(11,63,126);fill-rule:nonzero;"/>
        <path d="M1562.12,1432.35C1558.71,1432.35 1555.55,1432.54 1552.14,1432.22C1551.92,1432.2 1551.72,1432.05 1551.57,1431.88C1550.6,1430.81 1550.84,1430.56 1550.01,1429.39C1551,1428.71 1551.98,1427.56 1553.33,1427.63C1553.83,1427.65 1554.33,1427.76 1554.82,1427.9C1555.73,1428.18 1556.59,1428.64 1557.51,1428.9C1558.86,1429.27 1561.99,1429.12 1562.16,1431.26C1562.19,1431.63 1562.16,1431.99 1562.12,1432.35" style="fill:rgb(11,63,126);fill-rule:nonzero;"/>
        <path d="M1625.83,1865.3C1622.67,1865.63 1619.52,1865.95 1616.37,1866.28C1616.28,1865.42 1616.18,1864.57 1616.09,1863.72C1622.54,1863 1625.69,1859.39 1625.83,1865.3" style="fill:rgb(11,63,126);fill-rule:nonzero;"/>
        <path d="M1838.8,1527.65C1836.15,1526.45 1834.41,1525.67 1831.72,1524.47C1834.13,1522.44 1835.62,1521.19 1837.76,1519.39C1838.11,1522.18 1838.35,1524.05 1838.8,1527.65" style="fill:rgb(11,63,126);fill-rule:nonzero;"/>
        <path d="M1645.26,1428.15C1652.82,1429.97 1656.79,1427.16 1655.49,1432.6C1651.92,1431.75 1648.36,1430.89 1644.8,1430.03C1644.95,1429.4 1645.1,1428.78 1645.26,1428.15" style="fill:rgb(11,63,126);fill-rule:nonzero;"/>
        <path d="M1832.12,1318.39C1831.24,1317.79 1830.3,1317.3 1829.39,1316.76C1828.95,1316.5 1828.09,1316.21 1828.1,1315.53C1828.11,1315.03 1828.18,1314.53 1828.27,1314.04C1828.37,1313.54 1828.51,1313.05 1828.66,1312.56C1828.97,1311.56 1829.36,1310.59 1829.65,1309.59C1833.72,1310.96 1831.38,1312.61 1832.12,1318.39" style="fill:rgb(11,63,126);fill-rule:nonzero;"/>
        <path d="M1396.63,920.954C1391.75,917.475 1386.86,913.996 1381.98,910.513C1382.42,909.887 1382.88,909.262 1383.33,908.637C1388.17,912.129 1393.03,915.621 1397.88,919.113C1397.46,919.725 1397.05,920.342 1396.63,920.954" style="fill:rgb(11,63,126);fill-rule:nonzero;"/>
        <path d="M1403.78,839.4C1400.78,836.088 1397.77,832.779 1394.67,829.362C1399.78,827.029 1402.52,829.767 1403.78,839.4" style="fill:rgb(11,63,126);fill-rule:nonzero;"/>
        <path d="M1865.83,2230.75C1862.97,2228.7 1860.39,2227.56 1857.82,2225.09C1855.1,2222.47 1854.87,2217.94 1856.83,2214.82C1857.92,2213.09 1858.83,2213.64 1859.49,2211.55C1860.66,2207.84 1861.47,2204.03 1862.43,2200.27C1871.39,2207.74 1872.5,2223.81 1865.83,2230.75" style="fill:rgb(11,63,126);fill-rule:nonzero;"/>
        <path d="M1869.85,2146.83C1865.97,2146.75 1863.7,2142.84 1863.66,2139.35C1863.52,2128.78 1863.65,2118.21 1863.65,2107.64C1864.2,2107.63 1864.76,2107.61 1865.31,2107.59C1866.83,2120.68 1868.34,2133.78 1869.85,2146.83" style="fill:rgb(11,63,126);fill-rule:nonzero;"/>
        <path d="M2061.72,2082.05C2067,2080.59 2067.72,2081.5 2066.52,2088.24C2065.06,2086.35 2063.59,2084.46 2061.72,2082.05" style="fill:rgb(11,63,126);fill-rule:nonzero;"/>
        <path d="M1652.96,2250.27C1646.74,2254.72 1633.1,2247.98 1631.43,2240.3C1640.49,2239.73 1646.13,2246.33 1652.96,2250.27" style="fill:rgb(11,63,126);fill-rule:nonzero;"/>
        <path d="M1467.55,618.204C1466.06,617.718 1465.29,617.587 1463.84,616.993C1463.2,616.731 1462.4,616.273 1461.95,615.738C1461.68,615.431 1461.47,615.076 1461.31,614.704C1460.85,613.621 1460.68,611.994 1461.88,611.296C1462.17,611.131 1462.47,610.995 1462.79,610.901C1463.11,610.808 1463.43,610.757 1463.76,610.738C1465.66,610.631 1467.85,611.799 1468.44,613.698C1468.62,614.289 1468.62,615.103 1468.5,615.703C1468.32,616.618 1467.99,617.389 1467.55,618.204" style="fill:rgb(11,63,126);fill-rule:nonzero;"/>
    </g>
</svg>
