<?xml version="1.0" encoding="UTF-8" standalone="no"?>
<!DOCTYPE svg PUBLIC "-//W3C//DTD SVG 1.1//EN" "http://www.w3.org/Graphics/SVG/1.1/DTD/svg11.dtd">
<svg width="100%" height="100%" viewBox="0 0 566 569" version="1.1" xmlns="http://www.w3.org/2000/svg" xmlns:xlink="http://www.w3.org/1999/xlink" xml:space="preserve" xmlns:serif="http://www.serif.com/" style="fill-rule:evenodd;clip-rule:evenodd;stroke-linejoin:round;stroke-miterlimit:1.41421;">
    <path id="path3351" d="M335.4,568.3C310.4,565.3 286.4,565.7 262,558.3C259.3,557.5 257.3,555.3 254.7,554.1C251.7,552.7 248.4,551.5 245.2,550.1C232.4,544.8 219,539.9 206.6,533.5C190.7,525.2 175.3,516.2 159.6,507.7C145.998,500.466 132.121,493.761 118,487.6C106.2,482.4 92.2,478.1 81.6,470.6C60.3,455.3 46.7,427.6 35,405.1C27,390.1 21.8,373.5 16.8,357.1C6.8,324.4 -2.3,291.8 0.5,257.1C1.8,240.9 6.5,224.8 10.6,209.4C17.428,182.191 26.941,155.728 39,130.4L62,83.6C72.3,62.3 83.8,40.4 102.5,25.1C107.768,21.597 113.209,18.36 118.8,15.4C153.1,-2.6 192.4,-0.8 230.1,1.2C239.7,1.7 249.3,2.6 258.9,3.5C293.112,7.018 326.725,14.951 358.9,27.1C362.9,28.5 391.2,43.5 396.7,46.3C403.7,49.8 411,52.6 417.7,56.5C424.3,60.3 422.5,62.4 428.6,66.9C439.6,75.1 452.8,79.5 463.7,88C490.8,109 518.5,134.8 535.6,165.2C546.394,184.461 554.471,205.124 559.6,226.6C565.2,249.8 567.2,274.6 565.2,298.4C564.2,310.6 561.5,322.6 559.6,334.7C556.1,357.5 552.9,381.7 546.6,404C545.4,408.4 543.6,412.5 542.3,416.8C539.9,423.7 538.6,431.1 535.2,437.5C529.9,447.6 523.2,456.9 517.6,466.8C502.8,493.3 484.1,516.9 457.6,532.4C449.7,536.9 440.3,537.2 432.1,540.7C425.3,543.7 426.4,545.4 419.7,548.7C413.3,551.7 406.3,553.3 399.6,555.6C380.2,562.1 356.4,570.8 335.4,568.3M301,454.9C300.8,476.9 297.3,498.9 297.1,521C297.1,532.6 295.8,532.4 295.6,544C295.6,547.6 293.2,552.5 296,554.5C300.6,557.8 307,555.7 312.6,556.2C322.9,557.2 333.2,558.5 343.6,558.8C359.3,559.2 376.4,552.4 391.2,547.8C401.2,544.6 411.4,542.3 420.9,538.1C425.3,536.1 429.1,532.9 433.4,530.4C434.5,529.8 437.5,529 436.6,528C434.6,525.8 426.9,523 426.3,519.6C424.8,511.5 425.3,503 424.7,494.8C424.7,493.8 424,492.8 424.4,491.8C426,488.3 432.1,491.4 435.9,491.8C441.3,492.5 446.8,493 452.2,493.4C453.1,493.4 459.8,492.9 461.5,494.6C464.5,497.6 462.5,509.2 463,512.6C463.1,513.5 463.7,514.9 464.4,514.6C471.278,510.288 477.681,505.26 483.5,499.6C489.7,493.3 493,486.6 497.5,479.1C499,476.4 501,473.9 502.2,471C502.9,469 503.6,456.6 503.6,456.3C504.239,435.021 503.236,413.725 500.6,392.6C500.4,391.6 499.6,390.6 498.6,390.4C455.7,385.1 412.3,394.7 369.5,391.6C363.7,391.1 358.2,388.3 352.5,387.6C347.5,386.9 327.6,386.6 322.9,386.6C318.9,386.6 310.5,386.6 306.2,387.8C304.8,388.2 304.9,390.6 304.9,391.5L303.9,403.9C302.9,420.9 301.1,437.9 300.9,454.9M404.1,495.9L405.8,497.6L405.4,509C405.192,513.249 404.792,517.487 404.2,521.7C402,530.9 390.7,527.7 384.3,527C381.8,526.7 375.8,526.7 374.8,523C374.5,522 374.6,520.9 374.6,519.7L375.2,501.3C375.3,499.3 374.6,496.6 376,495.1C377.3,493.5 380,493.9 382,493.6C388.7,492.6 392.8,492.6 399.4,493.6C400.9,493.8 403,494.8 404.1,495.9M380.4,509.1L379.4,516.6L380.9,518.1C382.4,519.6 385.3,520.4 387.1,520.8C389.1,521.2 391.1,521.6 393.1,521.8L394.7,521.7C399.6,520.4 398.7,514.7 398.9,510.7C398.9,508.7 399.1,504.5 398.3,502.2C397.7,500.5 396.4,499.5 394.8,498.8C390.837,497.036 386.207,497.615 382.8,500.3C380.7,501.9 380.5,507.7 380.4,509.1M330.9,525.8C326.1,524.8 322.2,523.8 317.2,524C316.4,524 312.9,524.8 311.9,523.2C310.9,521.6 311.6,514.9 311.7,514.4C311.7,511.6 311.8,508.8 311.6,506C311.4,504 309.7,502.2 308.8,500.6C308.5,499.9 308.2,499 308.8,498.4C309.8,497.4 310.8,496.5 311.9,495.9C313.9,494.9 316.2,493.9 318.4,493.5C325.344,492.405 332.393,492.136 339.4,492.7C340.6,492.8 341.9,493.2 343.1,493.7C349.9,496.8 347.5,506.5 346.1,512.1C345.8,513.5 344.4,523.1 340.8,524.7C339.4,525.3 337.8,525.6 336.3,525.7C334.515,526.005 332.695,526.038 330.9,525.8M337.7,519.1C340.9,515.8 341.4,510.1 341.4,505.8C341.473,504.013 340.945,502.252 339.9,500.8C338.2,498.7 334.2,498.2 331.9,497.8C328.9,497.4 325.2,497 322.3,497.1C321.5,497.1 320.5,497.4 320,498.1C318.5,500.1 319,506.1 319,507.4C319.1,510.5 319,513.6 319.5,516.8C319.5,517.7 321.3,518.5 321.8,518.8C324,519.6 326,518.9 328.2,519.2C331.6,519.5 334.8,522.1 337.7,519.2M363,471.2C355.4,469.4 355.6,468.4 347.8,468.1C343.5,467.9 331.8,469.6 327.7,469.7C326.1,469.7 314.8,470.2 311.7,467.3C308.2,464.2 308.7,453.8 308.6,451.4C308.6,447.6 308.6,443.7 309.1,439.9C310.1,433.9 312.1,434.6 312.7,428.4C313.1,422.7 310.7,417.2 313.5,411.9C317.1,404.7 327.7,405.2 334.5,404.9C336.3,404.7 347.1,403.9 350.1,406.5C351.1,407.4 351.1,409 351.1,410.3C351.1,418.1 345.1,427.9 355.3,430C355.956,430.169 356.644,430.169 357.3,430C360.3,429 358.9,423.9 359,420.8C359,419 358.3,406.4 363.3,406.5C366.6,406.5 370,407.2 373.3,407.9C377,408.8 380.7,409.6 384.2,411.2C386.1,412.1 385.7,416.6 385.7,417.7C385.3,422.7 384.6,427.7 384.3,432.7C383.8,439.7 383.6,446.7 383.3,453.8C383,462.4 384.3,471.8 373,472C369.7,472 366.2,472 363,471.3M377.2,462.8C377.2,460.8 376.6,458.5 375.9,456.6C375.8,456.3 375.7,455.9 375.4,455.8C375.2,455.7 374.9,456 374.6,456.1C373.7,456.5 372.1,457.9 371,457.4C369.3,456.7 369.8,454.6 369.3,453.1C369.2,452.7 368.7,452.1 368.3,452.7L367.7,453.7C367.4,454.7 367.1,455.5 367.3,456.5C367.5,457.5 368.3,458.2 369,458.8C370.5,460.1 372.5,461.6 374.2,462.6C374.6,462.8 377.2,464.6 377.2,462.8M331.2,458.7C331.9,457.5 333.2,451.5 333.2,451C333.4,450.7 334.8,446 334.2,444.2C333.576,442.683 332.215,441.587 330.6,441.3C329.8,441.3 328.4,441.3 328.1,442.3C326.7,446 326.3,450.1 325.3,454C325.2,454.6 324.5,456.2 324.5,457C324.5,457.6 325.2,458.4 325.6,458.7C327.1,460.1 329.8,460.9 331.1,458.7M356.1,459.2C356.9,458.3 356.8,456.8 357.1,455.6C358.014,451.114 358.615,446.569 358.9,442C358.9,440.8 359.2,439.6 358.9,438.5C358.6,437.9 357.8,437.7 357.1,437.5C355.429,437.162 353.696,437.301 352.1,437.9C351.2,438.2 350.4,438.7 349.7,439.1C349.5,439.2 348.7,439.8 349.1,440.2C349.6,441 350.4,441.7 351.1,442.4L353.6,444.8L353.2,451.6C353.2,452.1 352.6,457.6 353.5,459.2C354.2,460.5 355.2,460 356,459.2M344.6,456.7C345.306,454.429 345.375,452.007 344.8,449.7C344.3,448.6 343.2,449.7 342.9,450.4C342.2,452.4 342.1,454.4 342.3,456.4C342.3,456.8 342.3,457.7 342.7,458.1C343.5,458.9 344.5,457.1 344.7,456.7M318.4,446.7C318.4,446 318.2,445.1 317.6,444.7C317,444.1 316.6,445 316.6,445.5L316.6,446.4C316.66,447.276 316.794,448.146 317,449C317.2,449.6 317.7,449.8 318,449.3C318.4,448.5 318.5,447.5 318.4,446.6M377,434.3C378.9,432.9 378.3,426.3 378.3,426C378.3,424 378.8,419.4 377.7,417C376.9,415.3 374.9,415.4 373.3,415.3C372.3,415.3 370.2,415 369.3,415.9C368.3,416.7 367.7,419.4 367.6,420.3C367.3,421.3 367.2,422.4 367.1,423.4C366.8,428.2 369.8,429.9 373,432.9C374.5,434.3 375,435.7 377,434.3M339.5,428.8C341.1,427.1 341.9,422.4 342.3,420.6C342.5,419.3 342.8,418 342.8,416.6C342.8,415.6 342.6,414.6 342.3,413.7C341.8,412 339.7,411.4 338.2,411.7C334.588,412.265 330.988,412.898 327.4,413.6C326.4,413.8 322.3,414.6 320.9,415.5C320.4,415.7 320.1,416.8 320.1,417.2C319.9,420.1 320.1,424.5 320.5,427.2C320.8,428.4 322.3,428.9 323.2,429.2C327.7,430.2 332.8,429.8 337.3,429.5C337.9,429.5 339,429.3 339.5,428.8M427.7,445.9C425.7,445.1 423,444.1 422,441.9C419.3,435.9 421.5,426.6 420.3,420.5C419.8,418.2 415.4,417.5 417.3,414.3C419.1,411.1 424.1,412 427.6,411.4C433.474,410.367 439.438,409.931 445.4,410.1C446.7,410.1 453.4,409.9 456.1,411.1C458.5,412.1 459.3,414.4 459.4,416.8C459.8,423.1 459.7,432.8 459.1,438.5C458.946,439.363 458.605,440.183 458.1,440.9C454.8,446.4 447.1,445.7 441.9,446.4C434.5,447.4 433.9,448.8 427.7,445.9M447.3,438.7C449.8,437.6 450.3,435.5 450.6,432.8C450.9,429.5 450.8,426.2 449.9,423C449.5,421.5 449,419 447.9,417.9C447.2,417.2 446.2,417.1 445.4,417C440.391,416.983 435.385,417.217 430.4,417.7C429.4,417.9 428,417.6 427.2,418.3C426.5,419 426.7,420.3 426.6,421.3C426.4,423.3 426.4,425.3 426.4,427.3C426.4,428.1 426.4,434.9 427.2,436.6C427.6,437.4 431,438.8 431.2,438.9C436.415,440.559 442.028,440.488 447.2,438.7M287.7,551C289.3,544.6 289,537.9 289.4,531.2C290.1,518.6 290.4,506 291,493.3C292,471.4 293.6,465.5 291.7,447.5C291,441.7 288.7,426.7 287,420.7C285.9,416.5 285.4,416 281.6,416.3C276.1,416.7 276.9,422.6 276.8,427.1C276.4,441.8 276.3,456.5 275.9,471.1C275.5,486.4 275.3,501.7 274.5,517C273.9,527.2 271,537.3 272.1,547.5C272.5,551.9 286.2,556.8 287.7,551M259.8,542.5C264.1,534.3 262.1,524 262.8,514.8C265.5,478.6 265.4,442.3 268.8,406.3C269.8,395.5 271,384.7 271.8,373.9C271.8,372.2 271.8,370.4 271.2,368.8C270.2,365.6 265.9,363.4 268.5,359.8C269.2,358.8 270.3,358.1 271.2,357.3L272.9,355.7L272.9,332.7C272.9,295 274.4,257 276.5,219.4C277.2,205.3 279.4,191.2 279.5,177.1C279.5,168.8 278.7,160.6 278.5,152.3L278,127C278,118.6 279.1,118.7 277.5,110.4C276.5,105 276.5,101 272.2,97.8C264.8,92.3 263.1,93.5 253.2,92.5C240,91.2 226.8,90.4 213.7,88.7L198.3,86.8L187,87.7C169.7,89 155.8,88.5 138.6,88C136.1,88 132.2,86.5 131.1,88.8C127.7,96 127.7,108.1 126.8,114.8C126.2,119.7 124.6,124.4 124.1,129.4C123.1,138 123.3,146.7 122.5,155.3C121.5,165.9 118.5,176.1 117.3,186.6C111.3,235.3 113.6,285.6 113.7,334.6C113.7,370.1 114.2,405.6 114,441.3C114,450.3 113.6,459.4 113.2,468.5C113.2,468.5 111.9,473.7 113.4,474.7C129.8,485 148,492.3 165.4,500.9C167.7,502.1 170,503.6 172.6,504.4C173.6,504.7 175.4,505.4 175.5,504.4C176.1,498.1 174.7,491.9 174.5,485.6C174.4,481.5 172.4,476.6 177.9,476.6C183.9,476.4 189.6,479 195.6,479.6C200.1,480.2 205,478.8 209.4,480.4C211.8,481.4 213.2,485.4 213.4,487.3C214.8,497.9 214,508.6 215.2,519.3C215.4,520.9 216.2,527 218.4,528.8C222.9,532.6 228.9,533.8 234.4,536.1C238.7,538 242.9,540 247.4,541.5C250.6,542.5 253.8,543.5 257.1,543.8C258.1,543.9 259.2,543.5 259.6,542.7M232.1,437.4L232.1,429.4L234.4,425.9C235.1,424.9 235.9,423.8 236.8,422.9C237.3,422.4 238.7,422.8 239.2,422.9C240.6,422.9 242.1,423.2 243.6,423.2C244.9,423.2 246.2,423 247.6,422.8C248.1,422.8 249.5,422.4 250,422.8C253.1,425.5 256,429.6 257,433.6C257.5,435.7 257.6,437.9 258,440C258.2,441.6 258.6,441.8 258.2,443.4C257.617,445.168 256.583,446.754 255.2,448C254,448.7 252.7,448.5 251.4,448.3C247.4,447.8 247.6,447.3 243.6,447.1L239,447.1C236.7,447.1 233.3,448.1 232.5,445.1L232.3,443.3L232.2,437.3M137.2,447.1C135,445.4 131.6,447.2 129.6,445.4C128.7,444.6 128.6,442.9 128.6,441.9C128.9,438.1 129.2,434.4 129.7,430.6C130.2,427.6 130.5,424.5 131.7,421.6C132.9,418.4 137.6,411.9 142,413.7C143.6,414.4 145,415.9 146.6,416.7C149.6,417.9 149.9,416.7 152.9,418.2C159.9,421.8 157.2,432 156.3,438C155.8,441.2 155.2,443.6 153.1,446C150.9,448.6 147.1,445.4 144.6,445.7C141.9,446 139.9,449.2 137.2,447.1M177.6,445C175.7,442.9 177.1,437 177.2,435.8C177.9,429.8 178.2,425.4 181.2,420.5C182,419.2 183.7,416.3 185.4,415.5C187.2,414.6 191.1,414.9 192.5,415C194.5,415 198.4,415 200.3,416.2C202.3,417.5 203.8,421.2 204.6,423C205.3,424.5 206.1,426 206.6,427.7C207.1,430 206.1,434.3 205.6,436.1C204.8,439.6 203.5,443.2 200.4,445.3C196.4,447.9 191.4,444.5 187.2,444.5C184.2,444.5 180.2,447.9 177.6,445M145.8,394.6C143.1,391.9 141.6,393.6 137.8,394.4C136,394.8 134.3,395.1 132.5,395.2C129.7,395.4 126.9,391.4 126,389.2C123.8,383.5 127.3,376.5 129.7,371.5C130.3,370.2 131.7,366.7 133.6,366C135.6,365.3 141,366.5 142.1,366.6C145.5,367.1 148.8,367.5 152.1,368.1C152.7,368.2 153.4,368.4 153.8,368.8C159,374.1 157.2,384.3 155.5,390.6C155.2,392 154.5,394.8 153,395.8C150.9,397.4 147.5,396.2 145.8,394.6M222.8,395.1C221.6,393.1 222.5,385.5 222.5,385.2C222.8,381.9 222.9,378.5 223.8,375.2C224,374.2 228.5,370.9 228.6,370.8C229.5,370.2 230.3,369.5 231.2,369C234.1,367.4 237,368.6 240,368.9C243.2,369.2 245.3,367.7 248.4,367.4C250,367.3 251.9,370.4 252.3,371.4C254.3,377.6 254.3,384.2 250.3,389.4C249.529,390.358 248.481,391.057 247.3,391.4C245.8,391.9 244.3,390.2 242.8,390.8C241.9,391.3 241.3,392.1 240.5,392.7C239.6,393.4 238.8,394.3 237.7,394.7C234.2,396.2 230.2,395.9 226.4,396.2C224.7,396.4 223.8,396.8 222.8,395.2M182.1,389.7C181,389.6 179.9,389.3 178.9,388.9C171.4,386 175.9,375.9 177.4,370.6L179.4,363.4C180.4,360.9 181.3,357.6 184.6,358.3C187.2,358.7 187.5,361.3 189.4,362.6C190.7,363.6 194.1,361.9 195.7,362C198.5,362.2 201.7,363.7 203.7,365.8C206.9,369.3 205.1,375.2 204.3,379.2L203.1,383.8C202.8,384.8 202.4,385.8 201.9,386.5C199.6,389.6 196.1,386.2 193.3,387.2C191.3,387.8 189.7,389.9 187.5,390C185.7,390 183.9,390 182.1,389.7M130.9,333.7C128.9,332.5 128.4,329.9 128.2,327.9C127.8,323.9 128.6,319.4 129.2,315.5C129.5,313.7 129.9,310.7 131.1,309.1C133.21,306.999 135.559,305.153 138.1,303.6C139.5,302.6 140.8,301.6 142.4,301C143.8,300.5 145.3,300.7 146.7,300.6C149.6,300.4 152.6,299.6 155.4,300.2C157.9,300.8 158.4,305.8 158.6,307.5C159.1,311.5 159.6,315.6 159.9,319.7C159.9,321.5 160.1,323.4 159.9,325.2C159.8,326.4 159.3,327.4 158.9,328.5C158.1,330 156.2,332.8 154.2,332.7C152.6,332.7 151.2,331.4 149.6,331.1C147.5,330.8 145.3,331.1 143.3,331.5C139.3,332.5 134.9,335.8 130.9,333.6M245.3,331.9C244.6,331.2 244.1,330.3 243.4,329.5C243.2,329.3 242.9,328.9 242.5,329C242.2,329 238.1,331.7 237.9,331.7C234.6,332.9 228.9,329.3 226.6,327.9C226.1,327.7 225.8,327.2 225.6,326.8C224.6,324.1 225.2,318.5 225.3,317C226.1,309.9 228.9,301.4 236.1,298.6C240.5,297 246.7,302 249.6,304.6L253.3,308.2L253.9,313.6C254.5,318.6 255,324.4 252.6,329C251.2,331.8 248.1,335 245.3,332M182,327.9C181.3,326.5 182,320.9 182,320.5L182.6,310.2C182.7,308.9 182.6,307.5 183,306.2C183.4,305.1 184.4,304.3 185.2,303.4C186.8,301.3 188.1,298.8 190.2,297.2C192.2,295.7 194.2,296.7 196.4,297.2C199.4,297.9 204.1,297.4 206,300.6C209.4,306.2 208.6,310.3 207.6,317C207.1,320 206.8,324.8 203.4,326.3C200.1,327.7 198.1,324 194.8,324.3C192.6,324.7 190.9,325.7 188.9,326.7C187.6,327.3 183.5,330.7 182,327.9M135.3,269.9C132.7,268 133,265.9 133.7,263.1C134.4,259.7 135.3,256.4 135.9,253.1C135.9,253 136.9,244.5 137.9,242.7C142.7,233.9 154.5,240.2 160.2,244C162.9,245.8 163.7,249.4 164,252.4C164.2,254 164.2,255.7 164.2,257.4C164.2,259.7 164.9,262.4 163.7,264.4C163.1,265.3 160.7,266.2 160.4,266.4C156.3,268 153.7,268 148.8,268.8L141.5,269.9C138.9,270.4 137.8,271.7 135.3,269.9M230.8,265.4C229.9,264.7 229.1,263.9 228.3,263C225,259.4 226.3,256.6 227.1,251.6L228.1,246.6C229.1,242.9 230.7,239.3 234.4,237.9C236.8,236.9 238.4,238.2 240.4,239.3C243.1,240.8 246.1,241.8 248.7,243.6C251.7,245.6 253.1,250 252.3,253.4C252,254.8 251.3,256.2 250.7,257.6C249.9,259.6 248.8,262.4 246.7,263.3C244.7,264.1 244.5,263.6 242.5,264.5C239.9,265.7 237,268.8 233.8,267.5C232.7,267 231.8,266.2 230.8,265.5M186.6,265.2C185.6,264.5 185.6,263.9 185.6,262.6C186.218,255.51 187.052,248.44 188.1,241.4L188.8,239C190.8,234.2 195.4,237.2 199.1,237.8C201.6,238.2 205.3,237.5 207.4,239.1C208.7,240.1 209.4,242.3 209.9,243.8C211,248 210.9,249.2 210.6,253.8C210.4,257.1 210.6,261.5 206.7,262.7C204.2,263.5 201.5,261.2 198.9,262C197.5,262.5 196.5,263.7 195.2,264.3C193,265.3 188.8,266.9 186.6,265.2M244.1,208C242.1,206.5 240.8,206.5 238.5,206C237,205.7 235,205.8 234.3,204C233.6,202 234.3,196.5 234.6,195.3C235,192.2 235.3,189.1 236,186.1C236.3,184.7 237.4,183.5 238.4,182.6C240.8,180.6 243.4,178.4 246.7,178.7C247.7,178.8 248.5,179.3 249.5,179.5C251.8,180 254.4,179.9 256.6,180.7C259.2,181.5 259.9,186.1 260.3,188.1C261,191.1 262,195.1 261.1,198.4C260.3,201.7 258.8,201.9 256.3,203.8C255,204.8 250.6,209.3 248.2,209.5C246.7,209.6 245.2,208.8 244.1,208M194.1,207.6C192.9,206.3 189.4,199.6 188.8,197.3C188.5,196.1 188.6,194.8 188.8,193.5C189.3,189 190.4,181.7 195.2,179.3C196.5,178.7 198,178.1 199.4,177.8C202.6,177 207.6,180.1 210.1,181.1C212.1,181.9 213.5,182 214.8,183.5C216.1,185 216.4,186.9 216.5,188.8C216.8,192.9 216.9,200 213.9,203.4C211.8,205.8 208.9,205.8 206,206.5L199.7,208C197.2,208.7 195.9,209.6 194.1,207.6M139.6,204.1C139.1,203.6 138.8,203 138.8,202.1C138.9,196.4 140.5,189.1 141.5,184C141.5,183.4 142.9,177.4 143.9,176C144.7,175 146.5,174.9 147.7,175C152.594,176.095 157.092,178.517 160.7,182C161.9,183.7 162.2,186.3 162.4,188.2C162.9,192.6 164.7,198.5 160.2,201.2L156.7,202.9C155.4,203.5 154,204.2 152.5,204.4C150.5,204.7 148.7,203.4 146.7,203.7C144.4,204 141.7,206.4 139.7,204.1M244,148.8C242.4,148 241,146.7 239.4,145.5C235.9,142.5 237.7,137.2 238.4,133.4C239.3,128.6 239.7,125 244.2,122.7C247.9,120.8 250.7,122 254.2,123.4C255.9,124 257.9,124.1 259.5,125C262.1,126.4 263.5,129.9 264.2,132.5C264.8,134.7 265.5,136.9 265.7,139.1C265.7,140.1 265.5,141.3 265.1,142.3C262.8,148.5 256.8,149.3 251.1,149.7C248.3,150 246.5,150.1 244.1,148.8M158.5,147.6C157.4,146.6 153.3,146 151.7,145.3C146.7,143.3 143.5,139.3 140.1,135.3C139.1,134 138.4,133.5 138.2,131.9C138,130.2 138.6,127.9 139.1,126.4C141.1,119.9 146.2,119.2 152.3,117.8C157.6,116.5 164.7,115.3 169.7,118.3C171.7,119.5 170.4,124.1 170.3,125L169,136.4C168.6,138.9 168.4,141.6 167.8,144.1C167.5,145.3 166.2,146.3 165.3,146.9C163.3,148.4 160.8,149.6 158.5,147.6M219.9,122.5L222.1,124.5L222.3,131.7C222.4,136.8 223.1,139.5 219.1,142.4C217.495,143.603 215.655,144.455 213.7,144.9C211.5,145.3 209.2,144.5 207,144.9C205.4,145.1 204.4,146.3 202.9,146.8C199.9,147.7 196.4,144.2 194.9,141.9C192.7,138.6 194.7,131.7 195.2,128.6C195.6,126.1 195.7,118.5 199,117C200,116.5 202.8,116.6 204,117C205.1,117.3 205.9,118.7 207,119C208.6,119.2 210,118 211.6,117.9C214.8,117.6 217.7,120.6 219.9,122.5M204.9,519.8C205.7,517.3 204.9,495.3 204.7,492.6C204.7,491.8 204.1,488.6 202.7,488.2C199.6,487.2 193.7,486.4 190.2,487.5C189.2,487.8 187.8,488.6 187.7,489.9C187.4,493.5 187.4,508.6 188.4,512.4C188.6,513.4 189.9,513.7 190.7,514.3C193.1,515.8 197.7,518.3 200.2,519.6C200.9,519.9 204.1,521.7 204.8,519.8M446.9,518.8C448.5,518.5 449.9,517.9 451.4,517.3C454.7,516 454.1,511.6 454.4,508.7C454.4,507 455.4,501.9 453.2,500.2C452.2,499.5 450.5,499.2 449.4,499.2C444.6,499.2 436.7,499.7 432.3,500.4C431.4,500.5 431,502.1 430.9,502.7C430.9,505.4 430.9,511.3 431.4,514.4C431.523,515.336 431.793,516.248 432.2,517.1C433,518.7 434.2,518.8 435.8,519.2C439.7,520.2 443,519.6 446.9,518.8M100.6,469.3C102.9,467.8 102.2,462.5 102.2,461C102.2,460 104,449.5 101.9,447.6C100.1,446 97.5,445.6 95.7,443.9L94.1,442.3L94.5,434.7C94.7,431.2 95.3,427.7 95.4,424.3C95.4,416.3 91.9,408.9 94.4,400.9C95.3,397.9 98.4,396.8 100.6,395.4C101.6,394.9 103,394.7 103.3,393.7C105.1,385.5 103,376.7 104,368.4L104.5,363.7L101.9,360.9L99.4,358.1L100.1,350.3C101.2,338.7 97.5,328.4 97.1,317C96.9,315 97,312.9 97.8,311.1C98.9,308.7 103.4,309.4 103.8,306.4C104.3,303.1 104.3,299.8 104.3,296.5C104.3,293.1 104.5,289.6 103.9,286.3C103.7,285.1 103.1,283.5 102,283.2C98.7,282.2 95,282.6 91.5,282.5C85,282.5 78.5,282.8 72,282.9C67.1,283.1 62.3,283.5 57.4,283.4C51.8,283.2 47,280.9 41.3,281.7C38.9,282.1 34.5,282.3 33.1,285.3C31.7,288.7 32.3,300.8 32.3,302.3C32.3,314.7 32.6,327.1 32.5,339.4C32.4,348.7 30.9,358 30.9,367.2C30.9,376.2 36.8,384.6 40.3,392.2C42.6,397 44.6,401.9 46.7,406.8C48.5,410.7 54.3,428.6 60.9,431.8C72.5,437.4 71.5,426.4 71.9,417.8C72.3,412.8 72.6,407.8 72.7,402.6C72.7,400.6 73,398.4 72.1,396.6C69.1,390.3 55.7,390.4 50.8,389.8C48.8,389.5 41,390.2 40.8,385.8C40.8,384.3 41.3,383.5 42.8,383.4C46.8,383 50.8,383 54.7,383C62.2,383 70.3,382.8 77.2,386.6C81.6,388.9 79.7,395.8 79.5,399.6C79.1,405.5 78.5,411.4 78.4,417.4C78.2,424.2 79.6,431.4 79,438.1C78.8,441.6 75.6,441.2 73.2,441.6C71.2,441.9 67.4,441.8 67.7,443.8C68.5,447.8 72.6,450.5 75.4,453.4C80.8,459.1 82.7,459.9 89.8,464.2C91.8,465.3 96.9,471.7 100.6,469.2M41.5,354L39.1,351.5L39.1,344.8C39.1,341.2 40.8,317.9 40.8,317.6C40.8,316.8 40.2,305.9 43,302.9C46.3,299.4 51.1,299.9 55.4,300C63.1,300.4 77.4,300.6 82.5,308.5C83.1,309.4 83.7,310.4 83.8,311.5C85.3,323.4 84.8,331.7 85,343.8C85.1,349 88,364 78,363C69.6,362.2 61.3,360 53,358.6C47.3,357.6 45.6,358.3 41.5,354M77,352.6C80,348.8 78,342.8 78.4,337.9C78.8,332.2 79.6,325.9 78.1,320.1C77.5,317.6 76.3,313.8 73.8,312.4C71.6,311.1 69.1,310.4 66.8,309.7C66.1,309.5 59.9,306.7 57.6,308.5C53.9,311.5 53.9,317.5 53,322.2C51.5,329.8 51.1,335.2 53.2,342.4C53.3,342.6 54.4,348.2 56.2,349.4C59,351.2 68.7,352.4 70.8,352.7C72.2,353 75.5,354.3 77,352.6M517.6,445.8C521.3,439.9 523.1,439.9 526.1,432.5C532.2,417.8 534.9,403.7 538.9,388.5C541.1,380.3 544.2,372.4 545.7,364.1C547.3,354.9 548.2,345.5 549.5,336.3C552,319.1 555.9,302.1 556.8,284.6C556.528,264.318 554.012,244.129 549.3,224.4C547,215 543,206 539.5,197C536.5,189.3 533.7,181.4 529.7,174.1C511.287,144.479 487.674,118.427 460,97.2C451,90.4 440,87.4 431.1,80.6C423.1,74.6 424.3,73.3 416,67.6C414.8,66.8 392.6,54.8 392.5,54.8C359.998,37.132 324.892,24.744 288.5,18.1C259.236,12.521 229.489,9.874 199.7,10.2C176.7,10.3 153.1,11.5 131.8,21.5L122.9,25.6L115.9,32.9C103.2,45.6 86.7,53.9 75.9,68.7C69.4,77.5 69.7,78.7 65.4,88.6C56.8,108.3 48.1,128.1 39.6,147.9C36.1,155.9 32.4,163.9 29.4,172C27.5,177.3 20.3,204.1 18.8,209.6C9.7,243 5.2,276 13.4,310.2C15.3,318.2 17.4,326 19.7,333.8C21.2,338.8 21.7,344.4 24.9,348.4C26.2,350.1 25.9,344.1 26,341.9C26.4,331.7 26.2,321.5 26.3,311.3C26.3,301.5 26.2,291.7 26.5,282C26.5,279.9 26.3,277.6 27.3,275.8C28,274.8 29.6,274.8 30.9,274.5C32.9,274.1 35.1,273.8 37.3,273.9C54.7,274.3 71.1,276.6 88.6,275.5C92.6,275.3 96.8,275.2 100.8,274.2C101.8,273.9 102.8,273 102.9,272C105.1,261 104.9,249.5 105.9,238.3C109.9,192.3 112.6,146.1 118.3,100.3C119.1,93.8 119.4,87.2 121,80.8C121.2,79.8 122.5,79.1 123.6,78.8C125.9,78.2 135.2,77.8 137.8,77.9C141,78.2 144,79.7 147.1,80C153.4,80.5 173.1,79.8 176.3,79.7C177.4,79.7 183.3,79.7 184.9,78C187.4,75.3 187.3,63 186.4,60.4C185.5,57.8 180.4,56.7 181.1,54C181.5,52.2 184.8,51.9 185.5,50.2C185.7,49.8 185.2,49 184.7,48.9C181.1,48.2 178.8,51.1 175.8,48.1L174,46.1L175.4,45.1C177.4,43.4 186.8,42.9 187.6,40.1C188,38.3 186.6,36.3 187.1,34.5C187.493,33.197 188.177,32 189.1,31C194.8,23.9 194.5,36.1 195.9,38.5C197.1,40.5 200.9,40.2 200.7,42.9C200.7,46.2 196.6,45.2 195.1,47.6C194.4,48.8 194.6,50.3 194.5,51.7C194,58.7 193.3,65.7 193.5,72.6C193.5,75.3 193.4,77 196.2,77.6C205.5,79.7 215.2,79.2 224.7,80C227.2,80.2 230,81.5 232.4,80.4C233.4,80 234.8,73.4 234.8,72C234.6,68.5 227.1,71.2 227.1,66.9C227.1,62.9 232.8,65.2 234.1,63.1C234.3,62.6 233.6,61.8 233,61.5C229.3,59.9 222.3,61.4 220.6,56.5C220.3,55.5 221.4,54.5 222.2,54.5C226,54.1 231.9,55 235.7,54.5C238.1,54.2 236.8,46.4 240.9,49.4C242.4,50.5 242.4,53.9 243.4,55.2C243.8,55.7 248.6,58.2 248.4,59.2C248.1,60.9 246,61.4 245,62.6C243,65 242.9,67.3 242.2,70.6C241.7,73.3 241.1,76.1 240.9,78.9C240.9,79.9 240.6,81.6 241.5,81.9C251.3,84.2 261.7,81.9 271.6,83.5C278.6,84.6 284.5,91.7 286.9,98L288.5,102.4L288.4,122.3C288.3,132.4 286.5,142.6 287.4,152.8C287.7,156.8 288.8,160.8 289,164.8C289.3,169.2 287.6,183.4 287.4,186.8C286.1,202.8 284.8,219 283.8,235.1C283.3,241.9 283.8,259.1 283.8,262.9C283.8,264.5 283.1,276.1 284.3,279.5C285.8,283.5 296.1,280.5 298,280.5C301.5,280.6 304.9,281.3 308.3,281.7C326.9,283.8 345.6,284.9 364,288.1C365.1,288.2 366,289.4 366.4,290.5C372.8,306.6 368.8,325.2 369.2,342.6C369.8,369.9 358.7,381.3 379,383.6L384.6,384.2L386,382.7C388.6,379.7 387.3,379.1 385,377.2C384.2,376.6 382.6,376.6 382.6,375.7C382.6,374.7 384,374.7 384.8,374.2C386.2,373.2 390.3,370.1 386.9,367.9C385.5,366.9 379.6,368.1 379.1,365.6C378.7,363.4 384.6,363 385.6,362.4C386.1,362.1 386.9,361.6 386.7,361.1C385.9,359.1 382.5,359.4 381.7,357.5C380.4,354.5 387.3,353.8 388.2,352.9C389.5,351.7 390.1,346.2 392.4,346.1C394.2,345.9 393.9,351.1 394.5,352C395.9,354 400.1,354.6 399.8,357C399.7,357.5 393.6,359.8 395,360.9C396.4,361.9 401.9,362.7 402.2,365C402.4,367 396,367 395.4,367.1C391.4,368.4 391.4,380.2 394.5,382.5C396.9,384.3 400.5,383.2 402.8,383.1C439.6,380.6 447.7,379.2 480.6,379.6C488.7,379.7 496.9,379.8 505.1,380.6C506.9,380.8 509.1,381.1 510.3,382.5C511.4,383.7 511.2,385.7 511.3,387.5C511.6,393.7 511.6,400 511.6,406.3C511.6,416.7 510,419.8 511.9,426.8C512.8,430 513.4,433.3 514,436.6C514.6,440 514.7,443.4 515.4,446.6C515.6,447.5 517.1,446.3 517.6,445.6M104.2,433L104.2,429.5C104.2,428.8 104,428.1 103.8,427.5C103.6,426.8 103,426.8 102.6,427.2C102.133,427.578 101.757,428.057 101.5,428.6C101,429.7 100.8,431.2 100.8,432.3C100.8,433.8 100.8,435.6 101.8,436.9C101.8,437.2 103.1,438.8 103.5,437.8L104,436.1L104.2,433M104.3,415.6C104.7,413.2 104.8,410.1 103.7,407.8L103,406.8C102.5,406.4 102,406.6 101.5,407.1C100.8,408.1 100.5,409.2 100.4,410.4C100.2,413 100.8,415.7 101.7,418.1L102.5,419.5C102.6,419.7 103,419.8 103.2,419.5L103.8,418.3L104.3,415.6M302.3,379L303.7,377.4L309.5,377.8C312.6,378.1 323.8,378.2 334.4,378.2L350.8,378.2C352.8,378.4 354.8,378.8 356.8,379.2C357.8,379.3 359,380.4 360,380C361,379.5 361.5,378.1 361.6,377C362.2,365.7 362.1,354.4 362.1,343C362.1,328.7 366.5,313.2 360.9,300C358.7,294.8 346.5,295 345.2,294.7C334.2,293 319.2,291.7 307.5,290.7C300.6,290.2 293.1,289.7 286.5,292.1C281.1,294.1 282.1,305.3 283,309.2C283.3,310.6 284.1,312.2 285.4,312.7C291,315.2 299.2,312.1 304.1,316.7C307.6,319.9 305.1,326.2 305.1,331C304.9,341.2 306.6,351.8 304,361.7C302.3,368.1 288.5,368.2 285.3,369C284.2,369.3 281.6,370.4 281.3,372C279.6,377.8 279.5,384 278.9,390C278.6,393.6 277.3,402.6 279.7,406.7C281.2,409.4 285.5,408.4 288.2,409.7C289.7,410.5 290.9,411.7 292.2,412.7C292.6,413 292.8,413.9 293.2,413.7C296.8,412.5 294.5,406 294.7,402.1C294.9,398.1 293.9,388.8 297.2,384.3C298.6,382.3 300.8,381 302.4,379M292,359.7C299.6,358.6 298.2,355.9 298,348C298,341.7 297.7,335.4 297.4,329.1C297.4,328 297.3,323.4 295.9,322.1C293.9,320.1 287.9,321.4 285.5,321.9C284.6,322.1 283.7,322.9 283.5,323.9C282.5,329.1 282.9,336.9 282.9,341.4C282.9,346 282.9,350.6 283.1,355.3C283.1,356.8 282.9,358.4 283.6,359.8C283.9,360.4 284.9,360.5 285.6,360.5C287.7,360.5 289.9,360 292,359.7" style="fill:white;fill-rule:nonzero;"/>
</svg>
